<svg width="328" height="309" viewBox="0 0 328 309" fill="none" xmlns="http://www.w3.org/2000/svg">
<path fill-rule="evenodd" clip-rule="evenodd" d="M212.391 19.939H39.1768V289.387H212.391V19.939ZM308.621 193.157H289.376V270.141H308.621V193.157Z" fill="#F9F5E4"/>
<path fill-rule="evenodd" clip-rule="evenodd" d="M58.4185 77.6511H193.142V135.417H58.4185V77.6511Z" fill="#926943"/>
<path fill-rule="evenodd" clip-rule="evenodd" d="M77.6672 58.416H173.897V97.0011H77.6672V58.416Z" fill="#926943"/>
<path fill-rule="evenodd" clip-rule="evenodd" d="M212.391 193.157H231.636V270.131H212.391V193.157Z" fill="#926943"/>
<path fill-rule="evenodd" clip-rule="evenodd" d="M19.928 193.157H39.1733V270.131H19.928V193.157Z" fill="#926943"/>
<path fill-rule="evenodd" clip-rule="evenodd" d="M193.142 270.162H212.391V289.397H193.142V270.162Z" fill="#926943"/>
<path fill-rule="evenodd" clip-rule="evenodd" d="M39.1733 270.131H58.4186V289.37H39.1733V270.131Z" fill="#926943"/>
<path fill-rule="evenodd" clip-rule="evenodd" d="M231.636 270.101H289.376V289.339H231.636V270.101Z" fill="#926943"/>
<path fill-rule="evenodd" clip-rule="evenodd" d="M270.191 250.923H289.376V270.161H270.191V250.923Z" fill="#926943"/>
<path fill-rule="evenodd" clip-rule="evenodd" d="M77.6672 250.906H116.158V289.37H77.6672V250.906Z" fill="#926943"/>
<path fill-rule="evenodd" clip-rule="evenodd" d="M135.406 250.923H173.897V289.386H135.406V250.923Z" fill="#926943"/>
<path fill-rule="evenodd" clip-rule="evenodd" d="M39.1733 0.703613H19.928V135.417H39.1733V0.703613Z" fill="black"/>
<path fill-rule="evenodd" clip-rule="evenodd" d="M212.391 0.703613H231.636V135.417H212.391V0.703613Z" fill="black"/>
<path fill-rule="evenodd" clip-rule="evenodd" d="M19.9279 193.157H0.682617V270.04H19.9279V193.157Z" fill="black"/>
<path fill-rule="evenodd" clip-rule="evenodd" d="M231.636 193.258H250.882V270.141H231.636V193.258Z" fill="black"/>
<path fill-rule="evenodd" clip-rule="evenodd" d="M19.9279 58.416H0.682617V77.6512H19.9279V58.416Z" fill="black"/>
<path fill-rule="evenodd" clip-rule="evenodd" d="M231.636 58.416H250.882V77.6512H231.636V58.416Z" fill="black"/>
<path fill-rule="evenodd" clip-rule="evenodd" d="M19.9279 96.9268H0.682617V116.162H19.9279V96.9268Z" fill="black"/>
<path fill-rule="evenodd" clip-rule="evenodd" d="M231.636 96.9268H250.882V116.162H231.636V96.9268Z" fill="black"/>
<path fill-rule="evenodd" clip-rule="evenodd" d="M289.375 270.162H308.621V289.397H289.375V270.162Z" fill="black"/>
<path fill-rule="evenodd" clip-rule="evenodd" d="M289.375 173.911H308.621V193.147H289.375V173.911Z" fill="black"/>
<path fill-rule="evenodd" clip-rule="evenodd" d="M250.882 250.923H270.127V270.161H250.882V250.923Z" fill="black"/>
<path fill-rule="evenodd" clip-rule="evenodd" d="M308.614 173.911H327.859V270.04H308.614V173.911Z" fill="black"/>
<path fill-rule="evenodd" clip-rule="evenodd" d="M270.127 193.268H289.376V250.896H270.127V193.268Z" fill="black"/>
<path fill-rule="evenodd" clip-rule="evenodd" d="M58.4186 135.427H39.1733V154.663H58.4186V135.427Z" fill="black"/>
<path fill-rule="evenodd" clip-rule="evenodd" d="M193.142 135.427H212.391V154.663H193.142V135.427Z" fill="black"/>
<path fill-rule="evenodd" clip-rule="evenodd" d="M58.4186 250.805H39.1733V270.04H58.4186V250.805Z" fill="black"/>
<path fill-rule="evenodd" clip-rule="evenodd" d="M193.142 250.923H212.391V270.161H193.142V250.923Z" fill="black"/>
<path fill-rule="evenodd" clip-rule="evenodd" d="M212.391 0.703613H173.897V19.9388H212.391V0.703613Z" fill="black"/>
<path fill-rule="evenodd" clip-rule="evenodd" d="M77.6673 0.703613H39.1733V19.9388H77.6673V0.703613Z" fill="black"/>
<path fill-rule="evenodd" clip-rule="evenodd" d="M173.897 19.939H77.6672V39.1775H173.897V19.939Z" fill="black"/>
<path fill-rule="evenodd" clip-rule="evenodd" d="M135.406 251.014H116.158V308.635H135.406V251.014Z" fill="black"/>
<path fill-rule="evenodd" clip-rule="evenodd" d="M77.6671 270.04H58.4185V289.397H77.6671V270.04Z" fill="black"/>
<path fill-rule="evenodd" clip-rule="evenodd" d="M173.897 270.04H193.142V289.397H173.897V270.04Z" fill="black"/>
<path fill-rule="evenodd" clip-rule="evenodd" d="M39.1733 270.04H19.928V289.397H39.1733V270.04Z" fill="black"/>
<path fill-rule="evenodd" clip-rule="evenodd" d="M212.391 270.162H231.636V289.397H212.391V270.162Z" fill="black"/>
<path fill-rule="evenodd" clip-rule="evenodd" d="M116.158 289.397H39.1733V308.635H116.158V289.397Z" fill="black"/>
<path fill-rule="evenodd" clip-rule="evenodd" d="M135.406 289.397H289.376V308.635H135.406V289.397Z" fill="black"/>
<path fill-rule="evenodd" clip-rule="evenodd" d="M39.1733 154.673H19.928V193.157H39.1733V154.673Z" fill="black"/>
<path fill-rule="evenodd" clip-rule="evenodd" d="M212.391 154.673H231.636V193.157H212.391V154.673Z" fill="black"/>
<path fill-rule="evenodd" clip-rule="evenodd" d="M154.652 77.6885H173.897V96.927H154.652V77.6885Z" fill="black"/>
<path fill-rule="evenodd" clip-rule="evenodd" d="M77.6672 96.9336H96.9125V116.172H77.6672V96.9336Z" fill="#69BAC9"/>
<path fill-rule="evenodd" clip-rule="evenodd" d="M154.652 96.9336H173.897V116.172H154.652V96.9336Z" fill="#69BAC9"/>
<path fill-rule="evenodd" clip-rule="evenodd" d="M116.158 96.9268H135.406V116.162H116.158V96.9268Z" fill="black"/>
<path fill-rule="evenodd" clip-rule="evenodd" d="M77.6672 77.6885H96.9125V96.927H77.6672V77.6885Z" fill="black"/>
</svg>
