<svg width="328" height="309" viewBox="0 0 328 309" fill="none" xmlns="http://www.w3.org/2000/svg">
<path fill-rule="evenodd" clip-rule="evenodd" d="M211.821 19.6033H38.6064V289.051H211.824V19.6033H211.821ZM308.054 192.818H288.809V269.802H308.054V192.818Z" fill="#EAEAEA"/>
<path fill-rule="evenodd" clip-rule="evenodd" d="M77.0972 38.8589H115.591V77.3326H77.0972V38.8589Z" fill="#808080"/>
<path fill-rule="evenodd" clip-rule="evenodd" d="M134.836 38.8318H173.283V77.3055H134.836V38.8318Z" fill="#DE7C00"/>
<path fill-rule="evenodd" clip-rule="evenodd" d="M154.085 19.5967H211.821V96.5778H154.085V19.5967Z" fill="#DE7C00"/>
<path fill-rule="evenodd" clip-rule="evenodd" d="M38.6064 19.6033H96.3457V96.5844H38.6064V19.6033Z" fill="#808080"/>
<path fill-rule="evenodd" clip-rule="evenodd" d="M211.821 192.808H231.07V231.312H211.821V192.808Z" fill="#DE7C00"/>
<path fill-rule="evenodd" clip-rule="evenodd" d="M19.3612 192.808H38.6065V231.312H19.3612V192.808Z" fill="#808080"/>
<path fill-rule="evenodd" clip-rule="evenodd" d="M19.3612 250.557H38.6065V269.802H19.3612V250.557Z" fill="#808080"/>
<path fill-rule="evenodd" clip-rule="evenodd" d="M19.3612 231.312H38.6065V250.557H19.3612V231.312Z" fill="#EAEAEA"/>
<path fill-rule="evenodd" clip-rule="evenodd" d="M211.821 231.312H231.07V250.557H211.821V231.312Z" fill="#EAEAEA"/>
<path fill-rule="evenodd" clip-rule="evenodd" d="M192.576 269.812H211.821V289.051H192.576V269.812Z" fill="#DE7C00"/>
<path fill-rule="evenodd" clip-rule="evenodd" d="M211.821 250.385H231.07V269.624H211.821V250.385Z" fill="#DE7C00"/>
<path fill-rule="evenodd" clip-rule="evenodd" d="M38.6064 269.785H57.8517V289.021H38.6064V269.785Z" fill="#808080"/>
<path fill-rule="evenodd" clip-rule="evenodd" d="M231.07 269.752H288.809V288.99H231.07V269.752Z" fill="#808080"/>
<path fill-rule="evenodd" clip-rule="evenodd" d="M154.085 38.8418H192.576V58.077H154.085V38.8418Z" fill="#874D03"/>
<path fill-rule="evenodd" clip-rule="evenodd" d="M57.8518 38.8418H96.3458V58.077H57.8518V38.8418Z" fill="#635C5C"/>
<path fill-rule="evenodd" clip-rule="evenodd" d="M192.576 58.0771H211.821V77.3157H192.576V58.0771Z" fill="#874D03"/>
<path fill-rule="evenodd" clip-rule="evenodd" d="M38.6064 58.104H57.8517V77.3426H38.6064V58.104Z" fill="#635C5C"/>
<path fill-rule="evenodd" clip-rule="evenodd" d="M269.621 250.385H308.054V269.624H269.621V250.385Z" fill="#DE7C00"/>
<path fill-rule="evenodd" clip-rule="evenodd" d="M288.859 231.322H308.054V250.557H288.859V231.322Z" fill="#DE7C00"/>
<path fill-rule="evenodd" clip-rule="evenodd" d="M77.0972 269.704H115.591V289.02H77.0972V269.704Z" fill="#DE7C00"/>
<path fill-rule="evenodd" clip-rule="evenodd" d="M96.3458 250.385H115.591V289.021H96.3458V250.385Z" fill="#DE7C00"/>
<path fill-rule="evenodd" clip-rule="evenodd" d="M134.836 250.577H154.085V289.041H134.836V250.577Z" fill="#808080"/>
<path fill-rule="evenodd" clip-rule="evenodd" d="M134.836 269.802H173.33V289.021H134.836V269.802Z" fill="#808080"/>
<path fill-rule="evenodd" clip-rule="evenodd" d="M38.6064 154.327H77.097V192.791H38.6064V154.327Z" fill="#808080"/>
<path fill-rule="evenodd" clip-rule="evenodd" d="M19.3612 176.417H57.8518V212.036H19.3612V176.417Z" fill="#808080"/>
<path fill-rule="evenodd" clip-rule="evenodd" d="M38.6065 0.364746H19.3612V135.078H38.6065V0.364746Z" fill="black"/>
<path fill-rule="evenodd" clip-rule="evenodd" d="M211.821 0.364746H231.07V135.078H211.821V0.364746Z" fill="black"/>
<path fill-rule="evenodd" clip-rule="evenodd" d="M19.3612 192.818H0.112549V269.705H19.3612V192.818Z" fill="black"/>
<path fill-rule="evenodd" clip-rule="evenodd" d="M231.07 192.919H250.315V269.802H231.07V192.919Z" fill="black"/>
<path fill-rule="evenodd" clip-rule="evenodd" d="M19.3612 58.0771H0.112549V77.3157H19.3612V58.0771Z" fill="black"/>
<path fill-rule="evenodd" clip-rule="evenodd" d="M231.07 58.0771H250.315V77.3157H231.07V58.0771Z" fill="black"/>
<path fill-rule="evenodd" clip-rule="evenodd" d="M19.3612 96.5879H0.112549V115.823H19.3612V96.5879Z" fill="black"/>
<path fill-rule="evenodd" clip-rule="evenodd" d="M231.07 96.5879H250.315V115.823H231.07V96.5879Z" fill="black"/>
<path fill-rule="evenodd" clip-rule="evenodd" d="M288.809 269.823H308.054V289.058H288.809V269.823Z" fill="black"/>
<path fill-rule="evenodd" clip-rule="evenodd" d="M288.809 173.573H308.054V192.808H288.809V173.573Z" fill="black"/>
<path fill-rule="evenodd" clip-rule="evenodd" d="M250.315 250.587H269.56V269.823H250.315V250.587Z" fill="black"/>
<path fill-rule="evenodd" clip-rule="evenodd" d="M308.044 173.573H327.293V269.704H308.044V173.573Z" fill="black"/>
<path fill-rule="evenodd" clip-rule="evenodd" d="M269.56 192.929H288.809V250.557H269.56V192.929Z" fill="black"/>
<path fill-rule="evenodd" clip-rule="evenodd" d="M57.8517 135.089H38.6064V154.327H57.8517V135.089Z" fill="black"/>
<path fill-rule="evenodd" clip-rule="evenodd" d="M192.576 135.089H211.821V154.327H192.576V135.089Z" fill="black"/>
<path fill-rule="evenodd" clip-rule="evenodd" d="M57.8517 250.466H38.6064V269.704H57.8517V250.466Z" fill="black"/>
<path fill-rule="evenodd" clip-rule="evenodd" d="M192.576 250.587H211.821V269.823H192.576V250.587Z" fill="black"/>
<path fill-rule="evenodd" clip-rule="evenodd" d="M211.821 0.364746H173.33V19.6033H211.821V0.364746Z" fill="black"/>
<path fill-rule="evenodd" clip-rule="evenodd" d="M77.097 0.364746H38.6064V19.6033H77.097V0.364746Z" fill="black"/>
<path fill-rule="evenodd" clip-rule="evenodd" d="M173.33 19.6033H77.0972V38.8384H173.33V19.6033Z" fill="black"/>
<path fill-rule="evenodd" clip-rule="evenodd" d="M134.836 250.678H115.591V308.296H134.836V250.678Z" fill="black"/>
<path fill-rule="evenodd" clip-rule="evenodd" d="M77.0971 269.704H57.7405V289.058H77.0971V269.704Z" fill="black"/>
<path fill-rule="evenodd" clip-rule="evenodd" d="M173.33 269.704H192.576V289.058H173.33V269.704Z" fill="black"/>
<path fill-rule="evenodd" clip-rule="evenodd" d="M38.6065 269.704H19.3612V289.058H38.6065V269.704Z" fill="black"/>
<path fill-rule="evenodd" clip-rule="evenodd" d="M211.821 269.823H231.07V289.058H211.821V269.823Z" fill="black"/>
<path fill-rule="evenodd" clip-rule="evenodd" d="M115.591 289.058H38.6064V308.296H115.591V289.058Z" fill="black"/>
<path fill-rule="evenodd" clip-rule="evenodd" d="M134.836 289.058H288.809V308.296H134.836V289.058Z" fill="black"/>
<path fill-rule="evenodd" clip-rule="evenodd" d="M38.6065 154.337H19.3612V192.818H38.6065V154.337Z" fill="black"/>
<path fill-rule="evenodd" clip-rule="evenodd" d="M211.821 154.337H231.07V192.818H211.821V154.337Z" fill="black"/>
<path fill-rule="evenodd" clip-rule="evenodd" d="M154.085 77.3494H173.33V96.5879H154.085V77.3494Z" fill="black"/>
<path fill-rule="evenodd" clip-rule="evenodd" d="M77.0972 96.5981H96.3458V115.833H77.0972V96.5981Z" fill="#009EDB"/>
<path fill-rule="evenodd" clip-rule="evenodd" d="M154.085 96.5981H173.33V115.833H154.085V96.5981Z" fill="#009EDB"/>
<path fill-rule="evenodd" clip-rule="evenodd" d="M115.591 96.5879H134.836V115.823H115.591V96.5879Z" fill="black"/>
<path fill-rule="evenodd" clip-rule="evenodd" d="M77.0972 77.3494H96.3458V96.5879H77.0972V77.3494Z" fill="black"/>
</svg>
