<svg width="328" height="309" viewBox="0 0 328 309" fill="none" xmlns="http://www.w3.org/2000/svg">
<path fill-rule="evenodd" clip-rule="evenodd" d="M212.296 19.6033H39.0786V289.051H212.296V19.6033ZM308.526 192.818H289.281V269.802H308.526V192.818Z" fill="white"/>
<path fill-rule="evenodd" clip-rule="evenodd" d="M39.082 38.8418H58.3273V77.3155H39.082V38.8418Z" fill="#E7E7E7"/>
<path fill-rule="evenodd" clip-rule="evenodd" d="M193.051 38.8689H212.297V77.3426H193.051V38.8689Z" fill="#E7E7E7"/>
<path fill-rule="evenodd" clip-rule="evenodd" d="M58.3274 38.8418H77.5727V58.077H58.3274V38.8418Z" fill="#E7E7E7"/>
<path fill-rule="evenodd" clip-rule="evenodd" d="M173.802 38.8418H193.051V58.077H173.802V38.8418Z" fill="#E7E7E7"/>
<path fill-rule="evenodd" clip-rule="evenodd" d="M212.296 192.818H231.542V269.796H212.296V192.818Z" fill="#E7E7E7"/>
<path fill-rule="evenodd" clip-rule="evenodd" d="M19.8333 192.818H39.0819V269.796H19.8333V192.818Z" fill="#E7E7E7"/>
<path fill-rule="evenodd" clip-rule="evenodd" d="M193.051 269.823H212.297V289.058H193.051V269.823Z" fill="#E7E7E7"/>
<path fill-rule="evenodd" clip-rule="evenodd" d="M39.082 269.795H58.3273V289.031H39.082V269.795Z" fill="#E7E7E7"/>
<path fill-rule="evenodd" clip-rule="evenodd" d="M231.542 269.762H289.281V289H231.542V269.762Z" fill="#E7E7E7"/>
<path fill-rule="evenodd" clip-rule="evenodd" d="M270.096 250.587H289.281V269.823H270.096V250.587Z" fill="#E7E7E7"/>
<path fill-rule="evenodd" clip-rule="evenodd" d="M77.5728 250.567H116.067V289.031H77.5728V250.567Z" fill="#E7E7E7"/>
<path fill-rule="evenodd" clip-rule="evenodd" d="M135.312 250.587H173.802V289.051H135.312V250.587Z" fill="#E7E7E7"/>
<path fill-rule="evenodd" clip-rule="evenodd" d="M39.0819 0.364746H19.8333V135.078H39.0819V0.364746Z" fill="black"/>
<path fill-rule="evenodd" clip-rule="evenodd" d="M212.296 0.364746H231.542V135.078H212.296V0.364746Z" fill="black"/>
<path fill-rule="evenodd" clip-rule="evenodd" d="M19.8332 192.818H0.587891V269.705H19.8332V192.818Z" fill="black"/>
<path fill-rule="evenodd" clip-rule="evenodd" d="M231.542 192.919H250.79V269.802H231.542V192.919Z" fill="black"/>
<path fill-rule="evenodd" clip-rule="evenodd" d="M19.8332 58.0771H0.587891V77.3157H19.8332V58.0771Z" fill="black"/>
<path fill-rule="evenodd" clip-rule="evenodd" d="M231.542 58.0771H250.79V77.3157H231.542V58.0771Z" fill="black"/>
<path fill-rule="evenodd" clip-rule="evenodd" d="M19.8332 96.5879H0.587891V115.823H19.8332V96.5879Z" fill="black"/>
<path fill-rule="evenodd" clip-rule="evenodd" d="M231.542 96.5879H250.79V115.823H231.542V96.5879Z" fill="black"/>
<path fill-rule="evenodd" clip-rule="evenodd" d="M289.281 269.823H308.526V289.058H289.281V269.823Z" fill="black"/>
<path fill-rule="evenodd" clip-rule="evenodd" d="M289.281 173.573H308.526V192.808H289.281V173.573Z" fill="black"/>
<path fill-rule="evenodd" clip-rule="evenodd" d="M250.791 250.587H270.036V269.823H250.791V250.587Z" fill="black"/>
<path fill-rule="evenodd" clip-rule="evenodd" d="M308.52 173.573H327.768V269.704H308.52V173.573Z" fill="black"/>
<path fill-rule="evenodd" clip-rule="evenodd" d="M270.036 192.929H289.281V250.557H270.036V192.929Z" fill="black"/>
<path fill-rule="evenodd" clip-rule="evenodd" d="M58.3273 135.089H39.082V154.327H58.3273V135.089Z" fill="black"/>
<path fill-rule="evenodd" clip-rule="evenodd" d="M193.051 135.089H212.297V154.327H193.051V135.089Z" fill="black"/>
<path fill-rule="evenodd" clip-rule="evenodd" d="M58.3273 250.466H39.082V269.704H58.3273V250.466Z" fill="black"/>
<path fill-rule="evenodd" clip-rule="evenodd" d="M193.051 250.587H212.297V269.823H193.051V250.587Z" fill="black"/>
<path fill-rule="evenodd" clip-rule="evenodd" d="M212.296 0.364746H173.802V19.6033H212.296V0.364746Z" fill="black"/>
<path fill-rule="evenodd" clip-rule="evenodd" d="M77.5727 0.364746H39.082V19.6033H77.5727V0.364746Z" fill="black"/>
<path fill-rule="evenodd" clip-rule="evenodd" d="M173.803 19.6033H77.5728V38.8384H173.803V19.6033Z" fill="black"/>
<path fill-rule="evenodd" clip-rule="evenodd" d="M135.312 250.678H116.066V308.296H135.312V250.678Z" fill="black"/>
<path fill-rule="evenodd" clip-rule="evenodd" d="M77.5727 269.704H58.3274V289.058H77.5727V269.704Z" fill="black"/>
<path fill-rule="evenodd" clip-rule="evenodd" d="M173.802 269.704H193.051V289.058H173.802V269.704Z" fill="black"/>
<path fill-rule="evenodd" clip-rule="evenodd" d="M39.0819 269.704H19.8333V289.058H39.0819V269.704Z" fill="black"/>
<path fill-rule="evenodd" clip-rule="evenodd" d="M212.296 269.823H231.542V289.058H212.296V269.823Z" fill="black"/>
<path fill-rule="evenodd" clip-rule="evenodd" d="M116.067 289.058H39.082V308.296H116.067V289.058Z" fill="black"/>
<path fill-rule="evenodd" clip-rule="evenodd" d="M135.312 289.058H289.281V308.296H135.312V289.058Z" fill="black"/>
<path fill-rule="evenodd" clip-rule="evenodd" d="M39.0819 154.337H19.8333V192.818H39.0819V154.337Z" fill="black"/>
<path fill-rule="evenodd" clip-rule="evenodd" d="M212.296 154.337H231.542V192.818H212.296V154.337Z" fill="black"/>
<path fill-rule="evenodd" clip-rule="evenodd" d="M154.557 77.3494H173.802V96.5879H154.557V77.3494Z" fill="black"/>
<path fill-rule="evenodd" clip-rule="evenodd" d="M77.5728 96.5981H96.8181V115.833H77.5728V96.5981Z" fill="#69BAC9"/>
<path fill-rule="evenodd" clip-rule="evenodd" d="M154.557 96.5981H173.802V115.833H154.557V96.5981Z" fill="#69BAC9"/>
<path fill-rule="evenodd" clip-rule="evenodd" d="M116.066 96.5879H135.312V115.823H116.066V96.5879Z" fill="black"/>
<path fill-rule="evenodd" clip-rule="evenodd" d="M77.5728 77.3494H96.8181V96.5879H77.5728V77.3494Z" fill="black"/>
</svg>
