<svg width="378" height="407" viewBox="0 0 378 407" fill="none" xmlns="http://www.w3.org/2000/svg">
<g clip-path="url(#clip0_745_8457)">
<path d="M116.12 29.03H87.0898V58.06H116.12V29.03Z" fill="#FFCDF3"/>
<path d="M87.0901 58.0601H58.0601V87.0901H87.0901V58.0601Z" fill="#FFCDF3"/>
<path d="M58.0598 87.0898H29.0298V116.12H58.0598V87.0898Z" fill="#E480FB"/>
<path d="M58.0598 116.12H29.0298V145.15H58.0598V116.12Z" fill="#E480FB"/>
<path d="M58.0598 145.15H29.0298V174.18H58.0598V145.15Z" fill="#E480FB"/>
<path d="M58.0598 174.18H29.0298V203.21H58.0598V174.18Z" fill="#E480FB"/>
<path d="M58.0598 203.21H29.0298V232.24H58.0598V203.21Z" fill="#E480FB"/>
<path d="M29.03 203.21H0V232.24H29.03V203.21Z" fill="#0F0F0F"/>
<path d="M58.0598 232.24H29.0298V261.27H58.0598V232.24Z" fill="#FFCDF3"/>
<path d="M29.03 87.0898H0V116.12H29.03V87.0898Z" fill="#0F0F0F"/>
<path d="M29.03 116.12H0V145.15H29.03V116.12Z" fill="#0F0F0F"/>
<path d="M29.03 145.15H0V174.18H29.03V145.15Z" fill="#0F0F0F"/>
<path d="M29.03 174.18H0V203.21H29.03V174.18Z" fill="#0F0F0F"/>
<path d="M29.03 232.24H0V261.27H29.03V232.24Z" fill="#0F0F0F"/>
<path d="M87.0901 261.27H58.0601V290.3H87.0901V261.27Z" fill="#E480FB"/>
<path d="M116.12 290.3H87.0898V319.33H116.12V290.3Z" fill="#0F0F0F"/>
<path d="M87.0901 290.3H58.0601V319.33H87.0901V290.3Z" fill="#0F0F0F"/>
<path d="M116.12 319.33H87.0898V348.36H116.12V319.33Z" fill="#0F0F0F"/>
<path d="M116.12 348.36H87.0898V377.39H116.12V348.36Z" fill="#0F0F0F"/>
<path d="M145.15 348.36H116.12V377.39H145.15V348.36Z" fill="#6D6258"/>
<path d="M174.18 348.36H145.15V377.39H174.18V348.36Z" fill="#FFCDF3"/>
<path d="M203.21 348.36H174.18V377.39H203.21V348.36Z" fill="#E480FB"/>
<path d="M145.15 319.33H116.12V348.36H145.15V319.33Z" fill="#CD3DC3"/>
<path d="M174.18 319.33H145.15V348.36H174.18V319.33Z" fill="#FFCDF3"/>
<path d="M203.21 319.33H174.18V348.36H203.21V319.33Z" fill="#E480FB"/>
<path d="M145.15 290.3H116.12V319.33H145.15V290.3Z" fill="#CD3DC3"/>
<path d="M174.18 290.3H145.15V319.33H174.18V290.3Z" fill="#FFCDF3"/>
<path d="M203.21 290.3H174.18V319.33H203.21V290.3Z" fill="#FFCDF3"/>
<path d="M116.12 261.27H87.0898V290.3H116.12V261.27Z" fill="#E480FB"/>
<path d="M145.15 261.27H116.12V290.3H145.15V261.27Z" fill="#FFCDF3"/>
<path d="M174.18 261.27H145.15V290.3H174.18V261.27Z" fill="#FFCDF3"/>
<path d="M203.21 261.27H174.18V290.3H203.21V261.27Z" fill="#383735"/>
<path d="M87.0901 232.24H58.0601V261.27H87.0901V232.24Z" fill="#FFCDF3"/>
<path d="M116.12 232.24H87.0898V261.27H116.12V232.24Z" fill="#FFCDF3"/>
<path d="M145.15 232.24H116.12V261.27H145.15V232.24Z" fill="#FFCDF3"/>
<path d="M174.18 232.24H145.15V261.27H174.18V232.24Z" fill="#FFCDF3"/>
<path d="M203.21 232.24H174.18V261.27H203.21V232.24Z" fill="#FFCDF3"/>
<path d="M87.0901 203.21H58.0601V232.24H87.0901V203.21Z" fill="#232323"/>
<path d="M116.12 203.21H87.0898V232.24H116.12V203.21Z" fill="#5B5854"/>
<path d="M145.15 203.21H116.12V232.24H145.15V203.21Z" fill="#5B5854"/>
<path d="M174.18 203.21H145.15V232.24H174.18V203.21Z" fill="#E480FB"/>
<path d="M203.21 203.21H174.18V232.24H203.21V203.21Z" fill="#FFCDF3"/>
<path d="M87.0901 174.18H58.0601V203.21H87.0901V174.18Z" fill="#232323"/>
<path d="M116.12 174.18H87.0898V203.21H116.12V174.18Z" fill="#383735"/>
<path d="M145.15 174.18H116.12V203.21H145.15V174.18Z" fill="#383735"/>
<path d="M174.18 174.18H145.15V203.21H174.18V174.18Z" fill="#232323"/>
<path d="M203.21 174.18H174.18V203.21H203.21V174.18Z" fill="#E480FB"/>
<path d="M87.0901 145.15H58.0601V174.18H87.0901V145.15Z" fill="#938572"/>
<path d="M116.12 145.15H87.0898V174.18H116.12V145.15Z" fill="#232323"/>
<path d="M145.15 145.15H116.12V174.18H145.15V145.15Z" fill="#232323"/>
<path d="M174.18 145.15H145.15V174.18H174.18V145.15Z" fill="#232323"/>
<path d="M203.21 145.15H174.18V174.18H203.21V145.15Z" fill="#E480FB"/>
<path d="M87.0901 116.12H58.0601V145.15H87.0901V116.12Z" fill="#FFCDF3"/>
<path d="M116.12 116.12H87.0898V145.15H116.12V116.12Z" fill="#938572"/>
<path d="M145.15 116.12H116.12V145.15H145.15V116.12Z" fill="#938572"/>
<path d="M174.18 116.12H145.15V145.15H174.18V116.12Z" fill="#938572"/>
<path d="M203.21 116.12H174.18V145.15H203.21V116.12Z" fill="#FFCDF3"/>
<path d="M87.0901 87.0898H58.0601V116.12H87.0901V87.0898Z" fill="#FFCDF3"/>
<path d="M116.12 87.0898H87.0898V116.12H116.12V87.0898Z" fill="#FFCDF3"/>
<path d="M145.15 87.0898H116.12V116.12H145.15V87.0898Z" fill="#FFCDF3"/>
<path d="M174.18 87.0898H145.15V116.12H174.18V87.0898Z" fill="#FFCDF3"/>
<path d="M203.21 87.0898H174.18V116.12H203.21V87.0898Z" fill="#FFCDF3"/>
<path d="M348.36 87.0898H319.33V116.12H348.36V87.0898Z" fill="#E480FB"/>
<path d="M348.36 116.12H319.33V145.15H348.36V116.12Z" fill="#E480FB"/>
<path d="M348.36 145.15H319.33V174.18H348.36V145.15Z" fill="#E480FB"/>
<path d="M348.36 174.18H319.33V203.21H348.36V174.18Z" fill="#E480FB"/>
<path d="M348.36 203.21H319.33V232.24H348.36V203.21Z" fill="#E480FB"/>
<path d="M348.36 232.24H319.33V261.27H348.36V232.24Z" fill="#FFCDF3"/>
<path d="M319.33 261.27H290.3V290.3H319.33V261.27Z" fill="#E480FB"/>
<path d="M58.0598 261.27H29.0298V290.3H58.0598V261.27Z" fill="#0F0F0F"/>
<path d="M145.15 377.38H116.12V406.41H145.15V377.38Z" fill="#0F0F0F"/>
<path d="M174.18 377.38H145.15V406.41H174.18V377.38Z" fill="#0F0F0F"/>
<path d="M203.21 377.38H174.18V406.41H203.21V377.38Z" fill="#0F0F0F"/>
<path d="M232.24 377.38H203.21V406.41H232.24V377.38Z" fill="#0F0F0F"/>
<path d="M261.27 377.38H232.24V406.41H261.27V377.38Z" fill="#0F0F0F"/>
<path d="M348.36 261.27H319.33V290.3H348.36V261.27Z" fill="#0F0F0F"/>
<path d="M377.38 232.24H348.35V261.27H377.38V232.24Z" fill="#0F0F0F"/>
<path d="M377.38 203.21H348.35V232.24H377.38V203.21Z" fill="#0F0F0F"/>
<path d="M377.38 174.18H348.35V203.21H377.38V174.18Z" fill="#0F0F0F"/>
<path d="M377.38 145.15H348.35V174.18H377.38V145.15Z" fill="#0F0F0F"/>
<path d="M377.38 116.12H348.35V145.15H377.38V116.12Z" fill="#0F0F0F"/>
<path d="M377.38 87.0898H348.35V116.12H377.38V87.0898Z" fill="#0F0F0F"/>
<path d="M290.3 290.3H261.27V319.33H290.3V290.3Z" fill="#0F0F0F"/>
<path d="M319.33 290.3H290.3V319.33H319.33V290.3Z" fill="#0F0F0F"/>
<path d="M290.3 319.33H261.27V348.36H290.3V319.33Z" fill="#0F0F0F"/>
<path d="M290.3 348.36H261.27V377.39H290.3V348.36Z" fill="#0F0F0F"/>
<path d="M261.27 348.36H232.24V377.39H261.27V348.36Z" fill="#6D6258"/>
<path d="M232.24 348.36H203.21V377.39H232.24V348.36Z" fill="#FFCDF3"/>
<path d="M203.21 348.36H174.18V377.39H203.21V348.36Z" fill="#6D6258"/>
<path d="M261.27 319.33H232.24V348.36H261.27V319.33Z" fill="#CD3DC3"/>
<path d="M232.24 319.33H203.21V348.36H232.24V319.33Z" fill="#FFCDF3"/>
<path d="M203.21 319.33H174.18V348.36H203.21V319.33Z" fill="#CD3DC3"/>
<path d="M261.27 290.3H232.24V319.33H261.27V290.3Z" fill="#CD3DC3"/>
<path d="M232.24 290.3H203.21V319.33H232.24V290.3Z" fill="#FFCDF3"/>
<path d="M203.21 290.3H174.18V319.33H203.21V290.3Z" fill="#CD3DC3"/>
<path d="M290.3 261.27H261.27V290.3H290.3V261.27Z" fill="#E480FB"/>
<path d="M261.27 261.27H232.24V290.3H261.27V261.27Z" fill="#FFCDF3"/>
<path d="M232.24 261.27H203.21V290.3H232.24V261.27Z" fill="#FFCDF3"/>
<path d="M203.21 261.27H174.18V290.3H203.21V261.27Z" fill="#383735"/>
<path d="M319.33 232.24H290.3V261.27H319.33V232.24Z" fill="#FFCDF3"/>
<path d="M290.3 232.24H261.27V261.27H290.3V232.24Z" fill="#FFCDF3"/>
<path d="M261.27 232.24H232.24V261.27H261.27V232.24Z" fill="#FFCDF3"/>
<path d="M232.24 232.24H203.21V261.27H232.24V232.24Z" fill="#FFCDF3"/>
<path d="M203.21 232.24H174.18V261.27H203.21V232.24Z" fill="#232323"/>
<path d="M319.33 203.21H290.3V232.24H319.33V203.21Z" fill="#232323"/>
<path d="M290.3 203.21H261.27V232.24H290.3V203.21Z" fill="#5B5854"/>
<path d="M261.27 203.21H232.24V232.24H261.27V203.21Z" fill="#5B5854"/>
<path d="M232.24 203.21H203.21V232.24H232.24V203.21Z" fill="#E480FB"/>
<path d="M203.21 203.21H174.18V232.24H203.21V203.21Z" fill="#FFCDF3"/>
<path d="M319.33 174.18H290.3V203.21H319.33V174.18Z" fill="#232323"/>
<path d="M290.3 174.18H261.27V203.21H290.3V174.18Z" fill="#383735"/>
<path d="M261.27 174.18H232.24V203.21H261.27V174.18Z" fill="#383735"/>
<path d="M232.24 174.18H203.21V203.21H232.24V174.18Z" fill="#232323"/>
<path d="M203.21 174.18H174.18V203.21H203.21V174.18Z" fill="#E480FB"/>
<path d="M319.33 145.15H290.3V174.18H319.33V145.15Z" fill="#938572"/>
<path d="M290.3 145.15H261.27V174.18H290.3V145.15Z" fill="#232323"/>
<path d="M261.27 145.15H232.24V174.18H261.27V145.15Z" fill="#232323"/>
<path d="M232.24 145.15H203.21V174.18H232.24V145.15Z" fill="#232323"/>
<path d="M203.21 145.15H174.18V174.18H203.21V145.15Z" fill="#938572"/>
<path d="M319.33 116.12H290.3V145.15H319.33V116.12Z" fill="#FFCDF3"/>
<path d="M290.3 116.12H261.27V145.15H290.3V116.12Z" fill="#938572"/>
<path d="M261.27 116.12H232.24V145.15H261.27V116.12Z" fill="#938572"/>
<path d="M232.24 116.12H203.21V145.15H232.24V116.12Z" fill="#938572"/>
<path d="M203.21 116.12H174.18V145.15H203.21V116.12Z" fill="#FFCDF3"/>
<path d="M319.33 87.0898H290.3V116.12H319.33V87.0898Z" fill="#FFCDF3"/>
<path d="M290.3 87.0898H261.27V116.12H290.3V87.0898Z" fill="#FFCDF3"/>
<path d="M261.27 87.0898H232.24V116.12H261.27V87.0898Z" fill="#FFCDF3"/>
<path d="M232.24 87.0898H203.21V116.12H232.24V87.0898Z" fill="#FFCDF3"/>
<path d="M203.21 87.0898H174.18V116.12H203.21V87.0898Z" fill="#FFCDF3"/>
<path d="M145.15 29.03H116.12V58.06H145.15V29.03Z" fill="#FFCDF3"/>
<path d="M174.18 29.03H145.15V58.06H174.18V29.03Z" fill="#FFCDF3"/>
<path d="M203.21 29.03H174.18V58.06H203.21V29.03Z" fill="#FFCDF3"/>
<path d="M232.24 29.03H203.21V58.06H232.24V29.03Z" fill="#FFCDF3"/>
<path d="M261.27 29.03H232.24V58.06H261.27V29.03Z" fill="#FFCDF3"/>
<path d="M290.3 29.03H261.27V58.06H290.3V29.03Z" fill="#FFCDF3"/>
<path d="M116.12 58.0601H87.0898V87.0901H116.12V58.0601Z" fill="#FFCDF3"/>
<path d="M145.15 58.0601H116.12V87.0901H145.15V58.0601Z" fill="#FFCDF3"/>
<path d="M174.18 58.0601H145.15V87.0901H174.18V58.0601Z" fill="#FFCDF3"/>
<path d="M203.21 58.0601H174.18V87.0901H203.21V58.0601Z" fill="#FFCDF3"/>
<path d="M232.24 58.0601H203.21V87.0901H232.24V58.0601Z" fill="#FFCDF3"/>
<path d="M261.27 58.0601H232.24V87.0901H261.27V58.0601Z" fill="#FFCDF3"/>
<path d="M290.3 58.0601H261.27V87.0901H290.3V58.0601Z" fill="#FFCDF3"/>
<path d="M319.33 58.0601H290.3V87.0901H319.33V58.0601Z" fill="#FFCDF3"/>
<path d="M116.12 0H87.0898V29.03H116.12V0Z" fill="#0F0F0F"/>
<path d="M87.0901 29.03H58.0601V58.06H87.0901V29.03Z" fill="#0F0F0F"/>
<path d="M58.0598 58.0601H29.0298V87.0901H58.0598V58.0601Z" fill="#0F0F0F"/>
<path d="M348.36 58.0601H319.33V87.0901H348.36V58.0601Z" fill="#0F0F0F"/>
<path d="M145.15 0H116.12V29.03H145.15V0Z" fill="#0F0F0F"/>
<path d="M174.18 0H145.15V29.03H174.18V0Z" fill="#0F0F0F"/>
<path d="M203.21 0H174.18V29.03H203.21V0Z" fill="#0F0F0F"/>
<path d="M232.24 0H203.21V29.03H232.24V0Z" fill="#0F0F0F"/>
<path d="M261.27 0H232.24V29.03H261.27V0Z" fill="#0F0F0F"/>
<path d="M290.3 0H261.27V29.03H290.3V0Z" fill="#0F0F0F"/>
<path d="M319.33 29.03H290.3V58.06H319.33V29.03Z" fill="#0F0F0F"/>
</g>
<defs>
<clipPath id="clip0_745_8457">
<rect width="377.38" height="406.41" fill="white"/>
</clipPath>
</defs>
</svg>
