<svg width="911" height="736" viewBox="0 0 911 736" fill="none" xmlns="http://www.w3.org/2000/svg">
<path d="M779.369 317.74H764.939V332.18H779.369V317.74Z" fill="#350B75"/>
<path d="M779.369 303.31H764.939V317.74H779.369V303.31Z" fill="#350B75"/>
<path d="M779.369 288.88H764.939V303.31H779.369V288.88Z" fill="#350B75"/>
<path d="M779.369 274.45H764.939V288.88H779.369V274.45Z" fill="#350B75"/>
<path d="M779.369 260.02H764.939V274.45H779.369V260.02Z" fill="#350B75"/>
<path d="M779.369 245.59H764.939V260.03H779.369V245.59Z" fill="#350B75"/>
<path d="M779.369 231.16H764.939V245.59H779.369V231.16Z" fill="#350B75"/>
<path d="M779.369 216.73H764.939V231.16H779.369V216.73Z" fill="#350B75"/>
<path d="M779.369 202.3H764.939V216.73H779.369V202.3Z" fill="#350B75"/>
<path d="M764.94 563.06H750.51V577.49H764.94V563.06Z" fill="#350B75"/>
<path d="M764.94 548.63H750.51V563.06H764.94V548.63Z" fill="#350B75"/>
<path d="M764.94 462.04H750.51V476.48H764.94V462.04Z" fill="#350B75"/>
<path d="M764.94 447.61H750.51V462.04H764.94V447.61Z" fill="#350B75"/>
<path d="M764.94 433.19H750.51V447.62H764.94V433.19Z" fill="#350B75"/>
<path d="M764.94 418.76H750.51V433.19H764.94V418.76Z" fill="#350B75"/>
<path d="M764.94 332.17H750.51V346.6H764.94V332.17Z" fill="#350B75"/>
<path d="M764.94 317.74H750.51V332.18H764.94V317.74Z" fill="#E6007E"/>
<path d="M764.94 303.31H750.51V317.74H764.94V303.31Z" fill="#E6007E"/>
<path d="M764.94 288.88H750.51V303.31H764.94V288.88Z" fill="#350B75"/>
<path d="M764.94 274.45H750.51V288.88H764.94V274.45Z" fill="#FF72F3"/>
<path d="M764.94 260.02H750.51V274.45H764.94V260.02Z" fill="#FF72F3"/>
<path d="M764.94 245.59H750.51V260.03H764.94V245.59Z" fill="#FF72F3"/>
<path d="M764.94 231.16H750.51V245.59H764.94V231.16Z" fill="#FF72F3"/>
<path d="M764.94 216.73H750.51V231.16H764.94V216.73Z" fill="#FFCDF3"/>
<path d="M764.94 202.3H750.51V216.73H764.94V202.3Z" fill="#FFCDF3"/>
<path d="M764.94 187.87H750.51V202.3H764.94V187.87Z" fill="#350B75"/>
<path d="M750.51 563.06H736.08V577.49H750.51V563.06Z" fill="#350B75"/>
<path d="M750.51 548.63H736.08V563.06H750.51V548.63Z" fill="#E6007E"/>
<path d="M750.51 534.2H736.08V548.64H750.51V534.2Z" fill="#350B75"/>
<path d="M750.51 476.48H736.08V490.91H750.51V476.48Z" fill="#350B75"/>
<path d="M750.51 462.04H736.08V476.48H750.51V462.04Z" fill="#FF72F3"/>
<path d="M750.51 447.61H736.08V462.04H750.51V447.61Z" fill="#FF72F3"/>
<path d="M750.51 433.19H736.08V447.62H750.51V433.19Z" fill="#FFCDF3"/>
<path d="M750.51 418.76H736.08V433.19H750.51V418.76Z" fill="#FFCDF3"/>
<path d="M750.51 404.33H736.08V418.76H750.51V404.33Z" fill="#350B75"/>
<path d="M750.51 346.6H736.08V361.03H750.51V346.6Z" fill="#350B75"/>
<path d="M750.51 332.17H736.08V346.6H750.51V332.17Z" fill="#E6007E"/>
<path d="M750.51 317.74H736.08V332.18H750.51V317.74Z" fill="#E6007E"/>
<path d="M750.51 303.31H736.08V317.74H750.51V303.31Z" fill="#E6007E"/>
<path d="M750.51 288.88H736.08V303.31H750.51V288.88Z" fill="#350B75"/>
<path d="M750.51 274.45H736.08V288.88H750.51V274.45Z" fill="#FF72F3"/>
<path d="M750.51 260.02H736.08V274.45H750.51V260.02Z" fill="#FF72F3"/>
<path d="M750.51 245.59H736.08V260.03H750.51V245.59Z" fill="#FF72F3"/>
<path d="M750.51 231.16H736.08V245.59H750.51V231.16Z" fill="#FF72F3"/>
<path d="M750.51 216.73H736.08V231.16H750.51V216.73Z" fill="#FFCDF3"/>
<path d="M750.51 202.3H736.08V216.73H750.51V202.3Z" fill="#FFCDF3"/>
<path d="M750.51 187.87H736.08V202.3H750.51V187.87Z" fill="#FFCDF3"/>
<path d="M750.51 173.43H736.08V187.87H750.51V173.43Z" fill="#350B75"/>
<path d="M736.081 563.06H721.65V577.49H736.081V563.06Z" fill="#350B75"/>
<path d="M736.081 548.63H721.65V563.06H736.081V548.63Z" fill="#E6007E"/>
<path d="M736.081 534.2H721.65V548.64H736.081V534.2Z" fill="#E6007E"/>
<path d="M736.081 519.77H721.65V534.2H736.081V519.77Z" fill="#350B75"/>
<path d="M736.081 490.91H721.65V505.34H736.081V490.91Z" fill="#350B75"/>
<path d="M736.081 476.48H721.65V490.91H736.081V476.48Z" fill="#FF72F3"/>
<path d="M736.081 462.04H721.65V476.48H736.081V462.04Z" fill="#FF72F3"/>
<path d="M736.081 447.61H721.65V462.04H736.081V447.61Z" fill="#FF72F3"/>
<path d="M736.081 433.19H721.65V447.62H736.081V433.19Z" fill="#FFCDF3"/>
<path d="M736.081 418.76H721.65V433.19H736.081V418.76Z" fill="#FFCDF3"/>
<path d="M736.081 404.33H721.65V418.76H736.081V404.33Z" fill="#FFCDF3"/>
<path d="M736.081 389.89H721.65V404.33H736.081V389.89Z" fill="#350B75"/>
<path d="M736.081 346.6H721.65V361.03H736.081V346.6Z" fill="#350B75"/>
<path d="M736.081 332.17H721.65V346.6H736.081V332.17Z" fill="#E6007E"/>
<path d="M736.081 317.74H721.65V332.18H736.081V317.74Z" fill="#E6007E"/>
<path d="M736.081 303.31H721.65V317.74H736.081V303.31Z" fill="#350B75"/>
<path d="M736.081 288.88H721.65V303.31H736.081V288.88Z" fill="#350B75"/>
<path d="M736.081 274.45H721.65V288.88H736.081V274.45Z" fill="#FF72F3"/>
<path d="M736.081 260.02H721.65V274.45H736.081V260.02Z" fill="#FF72F3"/>
<path d="M736.081 245.59H721.65V260.03H736.081V245.59Z" fill="#350B75"/>
<path d="M736.081 231.16H721.65V245.59H736.081V231.16Z" fill="#350B75"/>
<path d="M736.081 216.73H721.65V231.16H736.081V216.73Z" fill="#350B75"/>
<path d="M736.081 202.3H721.65V216.73H736.081V202.3Z" fill="#FFCDF3"/>
<path d="M736.081 187.87H721.65V202.3H736.081V187.87Z" fill="#FFCDF3"/>
<path d="M736.081 173.43H721.65V187.87H736.081V173.43Z" fill="#FFCDF3"/>
<path d="M736.081 159H721.65V173.43H736.081V159Z" fill="#350B75"/>
<path d="M721.65 563.06H707.22V577.49H721.65V563.06Z" fill="#350B75"/>
<path d="M721.65 548.63H707.22V563.06H721.65V548.63Z" fill="#E6007E"/>
<path d="M721.65 534.2H707.22V548.64H721.65V534.2Z" fill="#E6007E"/>
<path d="M721.65 519.77H707.22V534.2H721.65V519.77Z" fill="#E6007E"/>
<path d="M721.65 505.34H707.22V519.77H721.65V505.34Z" fill="#350B75"/>
<path d="M721.65 490.91H707.22V505.34H721.65V490.91Z" fill="#FF72F3"/>
<path d="M721.65 476.48H707.22V490.91H721.65V476.48Z" fill="#FF72F3"/>
<path d="M721.65 462.04H707.22V476.48H721.65V462.04Z" fill="#FF72F3"/>
<path d="M721.65 447.61H707.22V462.04H721.65V447.61Z" fill="#350B75"/>
<path d="M721.65 433.19H707.22V447.62H721.65V433.19Z" fill="#350B75"/>
<path d="M721.65 418.76H707.22V433.19H721.65V418.76Z" fill="#FFCDF3"/>
<path d="M721.65 404.33H707.22V418.76H721.65V404.33Z" fill="#FFCDF3"/>
<path d="M721.65 389.89H707.22V404.33H721.65V389.89Z" fill="#FFCDF3"/>
<path d="M721.65 375.46H707.22V389.89H721.65V375.46Z" fill="#350B75"/>
<path d="M721.65 346.6H707.22V361.03H721.65V346.6Z" fill="#350B75"/>
<path d="M721.65 332.17H707.22V346.6H721.65V332.17Z" fill="#E6007E"/>
<path d="M721.65 317.74H707.22V332.18H721.65V317.74Z" fill="#E6007E"/>
<path d="M721.65 303.31H707.22V317.74H721.65V303.31Z" fill="#350B75"/>
<path d="M721.65 288.88H707.22V303.31H721.65V288.88Z" fill="#350B75"/>
<path d="M721.65 274.45H707.22V288.88H721.65V274.45Z" fill="#FF72F3"/>
<path d="M721.65 260.02H707.22V274.45H721.65V260.02Z" fill="#FF72F3"/>
<path d="M721.65 245.59H707.22V260.03H721.65V245.59Z" fill="#350B75"/>
<path d="M721.65 202.3H707.22V216.73H721.65V202.3Z" fill="#350B75"/>
<path d="M721.65 187.87H707.22V202.3H721.65V187.87Z" fill="#FFCDF3"/>
<path d="M721.65 173.43H707.22V187.87H721.65V173.43Z" fill="#FFCDF3"/>
<path d="M721.65 159H707.22V173.43H721.65V159Z" fill="#350B75"/>
<path d="M707.22 548.63H692.78V563.06H707.22V548.63Z" fill="#350B75"/>
<path d="M707.22 534.2H692.78V548.64H707.22V534.2Z" fill="#E6007E"/>
<path d="M707.22 519.77H692.78V534.2H707.22V519.77Z" fill="#E6007E"/>
<path d="M707.22 505.34H692.78V519.77H707.22V505.34Z" fill="#E6007E"/>
<path d="M707.22 490.91H692.78V505.34H707.22V490.91Z" fill="#FF72F3"/>
<path d="M707.22 476.48H692.78V490.91H707.22V476.48Z" fill="#FF72F3"/>
<path d="M707.22 462.04H692.78V476.48H707.22V462.04Z" fill="#350B75"/>
<path d="M707.22 418.76H692.78V433.19H707.22V418.76Z" fill="#350B75"/>
<path d="M707.22 404.33H692.78V418.76H707.22V404.33Z" fill="#FFCDF3"/>
<path d="M707.22 389.89H692.78V404.33H707.22V389.89Z" fill="#FFCDF3"/>
<path d="M707.22 375.46H692.78V389.89H707.22V375.46Z" fill="#350B75"/>
<path d="M707.22 346.6H692.78V361.03H707.22V346.6Z" fill="#350B75"/>
<path d="M707.22 332.17H692.78V346.6H707.22V332.17Z" fill="#E6007E"/>
<path d="M707.22 317.74H692.78V332.18H707.22V317.74Z" fill="#E6007E"/>
<path d="M707.22 303.31H692.78V317.74H707.22V303.31Z" fill="#350B75"/>
<path d="M707.22 288.88H692.78V303.31H707.22V288.88Z" fill="#350B75"/>
<path d="M707.22 274.45H692.78V288.88H707.22V274.45Z" fill="#FF72F3"/>
<path d="M707.22 260.02H692.78V274.45H707.22V260.02Z" fill="#FF72F3"/>
<path d="M707.22 245.59H692.78V260.03H707.22V245.59Z" fill="#350B75"/>
<path d="M707.22 202.3H692.78V216.73H707.22V202.3Z" fill="#350B75"/>
<path d="M707.22 187.87H692.78V202.3H707.22V187.87Z" fill="#FFCDF3"/>
<path d="M707.22 173.43H692.78V187.87H707.22V173.43Z" fill="#FFCDF3"/>
<path d="M707.22 159H692.78V173.43H707.22V159Z" fill="#350B75"/>
<path d="M692.79 534.2H678.359V548.64H692.79V534.2Z" fill="#350B75"/>
<path d="M692.79 519.77H678.359V534.2H692.79V519.77Z" fill="#E6007E"/>
<path d="M692.79 505.34H678.359V519.77H692.79V505.34Z" fill="#E6007E"/>
<path d="M692.79 490.91H678.359V505.34H692.79V490.91Z" fill="#FF72F3"/>
<path d="M692.79 476.48H678.359V490.91H692.79V476.48Z" fill="#FF72F3"/>
<path d="M692.79 462.04H678.359V476.48H692.79V462.04Z" fill="#350B75"/>
<path d="M692.79 418.76H678.359V433.19H692.79V418.76Z" fill="#350B75"/>
<path d="M692.79 404.33H678.359V418.76H692.79V404.33Z" fill="#FFCDF3"/>
<path d="M692.79 389.89H678.359V404.33H692.79V389.89Z" fill="#FFCDF3"/>
<path d="M692.79 375.46H678.359V389.89H692.79V375.46Z" fill="#350B75"/>
<path d="M692.79 346.6H678.359V361.03H692.79V346.6Z" fill="#350B75"/>
<path d="M692.79 332.17H678.359V346.6H692.79V332.17Z" fill="#E6007E"/>
<path d="M692.79 317.74H678.359V332.18H692.79V317.74Z" fill="#E6007E"/>
<path d="M692.79 303.31H678.359V317.74H692.79V303.31Z" fill="#350B75"/>
<path d="M692.79 288.88H678.359V303.31H692.79V288.88Z" fill="#350B75"/>
<path d="M692.79 274.45H678.359V288.88H692.79V274.45Z" fill="#FF72F3"/>
<path d="M692.79 260.02H678.359V274.45H692.79V260.02Z" fill="#FF72F3"/>
<path d="M692.79 245.59H678.359V260.03H692.79V245.59Z" fill="#350B75"/>
<path d="M692.79 202.3H678.359V216.73H692.79V202.3Z" fill="#350B75"/>
<path d="M692.79 187.87H678.359V202.3H692.79V187.87Z" fill="#FFCDF3"/>
<path d="M692.79 173.43H678.359V187.87H692.79V173.43Z" fill="#FFCDF3"/>
<path d="M692.79 159H678.359V173.43H692.79V159Z" fill="#350B75"/>
<path d="M678.36 519.77H663.93V534.2H678.36V519.77Z" fill="#350B75"/>
<path d="M678.36 505.34H663.93V519.77H678.36V505.34Z" fill="#E6007E"/>
<path d="M678.36 490.91H663.93V505.34H678.36V490.91Z" fill="#FF72F3"/>
<path d="M678.36 476.48H663.93V490.91H678.36V476.48Z" fill="#FF72F3"/>
<path d="M678.36 462.04H663.93V476.48H678.36V462.04Z" fill="#350B75"/>
<path d="M678.36 418.76H663.93V433.19H678.36V418.76Z" fill="#350B75"/>
<path d="M678.36 404.33H663.93V418.76H678.36V404.33Z" fill="#FFCDF3"/>
<path d="M678.36 389.89H663.93V404.33H678.36V389.89Z" fill="#FFCDF3"/>
<path d="M678.36 375.46H663.93V389.89H678.36V375.46Z" fill="#350B75"/>
<path d="M678.36 346.6H663.93V361.03H678.36V346.6Z" fill="#350B75"/>
<path d="M678.36 332.17H663.93V346.6H678.36V332.17Z" fill="#E6007E"/>
<path d="M678.36 317.74H663.93V332.18H678.36V317.74Z" fill="#E6007E"/>
<path d="M678.36 303.31H663.93V317.74H678.36V303.31Z" fill="#350B75"/>
<path d="M678.36 288.88H663.93V303.31H678.36V288.88Z" fill="#350B75"/>
<path d="M678.36 274.45H663.93V288.88H678.36V274.45Z" fill="#FF72F3"/>
<path d="M678.36 260.02H663.93V274.45H678.36V260.02Z" fill="#FF72F3"/>
<path d="M678.36 245.59H663.93V260.03H678.36V245.59Z" fill="#350B75"/>
<path d="M678.36 231.16H663.93V245.59H678.36V231.16Z" fill="#350B75"/>
<path d="M678.36 216.73H663.93V231.16H678.36V216.73Z" fill="#350B75"/>
<path d="M678.36 202.3H663.93V216.73H678.36V202.3Z" fill="#FFCDF3"/>
<path d="M678.36 187.87H663.93V202.3H678.36V187.87Z" fill="#FFCDF3"/>
<path d="M678.36 173.43H663.93V187.87H678.36V173.43Z" fill="#FFCDF3"/>
<path d="M678.36 159H663.93V173.43H678.36V159Z" fill="#350B75"/>
<path d="M663.93 505.34H649.5V519.77H663.93V505.34Z" fill="#350B75"/>
<path d="M663.93 490.91H649.5V505.34H663.93V490.91Z" fill="#FF72F3"/>
<path d="M663.93 476.48H649.5V490.91H663.93V476.48Z" fill="#FF72F3"/>
<path d="M663.93 462.04H649.5V476.48H663.93V462.04Z" fill="#350B75"/>
<path d="M663.93 418.76H649.5V433.19H663.93V418.76Z" fill="#350B75"/>
<path d="M663.93 404.33H649.5V418.76H663.93V404.33Z" fill="#FFCDF3"/>
<path d="M663.93 389.89H649.5V404.33H663.93V389.89Z" fill="#FFCDF3"/>
<path d="M663.93 375.46H649.5V389.89H663.93V375.46Z" fill="#350B75"/>
<path d="M663.93 346.6H649.5V361.03H663.93V346.6Z" fill="#350B75"/>
<path d="M663.93 332.17H649.5V346.6H663.93V332.17Z" fill="#E6007E"/>
<path d="M663.93 317.74H649.5V332.18H663.93V317.74Z" fill="#E6007E"/>
<path d="M663.93 303.31H649.5V317.74H663.93V303.31Z" fill="#E6007E"/>
<path d="M663.93 288.88H649.5V303.31H663.93V288.88Z" fill="#E6007E"/>
<path d="M663.93 274.45H649.5V288.88H663.93V274.45Z" fill="#FF72F3"/>
<path d="M663.93 260.02H649.5V274.45H663.93V260.02Z" fill="#FF72F3"/>
<path d="M663.93 245.59H649.5V260.03H663.93V245.59Z" fill="#FF72F3"/>
<path d="M663.93 231.16H649.5V245.59H663.93V231.16Z" fill="#FF72F3"/>
<path d="M663.93 216.73H649.5V231.16H663.93V216.73Z" fill="#FFCDF3"/>
<path d="M663.93 202.3H649.5V216.73H663.93V202.3Z" fill="#FFCDF3"/>
<path d="M663.93 187.87H649.5V202.3H663.93V187.87Z" fill="#FFCDF3"/>
<path d="M663.93 173.43H649.5V187.87H663.93V173.43Z" fill="#350B75"/>
<path d="M649.5 563.06H635.07V577.49H649.5V563.06Z" fill="#350B75"/>
<path d="M649.5 548.63H635.07V563.06H649.5V548.63Z" fill="#350B75"/>
<path d="M649.5 534.2H635.07V548.64H649.5V534.2Z" fill="#350B75"/>
<path d="M649.5 519.77H635.07V534.2H649.5V519.77Z" fill="#350B75"/>
<path d="M649.5 505.34H635.07V519.77H649.5V505.34Z" fill="#350B75"/>
<path d="M649.5 490.91H635.07V505.34H649.5V490.91Z" fill="#FF72F3"/>
<path d="M649.5 476.48H635.07V490.91H649.5V476.48Z" fill="#FF72F3"/>
<path d="M649.5 462.04H635.07V476.48H649.5V462.04Z" fill="#350B75"/>
<path d="M649.5 447.61H635.07V462.04H649.5V447.61Z" fill="#350B75"/>
<path d="M649.5 433.19H635.07V447.62H649.5V433.19Z" fill="#350B75"/>
<path d="M649.5 418.76H635.07V433.19H649.5V418.76Z" fill="#350B75"/>
<path d="M649.5 404.33H635.07V418.76H649.5V404.33Z" fill="#FFCDF3"/>
<path d="M649.5 389.89H635.07V404.33H649.5V389.89Z" fill="#FFCDF3"/>
<path d="M649.5 375.46H635.07V389.89H649.5V375.46Z" fill="#350B75"/>
<path d="M649.5 332.17H635.07V346.6H649.5V332.17Z" fill="#350B75"/>
<path d="M649.5 317.74H635.07V332.18H649.5V317.74Z" fill="#E6007E"/>
<path d="M649.5 303.31H635.07V317.74H649.5V303.31Z" fill="#E6007E"/>
<path d="M649.5 288.88H635.07V303.31H649.5V288.88Z" fill="#E6007E"/>
<path d="M649.5 274.45H635.07V288.88H649.5V274.45Z" fill="#FF72F3"/>
<path d="M649.5 260.02H635.07V274.45H649.5V260.02Z" fill="#FF72F3"/>
<path d="M649.5 245.59H635.07V260.03H649.5V245.59Z" fill="#FF72F3"/>
<path d="M649.5 231.16H635.07V245.59H649.5V231.16Z" fill="#FF72F3"/>
<path d="M649.5 216.73H635.07V231.16H649.5V216.73Z" fill="#FFCDF3"/>
<path d="M649.5 202.3H635.07V216.73H649.5V202.3Z" fill="#FFCDF3"/>
<path d="M649.5 187.87H635.07V202.3H649.5V187.87Z" fill="#350B75"/>
<path d="M635.07 563.06H620.63V577.49H635.07V563.06Z" fill="#350B75"/>
<path d="M635.07 548.63H620.63V563.06H635.07V548.63Z" fill="#E6007E"/>
<path d="M635.07 534.2H620.63V548.64H635.07V534.2Z" fill="#E6007E"/>
<path d="M635.07 519.77H620.63V534.2H635.07V519.77Z" fill="#E6007E"/>
<path d="M635.07 505.34H620.63V519.77H635.07V505.34Z" fill="#E6007E"/>
<path d="M635.07 490.91H620.63V505.34H635.07V490.91Z" fill="#FF72F3"/>
<path d="M635.07 476.48H620.63V490.91H635.07V476.48Z" fill="#FF72F3"/>
<path d="M635.07 462.04H620.63V476.48H635.07V462.04Z" fill="#FF72F3"/>
<path d="M635.07 447.61H620.63V462.04H635.07V447.61Z" fill="#FF72F3"/>
<path d="M635.07 433.19H620.63V447.62H635.07V433.19Z" fill="#FFCDF3"/>
<path d="M635.07 418.76H620.63V433.19H635.07V418.76Z" fill="#FFCDF3"/>
<path d="M635.07 404.33H620.63V418.76H635.07V404.33Z" fill="#FFCDF3"/>
<path d="M635.07 389.89H620.63V404.33H635.07V389.89Z" fill="#FFCDF3"/>
<path d="M635.07 375.46H620.63V389.89H635.07V375.46Z" fill="#350B75"/>
<path d="M635.07 346.6H620.63V361.03H635.07V346.6Z" fill="#350B75"/>
<path d="M635.07 332.17H620.63V346.6H635.07V332.17Z" fill="#350B75"/>
<path d="M635.07 317.74H620.63V332.18H635.07V317.74Z" fill="#350B75"/>
<path d="M635.07 303.31H620.63V317.74H635.07V303.31Z" fill="#350B75"/>
<path d="M635.07 288.88H620.63V303.31H635.07V288.88Z" fill="#350B75"/>
<path d="M635.07 274.45H620.63V288.88H635.07V274.45Z" fill="#350B75"/>
<path d="M635.07 260.02H620.63V274.45H635.07V260.02Z" fill="#350B75"/>
<path d="M635.07 245.59H620.63V260.03H635.07V245.59Z" fill="#350B75"/>
<path d="M635.07 231.16H620.63V245.59H635.07V231.16Z" fill="#350B75"/>
<path d="M635.07 216.73H620.63V231.16H635.07V216.73Z" fill="#350B75"/>
<path d="M635.07 202.3H620.63V216.73H635.07V202.3Z" fill="#350B75"/>
<path d="M620.63 563.06H606.2V577.49H620.63V563.06Z" fill="#350B75"/>
<path d="M620.63 548.63H606.2V563.06H620.63V548.63Z" fill="#E6007E"/>
<path d="M620.63 534.2H606.2V548.64H620.63V534.2Z" fill="#E6007E"/>
<path d="M620.63 519.77H606.2V534.2H620.63V519.77Z" fill="#E6007E"/>
<path d="M620.63 505.34H606.2V519.77H620.63V505.34Z" fill="#E6007E"/>
<path d="M620.63 490.91H606.2V505.34H620.63V490.91Z" fill="#FF72F3"/>
<path d="M620.63 476.48H606.2V490.91H620.63V476.48Z" fill="#FF72F3"/>
<path d="M620.63 462.04H606.2V476.48H620.63V462.04Z" fill="#FF72F3"/>
<path d="M620.63 447.61H606.2V462.04H620.63V447.61Z" fill="#FF72F3"/>
<path d="M620.63 433.19H606.2V447.62H620.63V433.19Z" fill="#FFCDF3"/>
<path d="M620.63 418.76H606.2V433.19H620.63V418.76Z" fill="#FFCDF3"/>
<path d="M620.63 404.33H606.2V418.76H620.63V404.33Z" fill="#FFCDF3"/>
<path d="M620.63 389.89H606.2V404.33H620.63V389.89Z" fill="#FFCDF3"/>
<path d="M620.63 375.46H606.2V389.89H620.63V375.46Z" fill="#350B75"/>
<path d="M620.63 346.6H606.2V361.03H620.63V346.6Z" fill="#350B75"/>
<path d="M620.63 332.17H606.2V346.6H620.63V332.17Z" fill="#E6007E"/>
<path d="M620.63 317.74H606.2V332.18H620.63V317.74Z" fill="#E6007E"/>
<path d="M620.63 303.31H606.2V317.74H620.63V303.31Z" fill="#E6007E"/>
<path d="M620.63 288.88H606.2V303.31H620.63V288.88Z" fill="#E6007E"/>
<path d="M620.63 274.45H606.2V288.88H620.63V274.45Z" fill="#FF72F3"/>
<path d="M620.63 260.02H606.2V274.45H620.63V260.02Z" fill="#FF72F3"/>
<path d="M620.63 245.59H606.2V260.03H620.63V245.59Z" fill="#FF72F3"/>
<path d="M620.63 231.16H606.2V245.59H620.63V231.16Z" fill="#FF72F3"/>
<path d="M620.63 216.73H606.2V231.16H620.63V216.73Z" fill="#FFCDF3"/>
<path d="M620.63 202.3H606.2V216.73H620.63V202.3Z" fill="#FFCDF3"/>
<path d="M620.63 187.87H606.2V202.3H620.63V187.87Z" fill="#350B75"/>
<path d="M606.199 563.06H591.77V577.49H606.199V563.06Z" fill="#350B75"/>
<path d="M606.199 548.63H591.77V563.06H606.199V548.63Z" fill="#350B75"/>
<path d="M606.199 534.2H591.77V548.64H606.199V534.2Z" fill="#350B75"/>
<path d="M606.199 519.77H591.77V534.2H606.199V519.77Z" fill="#350B75"/>
<path d="M606.199 505.34H591.77V519.77H606.199V505.34Z" fill="#350B75"/>
<path d="M606.199 490.91H591.77V505.34H606.199V490.91Z" fill="#350B75"/>
<path d="M606.199 476.48H591.77V490.91H606.199V476.48Z" fill="#350B75"/>
<path d="M606.199 462.04H591.77V476.48H606.199V462.04Z" fill="#350B75"/>
<path d="M606.199 447.61H591.77V462.04H606.199V447.61Z" fill="#350B75"/>
<path d="M606.199 433.19H591.77V447.62H606.199V433.19Z" fill="#350B75"/>
<path d="M606.199 418.76H591.77V433.19H606.199V418.76Z" fill="#350B75"/>
<path d="M606.199 404.33H591.77V418.76H606.199V404.33Z" fill="#350B75"/>
<path d="M606.199 389.89H591.77V404.33H606.199V389.89Z" fill="#350B75"/>
<path d="M606.199 375.46H591.77V389.89H606.199V375.46Z" fill="#350B75"/>
<path d="M606.199 346.6H591.77V361.03H606.199V346.6Z" fill="#350B75"/>
<path d="M606.199 332.17H591.77V346.6H606.199V332.17Z" fill="#E6007E"/>
<path d="M606.199 317.74H591.77V332.18H606.199V317.74Z" fill="#E6007E"/>
<path d="M606.199 303.31H591.77V317.74H606.199V303.31Z" fill="#E6007E"/>
<path d="M606.199 288.88H591.77V303.31H606.199V288.88Z" fill="#E6007E"/>
<path d="M606.199 274.45H591.77V288.88H606.199V274.45Z" fill="#FF72F3"/>
<path d="M606.199 260.02H591.77V274.45H606.199V260.02Z" fill="#FF72F3"/>
<path d="M606.199 245.59H591.77V260.03H606.199V245.59Z" fill="#FF72F3"/>
<path d="M606.199 231.16H591.77V245.59H606.199V231.16Z" fill="#FF72F3"/>
<path d="M606.199 216.73H591.77V231.16H606.199V216.73Z" fill="#FFCDF3"/>
<path d="M606.199 202.3H591.77V216.73H606.199V202.3Z" fill="#FFCDF3"/>
<path d="M606.199 187.87H591.77V202.3H606.199V187.87Z" fill="#FFCDF3"/>
<path d="M606.199 173.43H591.77V187.87H606.199V173.43Z" fill="#350B75"/>
<path d="M591.77 548.63H577.34V563.06H591.77V548.63Z" fill="#350B75"/>
<path d="M591.77 534.2H577.34V548.64H591.77V534.2Z" fill="#E6007E"/>
<path d="M591.77 519.77H577.34V534.2H591.77V519.77Z" fill="#E6007E"/>
<path d="M591.77 505.34H577.34V519.77H591.77V505.34Z" fill="#350B75"/>
<path d="M591.77 490.91H577.34V505.34H591.77V490.91Z" fill="#FF72F3"/>
<path d="M591.77 476.48H577.34V490.91H591.77V476.48Z" fill="#FF72F3"/>
<path d="M591.77 462.04H577.34V476.48H591.77V462.04Z" fill="#FF72F3"/>
<path d="M591.77 447.61H577.34V462.04H591.77V447.61Z" fill="#FF72F3"/>
<path d="M591.77 433.19H577.34V447.62H591.77V433.19Z" fill="#FFCDF3"/>
<path d="M591.77 418.76H577.34V433.19H591.77V418.76Z" fill="#FFCDF3"/>
<path d="M591.77 404.33H577.34V418.76H591.77V404.33Z" fill="#350B75"/>
<path d="M591.77 346.6H577.34V361.03H591.77V346.6Z" fill="#350B75"/>
<path d="M591.77 332.17H577.34V346.6H591.77V332.17Z" fill="#350B75"/>
<path d="M591.77 317.74H577.34V332.18H591.77V317.74Z" fill="#350B75"/>
<path d="M591.77 303.31H577.34V317.74H591.77V303.31Z" fill="#350B75"/>
<path d="M591.77 288.88H577.34V303.31H591.77V288.88Z" fill="#350B75"/>
<path d="M591.77 274.45H577.34V288.88H591.77V274.45Z" fill="#350B75"/>
<path d="M591.77 260.02H577.34V274.45H591.77V260.02Z" fill="#350B75"/>
<path d="M591.77 245.59H577.34V260.03H591.77V245.59Z" fill="#350B75"/>
<path d="M591.77 231.16H577.34V245.59H591.77V231.16Z" fill="#350B75"/>
<path d="M591.77 216.73H577.34V231.16H591.77V216.73Z" fill="#350B75"/>
<path d="M591.77 202.3H577.34V216.73H591.77V202.3Z" fill="#FFCDF3"/>
<path d="M591.77 187.87H577.34V202.3H591.77V187.87Z" fill="#FFCDF3"/>
<path d="M591.77 173.43H577.34V187.87H591.77V173.43Z" fill="#FFCDF3"/>
<path d="M591.77 159H577.34V173.43H591.77V159Z" fill="#350B75"/>
<path d="M577.35 563.06H562.92V577.49H577.35V563.06Z" fill="#350B75"/>
<path d="M577.35 548.63H562.92V563.06H577.35V548.63Z" fill="#E6007E"/>
<path d="M577.35 534.2H562.92V548.64H577.35V534.2Z" fill="#E6007E"/>
<path d="M577.35 519.77H562.92V534.2H577.35V519.77Z" fill="#E6007E"/>
<path d="M577.35 505.34H562.92V519.77H577.35V505.34Z" fill="#350B75"/>
<path d="M577.35 490.91H562.92V505.34H577.35V490.91Z" fill="#FF72F3"/>
<path d="M577.35 476.48H562.92V490.91H577.35V476.48Z" fill="#FF72F3"/>
<path d="M577.35 462.04H562.92V476.48H577.35V462.04Z" fill="#FF72F3"/>
<path d="M577.35 447.61H562.92V462.04H577.35V447.61Z" fill="#FF72F3"/>
<path d="M577.35 433.19H562.92V447.62H577.35V433.19Z" fill="#FFCDF3"/>
<path d="M577.35 418.76H562.92V433.19H577.35V418.76Z" fill="#FFCDF3"/>
<path d="M577.35 404.33H562.92V418.76H577.35V404.33Z" fill="#FFCDF3"/>
<path d="M577.35 389.89H562.92V404.33H577.35V389.89Z" fill="#350B75"/>
<path d="M577.35 216.73H562.92V231.16H577.35V216.73Z" fill="#350B75"/>
<path d="M577.35 202.3H562.92V216.73H577.35V202.3Z" fill="#350B75"/>
<path d="M577.35 187.87H562.92V202.3H577.35V187.87Z" fill="#FFCDF3"/>
<path d="M577.35 173.43H562.92V187.87H577.35V173.43Z" fill="#FFCDF3"/>
<path d="M577.35 159H562.92V173.43H577.35V159Z" fill="#350B75"/>
<path d="M562.92 563.06H548.48V577.49H562.92V563.06Z" fill="#350B75"/>
<path d="M562.92 548.63H548.48V563.06H562.92V548.63Z" fill="#E6007E"/>
<path d="M562.92 534.2H548.48V548.64H562.92V534.2Z" fill="#E6007E"/>
<path d="M562.92 519.77H548.48V534.2H562.92V519.77Z" fill="#350B75"/>
<path d="M562.92 505.34H548.48V519.77H562.92V505.34Z" fill="#350B75"/>
<path d="M562.92 490.91H548.48V505.34H562.92V490.91Z" fill="#FF72F3"/>
<path d="M562.92 476.48H548.48V490.91H562.92V476.48Z" fill="#FF72F3"/>
<path d="M562.92 462.04H548.48V476.48H562.92V462.04Z" fill="#350B75"/>
<path d="M562.92 447.61H548.48V462.04H562.92V447.61Z" fill="#350B75"/>
<path d="M562.92 433.19H548.48V447.62H562.92V433.19Z" fill="#350B75"/>
<path d="M562.92 418.76H548.48V433.19H562.92V418.76Z" fill="#FFCDF3"/>
<path d="M562.92 404.33H548.48V418.76H562.92V404.33Z" fill="#FFCDF3"/>
<path d="M562.92 389.89H548.48V404.33H562.92V389.89Z" fill="#FFCDF3"/>
<path d="M562.92 375.46H548.48V389.89H562.92V375.46Z" fill="#350B75"/>
<path d="M562.92 231.16H548.48V245.59H562.92V231.16Z" fill="#350B75"/>
<path d="M562.92 216.73H548.48V231.16H562.92V216.73Z" fill="#FFCDF3"/>
<path d="M562.92 202.3H548.48V216.73H562.92V202.3Z" fill="#FFCDF3"/>
<path d="M562.92 187.87H548.48V202.3H562.92V187.87Z" fill="#FFCDF3"/>
<path d="M562.92 173.43H548.48V187.87H562.92V173.43Z" fill="#FFCDF3"/>
<path d="M562.92 159H548.48V173.43H562.92V159Z" fill="#350B75"/>
<path d="M548.48 563.06H534.05V577.49H548.48V563.06Z" fill="#350B75"/>
<path d="M548.48 548.63H534.05V563.06H548.48V548.63Z" fill="#E6007E"/>
<path d="M548.48 534.2H534.05V548.64H548.48V534.2Z" fill="#E6007E"/>
<path d="M548.48 519.77H534.05V534.2H548.48V519.77Z" fill="#350B75"/>
<path d="M548.48 505.34H534.05V519.77H548.48V505.34Z" fill="#350B75"/>
<path d="M548.48 490.91H534.05V505.34H548.48V490.91Z" fill="#FF72F3"/>
<path d="M548.48 476.48H534.05V490.91H548.48V476.48Z" fill="#FF72F3"/>
<path d="M548.48 462.04H534.05V476.48H548.48V462.04Z" fill="#350B75"/>
<path d="M548.48 418.76H534.05V433.19H548.48V418.76Z" fill="#350B75"/>
<path d="M548.48 404.33H534.05V418.76H548.48V404.33Z" fill="#FFCDF3"/>
<path d="M548.48 389.89H534.05V404.33H548.48V389.89Z" fill="#FFCDF3"/>
<path d="M548.48 375.46H534.05V389.89H548.48V375.46Z" fill="#350B75"/>
<path d="M548.48 245.59H534.05V260.03H548.48V245.59Z" fill="#350B75"/>
<path d="M548.48 231.16H534.05V245.59H548.48V231.16Z" fill="#FF72F3"/>
<path d="M548.48 216.73H534.05V231.16H548.48V216.73Z" fill="#FFCDF3"/>
<path d="M548.48 202.3H534.05V216.73H548.48V202.3Z" fill="#FFCDF3"/>
<path d="M548.48 187.87H534.05V202.3H548.48V187.87Z" fill="#350B75"/>
<path d="M548.48 173.43H534.05V187.87H548.48V173.43Z" fill="#350B75"/>
<path d="M534.05 563.06H519.62V577.49H534.05V563.06Z" fill="#350B75"/>
<path d="M534.05 548.63H519.62V563.06H534.05V548.63Z" fill="#E6007E"/>
<path d="M534.05 534.2H519.62V548.64H534.05V534.2Z" fill="#E6007E"/>
<path d="M534.05 519.77H519.62V534.2H534.05V519.77Z" fill="#350B75"/>
<path d="M534.05 505.34H519.62V519.77H534.05V505.34Z" fill="#350B75"/>
<path d="M534.05 490.91H519.62V505.34H534.05V490.91Z" fill="#FF72F3"/>
<path d="M534.05 476.48H519.62V490.91H534.05V476.48Z" fill="#FF72F3"/>
<path d="M534.05 462.04H519.62V476.48H534.05V462.04Z" fill="#350B75"/>
<path d="M534.05 418.76H519.62V433.19H534.05V418.76Z" fill="#350B75"/>
<path d="M534.05 404.33H519.62V418.76H534.05V404.33Z" fill="#FFCDF3"/>
<path d="M534.05 389.89H519.62V404.33H534.05V389.89Z" fill="#FFCDF3"/>
<path d="M534.05 375.46H519.62V389.89H534.05V375.46Z" fill="#350B75"/>
<path d="M534.05 231.16H519.62V245.59H534.05V231.16Z" fill="#350B75"/>
<path d="M534.05 216.73H519.62V231.16H534.05V216.73Z" fill="#FFCDF3"/>
<path d="M534.05 202.3H519.62V216.73H534.05V202.3Z" fill="#FFCDF3"/>
<path d="M534.05 187.87H519.62V202.3H534.05V187.87Z" fill="#FFCDF3"/>
<path d="M534.05 173.43H519.62V187.87H534.05V173.43Z" fill="#FFCDF3"/>
<path d="M534.05 159H519.62V173.43H534.05V159Z" fill="#350B75"/>
<path d="M519.62 563.06H505.19V577.49H519.62V563.06Z" fill="#350B75"/>
<path d="M519.62 548.63H505.19V563.06H519.62V548.63Z" fill="#E6007E"/>
<path d="M519.62 534.2H505.19V548.64H519.62V534.2Z" fill="#E6007E"/>
<path d="M519.62 519.77H505.19V534.2H519.62V519.77Z" fill="#350B75"/>
<path d="M519.62 505.34H505.19V519.77H519.62V505.34Z" fill="#350B75"/>
<path d="M519.62 490.91H505.19V505.34H519.62V490.91Z" fill="#FF72F3"/>
<path d="M519.62 476.48H505.19V490.91H519.62V476.48Z" fill="#FF72F3"/>
<path d="M519.62 462.04H505.19V476.48H519.62V462.04Z" fill="#350B75"/>
<path d="M519.62 418.76H505.19V433.19H519.62V418.76Z" fill="#350B75"/>
<path d="M519.62 404.33H505.19V418.76H519.62V404.33Z" fill="#FFCDF3"/>
<path d="M519.62 389.89H505.19V404.33H519.62V389.89Z" fill="#FFCDF3"/>
<path d="M519.62 375.46H505.19V389.89H519.62V375.46Z" fill="#350B75"/>
<path d="M519.62 216.73H505.19V231.16H519.62V216.73Z" fill="#350B75"/>
<path d="M519.62 202.3H505.19V216.73H519.62V202.3Z" fill="#350B75"/>
<path d="M519.62 187.87H505.19V202.3H519.62V187.87Z" fill="#FFCDF3"/>
<path d="M519.62 173.43H505.19V187.87H519.62V173.43Z" fill="#FFCDF3"/>
<path d="M519.62 159H505.19V173.43H519.62V159Z" fill="#350B75"/>
<path d="M505.19 563.06H490.76V577.49H505.19V563.06Z" fill="#350B75"/>
<path d="M505.19 548.63H490.76V563.06H505.19V548.63Z" fill="#E6007E"/>
<path d="M505.19 534.2H490.76V548.64H505.19V534.2Z" fill="#E6007E"/>
<path d="M505.19 519.77H490.76V534.2H505.19V519.77Z" fill="#350B75"/>
<path d="M505.19 505.34H490.76V519.77H505.19V505.34Z" fill="#350B75"/>
<path d="M505.19 490.91H490.76V505.34H505.19V490.91Z" fill="#FF72F3"/>
<path d="M505.19 476.48H490.76V490.91H505.19V476.48Z" fill="#FF72F3"/>
<path d="M505.19 462.04H490.76V476.48H505.19V462.04Z" fill="#350B75"/>
<path d="M505.19 447.61H490.76V462.04H505.19V447.61Z" fill="#350B75"/>
<path d="M505.19 433.19H490.76V447.62H505.19V433.19Z" fill="#350B75"/>
<path d="M505.19 418.76H490.76V433.19H505.19V418.76Z" fill="#FFCDF3"/>
<path d="M505.19 404.33H490.76V418.76H505.19V404.33Z" fill="#FFCDF3"/>
<path d="M505.19 389.89H490.76V404.33H505.19V389.89Z" fill="#FFCDF3"/>
<path d="M505.19 375.46H490.76V389.89H505.19V375.46Z" fill="#350B75"/>
<path d="M505.19 346.6H490.76V361.03H505.19V346.6Z" fill="#350B75"/>
<path d="M505.19 332.17H490.76V346.6H505.19V332.17Z" fill="#350B75"/>
<path d="M505.19 317.74H490.76V332.18H505.19V317.74Z" fill="#350B75"/>
<path d="M505.19 303.31H490.76V317.74H505.19V303.31Z" fill="#350B75"/>
<path d="M505.19 288.88H490.76V303.31H505.19V288.88Z" fill="#350B75"/>
<path d="M505.19 274.45H490.76V288.88H505.19V274.45Z" fill="#350B75"/>
<path d="M505.19 260.02H490.76V274.45H505.19V260.02Z" fill="#350B75"/>
<path d="M505.19 245.59H490.76V260.03H505.19V245.59Z" fill="#350B75"/>
<path d="M505.19 231.16H490.76V245.59H505.19V231.16Z" fill="#350B75"/>
<path d="M505.19 216.73H490.76V231.16H505.19V216.73Z" fill="#350B75"/>
<path d="M505.19 202.3H490.76V216.73H505.19V202.3Z" fill="#FFCDF3"/>
<path d="M505.19 187.87H490.76V202.3H505.19V187.87Z" fill="#FFCDF3"/>
<path d="M505.19 173.43H490.76V187.87H505.19V173.43Z" fill="#FFCDF3"/>
<path d="M505.19 159H490.76V173.43H505.19V159Z" fill="#350B75"/>
<path d="M490.77 563.06H476.33V577.49H490.77V563.06Z" fill="#350B75"/>
<path d="M490.77 548.63H476.33V563.06H490.77V548.63Z" fill="#E6007E"/>
<path d="M490.77 534.2H476.33V548.64H490.77V534.2Z" fill="#E6007E"/>
<path d="M490.77 519.77H476.33V534.2H490.77V519.77Z" fill="#E6007E"/>
<path d="M490.77 505.34H476.33V519.77H490.77V505.34Z" fill="#E6007E"/>
<path d="M490.77 490.91H476.33V505.34H490.77V490.91Z" fill="#FF72F3"/>
<path d="M490.77 476.48H476.33V490.91H490.77V476.48Z" fill="#FF72F3"/>
<path d="M490.77 462.04H476.33V476.48H490.77V462.04Z" fill="#FF72F3"/>
<path d="M490.77 447.61H476.33V462.04H490.77V447.61Z" fill="#FF72F3"/>
<path d="M490.77 433.19H476.33V447.62H490.77V433.19Z" fill="#FFCDF3"/>
<path d="M490.77 418.76H476.33V433.19H490.77V418.76Z" fill="#FFCDF3"/>
<path d="M490.77 404.33H476.33V418.76H490.77V404.33Z" fill="#FFCDF3"/>
<path d="M490.77 389.89H476.33V404.33H490.77V389.89Z" fill="#350B75"/>
<path d="M490.77 346.6H476.33V361.03H490.77V346.6Z" fill="#350B75"/>
<path d="M490.77 332.17H476.33V346.6H490.77V332.17Z" fill="#E6007E"/>
<path d="M490.77 317.74H476.33V332.18H490.77V317.74Z" fill="#E6007E"/>
<path d="M490.77 303.31H476.33V317.74H490.77V303.31Z" fill="#E6007E"/>
<path d="M490.77 288.88H476.33V303.31H490.77V288.88Z" fill="#E6007E"/>
<path d="M490.77 274.45H476.33V288.88H490.77V274.45Z" fill="#FF72F3"/>
<path d="M490.77 260.02H476.33V274.45H490.77V260.02Z" fill="#FF72F3"/>
<path d="M490.77 245.59H476.33V260.03H490.77V245.59Z" fill="#FF72F3"/>
<path d="M490.77 231.16H476.33V245.59H490.77V231.16Z" fill="#FF72F3"/>
<path d="M490.77 216.73H476.33V231.16H490.77V216.73Z" fill="#FFCDF3"/>
<path d="M490.77 202.3H476.33V216.73H490.77V202.3Z" fill="#FFCDF3"/>
<path d="M490.77 187.87H476.33V202.3H490.77V187.87Z" fill="#FFCDF3"/>
<path d="M490.77 173.43H476.33V187.87H490.77V173.43Z" fill="#350B75"/>
<path d="M476.33 548.63H461.9V563.06H476.33V548.63Z" fill="#350B75"/>
<path d="M476.33 534.2H461.9V548.64H476.33V534.2Z" fill="#E6007E"/>
<path d="M476.33 519.77H461.9V534.2H476.33V519.77Z" fill="#E6007E"/>
<path d="M476.33 505.34H461.9V519.77H476.33V505.34Z" fill="#E6007E"/>
<path d="M476.33 490.91H461.9V505.34H476.33V490.91Z" fill="#FF72F3"/>
<path d="M476.33 476.48H461.9V490.91H476.33V476.48Z" fill="#FF72F3"/>
<path d="M476.33 462.04H461.9V476.48H476.33V462.04Z" fill="#FF72F3"/>
<path d="M476.33 447.61H461.9V462.04H476.33V447.61Z" fill="#FF72F3"/>
<path d="M476.33 433.19H461.9V447.62H476.33V433.19Z" fill="#FFCDF3"/>
<path d="M476.33 418.76H461.9V433.19H476.33V418.76Z" fill="#FFCDF3"/>
<path d="M476.33 404.33H461.9V418.76H476.33V404.33Z" fill="#350B75"/>
<path d="M476.33 346.6H461.9V361.03H476.33V346.6Z" fill="#350B75"/>
<path d="M476.33 332.17H461.9V346.6H476.33V332.17Z" fill="#E6007E"/>
<path d="M476.33 317.74H461.9V332.18H476.33V317.74Z" fill="#E6007E"/>
<path d="M476.33 303.31H461.9V317.74H476.33V303.31Z" fill="#E6007E"/>
<path d="M476.33 288.88H461.9V303.31H476.33V288.88Z" fill="#E6007E"/>
<path d="M476.33 274.45H461.9V288.88H476.33V274.45Z" fill="#FF72F3"/>
<path d="M476.33 260.02H461.9V274.45H476.33V260.02Z" fill="#FF72F3"/>
<path d="M476.33 245.59H461.9V260.03H476.33V245.59Z" fill="#FF72F3"/>
<path d="M476.33 231.16H461.9V245.59H476.33V231.16Z" fill="#FF72F3"/>
<path d="M476.33 216.73H461.9V231.16H476.33V216.73Z" fill="#FFCDF3"/>
<path d="M476.33 202.3H461.9V216.73H476.33V202.3Z" fill="#FFCDF3"/>
<path d="M476.33 187.87H461.9V202.3H476.33V187.87Z" fill="#350B75"/>
<path d="M461.9 534.2H447.47V548.64H461.9V534.2Z" fill="#350B75"/>
<path d="M461.9 519.77H447.47V534.2H461.9V519.77Z" fill="#350B75"/>
<path d="M461.9 505.34H447.47V519.77H461.9V505.34Z" fill="#350B75"/>
<path d="M461.9 490.91H447.47V505.34H461.9V490.91Z" fill="#350B75"/>
<path d="M461.9 476.48H447.47V490.91H461.9V476.48Z" fill="#350B75"/>
<path d="M461.9 462.04H447.47V476.48H461.9V462.04Z" fill="#350B75"/>
<path d="M461.9 447.61H447.47V462.04H461.9V447.61Z" fill="#350B75"/>
<path d="M461.9 433.19H447.47V447.62H461.9V433.19Z" fill="#350B75"/>
<path d="M461.9 418.76H447.47V433.19H461.9V418.76Z" fill="#350B75"/>
<path d="M461.9 404.33H447.47V418.76H461.9V404.33Z" fill="#350B75"/>
<path d="M461.9 389.89H447.47V404.33H461.9V389.89Z" fill="#350B75"/>
<path d="M461.9 375.46H447.47V389.89H461.9V375.46Z" fill="#350B75"/>
<path d="M461.9 346.6H447.47V361.03H461.9V346.6Z" fill="#350B75"/>
<path d="M461.9 332.17H447.47V346.6H461.9V332.17Z" fill="#350B75"/>
<path d="M461.9 317.74H447.47V332.18H461.9V317.74Z" fill="#350B75"/>
<path d="M461.9 303.31H447.47V317.74H461.9V303.31Z" fill="#350B75"/>
<path d="M461.9 288.88H447.47V303.31H461.9V288.88Z" fill="#350B75"/>
<path d="M461.9 274.45H447.47V288.88H461.9V274.45Z" fill="#350B75"/>
<path d="M461.9 260.02H447.47V274.45H461.9V260.02Z" fill="#350B75"/>
<path d="M461.9 245.59H447.47V260.03H461.9V245.59Z" fill="#350B75"/>
<path d="M461.9 231.16H447.47V245.59H461.9V231.16Z" fill="#350B75"/>
<path d="M461.9 216.73H447.47V231.16H461.9V216.73Z" fill="#350B75"/>
<path d="M461.9 202.3H447.47V216.73H461.9V202.3Z" fill="#350B75"/>
<path d="M447.47 519.77H433.04V534.2H447.47V519.77Z" fill="#350B75"/>
<path d="M447.47 505.34H433.04V519.77H447.47V505.34Z" fill="#E6007E"/>
<path d="M447.47 490.91H433.04V505.34H447.47V490.91Z" fill="#FF72F3"/>
<path d="M447.47 476.48H433.04V490.91H447.47V476.48Z" fill="#FF72F3"/>
<path d="M447.47 462.04H433.04V476.48H447.47V462.04Z" fill="#FF72F3"/>
<path d="M447.47 447.61H433.04V462.04H447.47V447.61Z" fill="#FF72F3"/>
<path d="M447.47 433.19H433.04V447.62H447.47V433.19Z" fill="#FFCDF3"/>
<path d="M447.47 418.76H433.04V433.19H447.47V418.76Z" fill="#FFCDF3"/>
<path d="M447.47 404.33H433.04V418.76H447.47V404.33Z" fill="#FFCDF3"/>
<path d="M447.47 389.89H433.04V404.33H447.47V389.89Z" fill="#FFCDF3"/>
<path d="M447.47 375.46H433.04V389.89H447.47V375.46Z" fill="#350B75"/>
<path d="M447.47 346.6H433.04V361.03H447.47V346.6Z" fill="#350B75"/>
<path d="M447.47 332.17H433.04V346.6H447.47V332.17Z" fill="#E6007E"/>
<path d="M447.47 317.74H433.04V332.18H447.47V317.74Z" fill="#E6007E"/>
<path d="M447.47 303.31H433.04V317.74H447.47V303.31Z" fill="#E6007E"/>
<path d="M447.47 288.88H433.04V303.31H447.47V288.88Z" fill="#E6007E"/>
<path d="M447.47 274.45H433.04V288.88H447.47V274.45Z" fill="#FF72F3"/>
<path d="M447.47 260.02H433.04V274.45H447.47V260.02Z" fill="#FF72F3"/>
<path d="M447.47 245.59H433.04V260.03H447.47V245.59Z" fill="#FF72F3"/>
<path d="M447.47 231.16H433.04V245.59H447.47V231.16Z" fill="#FF72F3"/>
<path d="M447.47 216.73H433.04V231.16H447.47V216.73Z" fill="#FFCDF3"/>
<path d="M447.47 202.3H433.04V216.73H447.47V202.3Z" fill="#FFCDF3"/>
<path d="M447.47 187.87H433.04V202.3H447.47V187.87Z" fill="#350B75"/>
<path d="M433.04 534.2H418.61V548.64H433.04V534.2Z" fill="#350B75"/>
<path d="M433.04 519.77H418.61V534.2H433.04V519.77Z" fill="#E6007E"/>
<path d="M433.04 505.34H418.61V519.77H433.04V505.34Z" fill="#E6007E"/>
<path d="M433.04 490.91H418.61V505.34H433.04V490.91Z" fill="#FF72F3"/>
<path d="M433.04 476.48H418.61V490.91H433.04V476.48Z" fill="#FF72F3"/>
<path d="M433.04 462.04H418.61V476.48H433.04V462.04Z" fill="#FF72F3"/>
<path d="M433.04 447.61H418.61V462.04H433.04V447.61Z" fill="#FF72F3"/>
<path d="M433.04 433.19H418.61V447.62H433.04V433.19Z" fill="#FFCDF3"/>
<path d="M433.04 418.76H418.61V433.19H433.04V418.76Z" fill="#FFCDF3"/>
<path d="M433.04 404.33H418.61V418.76H433.04V404.33Z" fill="#FFCDF3"/>
<path d="M433.04 389.89H418.61V404.33H433.04V389.89Z" fill="#FFCDF3"/>
<path d="M433.04 375.46H418.61V389.89H433.04V375.46Z" fill="#350B75"/>
<path d="M433.04 346.6H418.61V361.03H433.04V346.6Z" fill="#350B75"/>
<path d="M433.04 332.17H418.61V346.6H433.04V332.17Z" fill="#E6007E"/>
<path d="M433.04 317.74H418.61V332.18H433.04V317.74Z" fill="#E6007E"/>
<path d="M433.04 303.31H418.61V317.74H433.04V303.31Z" fill="#E6007E"/>
<path d="M433.04 288.88H418.61V303.31H433.04V288.88Z" fill="#E6007E"/>
<path d="M433.04 274.45H418.61V288.88H433.04V274.45Z" fill="#FF72F3"/>
<path d="M433.04 260.02H418.61V274.45H433.04V260.02Z" fill="#FF72F3"/>
<path d="M433.04 245.59H418.61V260.03H433.04V245.59Z" fill="#FF72F3"/>
<path d="M433.04 231.16H418.61V245.59H433.04V231.16Z" fill="#FF72F3"/>
<path d="M433.04 216.73H418.61V231.16H433.04V216.73Z" fill="#FFCDF3"/>
<path d="M433.04 202.3H418.61V216.73H433.04V202.3Z" fill="#FFCDF3"/>
<path d="M433.04 187.87H418.61V202.3H433.04V187.87Z" fill="#FFCDF3"/>
<path d="M433.04 173.43H418.61V187.87H433.04V173.43Z" fill="#350B75"/>
<path d="M418.61 548.63H404.17V563.06H418.61V548.63Z" fill="#350B75"/>
<path d="M418.61 534.2H404.17V548.64H418.61V534.2Z" fill="#E6007E"/>
<path d="M418.61 519.77H404.17V534.2H418.61V519.77Z" fill="#E6007E"/>
<path d="M418.61 505.34H404.17V519.77H418.61V505.34Z" fill="#E6007E"/>
<path d="M418.61 490.91H404.17V505.34H418.61V490.91Z" fill="#350B75"/>
<path d="M418.61 476.48H404.17V490.91H418.61V476.48Z" fill="#350B75"/>
<path d="M418.61 462.04H404.17V476.48H418.61V462.04Z" fill="#350B75"/>
<path d="M418.61 447.61H404.17V462.04H418.61V447.61Z" fill="#350B75"/>
<path d="M418.61 433.19H404.17V447.62H418.61V433.19Z" fill="#350B75"/>
<path d="M418.61 418.76H404.17V433.19H418.61V418.76Z" fill="#350B75"/>
<path d="M418.61 404.33H404.17V418.76H418.61V404.33Z" fill="#350B75"/>
<path d="M418.61 389.89H404.17V404.33H418.61V389.89Z" fill="#350B75"/>
<path d="M418.61 375.46H404.17V389.89H418.61V375.46Z" fill="#350B75"/>
<path d="M418.61 346.6H404.17V361.03H418.61V346.6Z" fill="#350B75"/>
<path d="M418.61 332.17H404.17V346.6H418.61V332.17Z" fill="#350B75"/>
<path d="M418.61 317.74H404.17V332.18H418.61V317.74Z" fill="#350B75"/>
<path d="M418.61 303.31H404.17V317.74H418.61V303.31Z" fill="#350B75"/>
<path d="M418.61 288.88H404.17V303.31H418.61V288.88Z" fill="#350B75"/>
<path d="M418.61 274.45H404.17V288.88H418.61V274.45Z" fill="#FF72F3"/>
<path d="M418.61 260.02H404.17V274.45H418.61V260.02Z" fill="#FF72F3"/>
<path d="M418.61 245.59H404.17V260.03H418.61V245.59Z" fill="#350B75"/>
<path d="M418.61 231.16H404.17V245.59H418.61V231.16Z" fill="#350B75"/>
<path d="M418.61 216.73H404.17V231.16H418.61V216.73Z" fill="#350B75"/>
<path d="M418.61 202.3H404.17V216.73H418.61V202.3Z" fill="#FFCDF3"/>
<path d="M418.61 187.87H404.17V202.3H418.61V187.87Z" fill="#FFCDF3"/>
<path d="M418.61 173.43H404.17V187.87H418.61V173.43Z" fill="#FFCDF3"/>
<path d="M418.61 159H404.17V173.43H418.61V159Z" fill="#350B75"/>
<path d="M404.17 563.06H389.74V577.49H404.17V563.06Z" fill="#350B75"/>
<path d="M404.17 548.63H389.74V563.06H404.17V548.63Z" fill="#E6007E"/>
<path d="M404.17 534.2H389.74V548.64H404.17V534.2Z" fill="#E6007E"/>
<path d="M404.17 519.77H389.74V534.2H404.17V519.77Z" fill="#E6007E"/>
<path d="M404.17 505.34H389.74V519.77H404.17V505.34Z" fill="#350B75"/>
<path d="M404.17 288.88H389.74V303.31H404.17V288.88Z" fill="#350B75"/>
<path d="M404.17 274.45H389.74V288.88H404.17V274.45Z" fill="#FF72F3"/>
<path d="M404.17 260.02H389.74V274.45H404.17V260.02Z" fill="#FF72F3"/>
<path d="M404.17 245.59H389.74V260.03H404.17V245.59Z" fill="#350B75"/>
<path d="M404.17 202.3H389.74V216.73H404.17V202.3Z" fill="#350B75"/>
<path d="M404.17 187.87H389.74V202.3H404.17V187.87Z" fill="#FFCDF3"/>
<path d="M404.17 173.43H389.74V187.87H404.17V173.43Z" fill="#FFCDF3"/>
<path d="M404.17 159H389.74V173.43H404.17V159Z" fill="#350B75"/>
<path d="M389.75 563.06H375.32V577.49H389.75V563.06Z" fill="#350B75"/>
<path d="M389.75 548.63H375.32V563.06H389.75V548.63Z" fill="#E6007E"/>
<path d="M389.75 534.2H375.32V548.64H389.75V534.2Z" fill="#E6007E"/>
<path d="M389.75 519.77H375.32V534.2H389.75V519.77Z" fill="#350B75"/>
<path d="M389.75 288.88H375.32V303.31H389.75V288.88Z" fill="#350B75"/>
<path d="M389.75 274.45H375.32V288.88H389.75V274.45Z" fill="#FF72F3"/>
<path d="M389.75 260.02H375.32V274.45H389.75V260.02Z" fill="#FF72F3"/>
<path d="M389.75 245.59H375.32V260.03H389.75V245.59Z" fill="#350B75"/>
<path d="M389.75 202.3H375.32V216.73H389.75V202.3Z" fill="#350B75"/>
<path d="M389.75 187.87H375.32V202.3H389.75V187.87Z" fill="#FFCDF3"/>
<path d="M389.75 173.43H375.32V187.87H389.75V173.43Z" fill="#FFCDF3"/>
<path d="M389.75 159H375.32V173.43H389.75V159Z" fill="#350B75"/>
<path d="M375.32 563.06H360.89V577.49H375.32V563.06Z" fill="#350B75"/>
<path d="M375.32 548.63H360.89V563.06H375.32V548.63Z" fill="#E6007E"/>
<path d="M375.32 534.2H360.89V548.64H375.32V534.2Z" fill="#E6007E"/>
<path d="M375.32 519.77H360.89V534.2H375.32V519.77Z" fill="#E6007E"/>
<path d="M375.32 505.34H360.89V519.77H375.32V505.34Z" fill="#350B75"/>
<path d="M375.32 288.88H360.89V303.31H375.32V288.88Z" fill="#350B75"/>
<path d="M375.32 274.45H360.89V288.88H375.32V274.45Z" fill="#FF72F3"/>
<path d="M375.32 260.02H360.89V274.45H375.32V260.02Z" fill="#FF72F3"/>
<path d="M375.32 245.59H360.89V260.03H375.32V245.59Z" fill="#350B75"/>
<path d="M375.32 202.3H360.89V216.73H375.32V202.3Z" fill="#350B75"/>
<path d="M375.32 187.87H360.89V202.3H375.32V187.87Z" fill="#FFCDF3"/>
<path d="M375.32 173.43H360.89V187.87H375.32V173.43Z" fill="#FFCDF3"/>
<path d="M375.32 159H360.89V173.43H375.32V159Z" fill="#350B75"/>
<path d="M360.89 548.63H346.46V563.06H360.89V548.63Z" fill="#350B75"/>
<path d="M360.89 534.2H346.46V548.64H360.89V534.2Z" fill="#E6007E"/>
<path d="M360.89 519.77H346.46V534.2H360.89V519.77Z" fill="#E6007E"/>
<path d="M360.89 505.34H346.46V519.77H360.89V505.34Z" fill="#E6007E"/>
<path d="M360.89 490.91H346.46V505.34H360.89V490.91Z" fill="#350B75"/>
<path d="M360.89 476.48H346.46V490.91H360.89V476.48Z" fill="#350B75"/>
<path d="M360.89 462.04H346.46V476.48H360.89V462.04Z" fill="#350B75"/>
<path d="M360.89 447.61H346.46V462.04H360.89V447.61Z" fill="#350B75"/>
<path d="M360.89 433.19H346.46V447.62H360.89V433.19Z" fill="#350B75"/>
<path d="M360.89 418.76H346.46V433.19H360.89V418.76Z" fill="#350B75"/>
<path d="M360.89 404.33H346.46V418.76H360.89V404.33Z" fill="#350B75"/>
<path d="M360.89 389.89H346.46V404.33H360.89V389.89Z" fill="#350B75"/>
<path d="M360.89 375.46H346.46V389.89H360.89V375.46Z" fill="#350B75"/>
<path d="M360.89 346.6H346.46V361.03H360.89V346.6Z" fill="#350B75"/>
<path d="M360.89 332.17H346.46V346.6H360.89V332.17Z" fill="#350B75"/>
<path d="M360.89 317.74H346.46V332.18H360.89V317.74Z" fill="#350B75"/>
<path d="M360.89 303.31H346.46V317.74H360.89V303.31Z" fill="#350B75"/>
<path d="M360.89 288.88H346.46V303.31H360.89V288.88Z" fill="#350B75"/>
<path d="M360.89 274.45H346.46V288.88H360.89V274.45Z" fill="#FF72F3"/>
<path d="M360.89 260.02H346.46V274.45H360.89V260.02Z" fill="#FF72F3"/>
<path d="M360.89 245.59H346.46V260.03H360.89V245.59Z" fill="#350B75"/>
<path d="M360.89 231.16H346.46V245.59H360.89V231.16Z" fill="#350B75"/>
<path d="M360.89 216.73H346.46V231.16H360.89V216.73Z" fill="#350B75"/>
<path d="M360.89 202.3H346.46V216.73H360.89V202.3Z" fill="#FFCDF3"/>
<path d="M360.89 187.87H346.46V202.3H360.89V187.87Z" fill="#FFCDF3"/>
<path d="M360.89 173.43H346.46V187.87H360.89V173.43Z" fill="#FFCDF3"/>
<path d="M360.89 159H346.46V173.43H360.89V159Z" fill="#350B75"/>
<path d="M346.46 534.2H332.02V548.64H346.46V534.2Z" fill="#350B75"/>
<path d="M346.46 519.77H332.02V534.2H346.46V519.77Z" fill="#E6007E"/>
<path d="M346.46 505.34H332.02V519.77H346.46V505.34Z" fill="#E6007E"/>
<path d="M346.46 490.91H332.02V505.34H346.46V490.91Z" fill="#FF72F3"/>
<path d="M346.46 476.48H332.02V490.91H346.46V476.48Z" fill="#FF72F3"/>
<path d="M346.46 462.04H332.02V476.48H346.46V462.04Z" fill="#FF72F3"/>
<path d="M346.46 447.61H332.02V462.04H346.46V447.61Z" fill="#FF72F3"/>
<path d="M346.46 433.19H332.02V447.62H346.46V433.19Z" fill="#FFCDF3"/>
<path d="M346.46 418.76H332.02V433.19H346.46V418.76Z" fill="#FFCDF3"/>
<path d="M346.46 404.33H332.02V418.76H346.46V404.33Z" fill="#FFCDF3"/>
<path d="M346.46 389.89H332.02V404.33H346.46V389.89Z" fill="#FFCDF3"/>
<path d="M346.46 375.46H332.02V389.89H346.46V375.46Z" fill="#350B75"/>
<path d="M346.46 346.6H332.02V361.03H346.46V346.6Z" fill="#350B75"/>
<path d="M346.46 332.17H332.02V346.6H346.46V332.17Z" fill="#E6007E"/>
<path d="M346.46 317.74H332.02V332.18H346.46V317.74Z" fill="#E6007E"/>
<path d="M346.46 303.31H332.02V317.74H346.46V303.31Z" fill="#E6007E"/>
<path d="M346.46 288.88H332.02V303.31H346.46V288.88Z" fill="#E6007E"/>
<path d="M346.46 274.45H332.02V288.88H346.46V274.45Z" fill="#FF72F3"/>
<path d="M346.46 260.02H332.02V274.45H346.46V260.02Z" fill="#FF72F3"/>
<path d="M346.46 245.59H332.02V260.03H346.46V245.59Z" fill="#FF72F3"/>
<path d="M346.46 231.16H332.02V245.59H346.46V231.16Z" fill="#FF72F3"/>
<path d="M346.46 216.73H332.02V231.16H346.46V216.73Z" fill="#FFCDF3"/>
<path d="M346.46 202.3H332.02V216.73H346.46V202.3Z" fill="#FFCDF3"/>
<path d="M346.46 187.87H332.02V202.3H346.46V187.87Z" fill="#FFCDF3"/>
<path d="M346.46 173.43H332.02V187.87H346.46V173.43Z" fill="#350B75"/>
<path d="M332.02 519.77H317.59V534.2H332.02V519.77Z" fill="#350B75"/>
<path d="M332.02 505.34H317.59V519.77H332.02V505.34Z" fill="#E6007E"/>
<path d="M332.02 490.91H317.59V505.34H332.02V490.91Z" fill="#FF72F3"/>
<path d="M332.02 476.48H317.59V490.91H332.02V476.48Z" fill="#FF72F3"/>
<path d="M332.02 462.04H317.59V476.48H332.02V462.04Z" fill="#FF72F3"/>
<path d="M332.02 447.61H317.59V462.04H332.02V447.61Z" fill="#FF72F3"/>
<path d="M332.02 433.19H317.59V447.62H332.02V433.19Z" fill="#FFCDF3"/>
<path d="M332.02 418.76H317.59V433.19H332.02V418.76Z" fill="#FFCDF3"/>
<path d="M332.02 404.33H317.59V418.76H332.02V404.33Z" fill="#FFCDF3"/>
<path d="M332.02 389.89H317.59V404.33H332.02V389.89Z" fill="#FFCDF3"/>
<path d="M332.02 375.46H317.59V389.89H332.02V375.46Z" fill="#350B75"/>
<path d="M332.02 346.6H317.59V361.03H332.02V346.6Z" fill="#350B75"/>
<path d="M332.02 332.17H317.59V346.6H332.02V332.17Z" fill="#E6007E"/>
<path d="M332.02 317.74H317.59V332.18H332.02V317.74Z" fill="#E6007E"/>
<path d="M332.02 303.31H317.59V317.74H332.02V303.31Z" fill="#E6007E"/>
<path d="M332.02 288.88H317.59V303.31H332.02V288.88Z" fill="#E6007E"/>
<path d="M332.02 274.45H317.59V288.88H332.02V274.45Z" fill="#FF72F3"/>
<path d="M332.02 260.02H317.59V274.45H332.02V260.02Z" fill="#FF72F3"/>
<path d="M332.02 245.59H317.59V260.03H332.02V245.59Z" fill="#FF72F3"/>
<path d="M332.02 231.16H317.59V245.59H332.02V231.16Z" fill="#FF72F3"/>
<path d="M332.02 216.73H317.59V231.16H332.02V216.73Z" fill="#FFCDF3"/>
<path d="M332.02 202.3H317.59V216.73H332.02V202.3Z" fill="#FFCDF3"/>
<path d="M332.02 187.87H317.59V202.3H332.02V187.87Z" fill="#350B75"/>
<path d="M317.59 519.77H303.16V534.2H317.59V519.77Z" fill="#350B75"/>
<path d="M317.59 505.34H303.16V519.77H317.59V505.34Z" fill="#350B75"/>
<path d="M317.59 490.91H303.16V505.34H317.59V490.91Z" fill="#350B75"/>
<path d="M317.59 476.48H303.16V490.91H317.59V476.48Z" fill="#350B75"/>
<path d="M317.59 462.04H303.16V476.48H317.59V462.04Z" fill="#350B75"/>
<path d="M317.59 447.61H303.16V462.04H317.59V447.61Z" fill="#350B75"/>
<path d="M317.59 433.19H303.16V447.62H317.59V433.19Z" fill="#350B75"/>
<path d="M317.59 418.76H303.16V433.19H317.59V418.76Z" fill="#350B75"/>
<path d="M317.59 404.33H303.16V418.76H317.59V404.33Z" fill="#350B75"/>
<path d="M317.59 389.89H303.16V404.33H317.59V389.89Z" fill="#350B75"/>
<path d="M317.59 375.46H303.16V389.89H317.59V375.46Z" fill="#350B75"/>
<path d="M317.59 346.6H303.16V361.03H317.59V346.6Z" fill="#350B75"/>
<path d="M317.59 332.17H303.16V346.6H317.59V332.17Z" fill="#350B75"/>
<path d="M317.59 317.74H303.16V332.18H317.59V317.74Z" fill="#350B75"/>
<path d="M317.59 303.31H303.16V317.74H317.59V303.31Z" fill="#350B75"/>
<path d="M317.59 288.88H303.16V303.31H317.59V288.88Z" fill="#350B75"/>
<path d="M317.59 274.45H303.16V288.88H317.59V274.45Z" fill="#350B75"/>
<path d="M317.59 260.02H303.16V274.45H317.59V260.02Z" fill="#350B75"/>
<path d="M317.59 245.59H303.16V260.03H317.59V245.59Z" fill="#350B75"/>
<path d="M317.59 231.16H303.16V245.59H317.59V231.16Z" fill="#350B75"/>
<path d="M317.59 216.73H303.16V231.16H317.59V216.73Z" fill="#350B75"/>
<path d="M317.59 202.3H303.16V216.73H317.59V202.3Z" fill="#350B75"/>
<path d="M303.16 534.2H288.73V548.64H303.16V534.2Z" fill="#350B75"/>
<path d="M303.16 519.77H288.73V534.2H303.16V519.77Z" fill="#E6007E"/>
<path d="M303.16 505.34H288.73V519.77H303.16V505.34Z" fill="#E6007E"/>
<path d="M303.16 490.91H288.73V505.34H303.16V490.91Z" fill="#FF72F3"/>
<path d="M303.16 476.48H288.73V490.91H303.16V476.48Z" fill="#FF72F3"/>
<path d="M303.16 462.04H288.73V476.48H303.16V462.04Z" fill="#FF72F3"/>
<path d="M303.16 447.61H288.73V462.04H303.16V447.61Z" fill="#FF72F3"/>
<path d="M303.16 433.19H288.73V447.62H303.16V433.19Z" fill="#FFCDF3"/>
<path d="M303.16 418.76H288.73V433.19H303.16V418.76Z" fill="#FFCDF3"/>
<path d="M303.16 404.33H288.73V418.76H303.16V404.33Z" fill="#350B75"/>
<path d="M303.16 317.74H288.73V332.18H303.16V317.74Z" fill="#350B75"/>
<path d="M303.16 303.31H288.73V317.74H303.16V303.31Z" fill="#E6007E"/>
<path d="M303.16 288.88H288.73V303.31H303.16V288.88Z" fill="#E6007E"/>
<path d="M303.16 274.45H288.73V288.88H303.16V274.45Z" fill="#FF72F3"/>
<path d="M303.16 260.02H288.73V274.45H303.16V260.02Z" fill="#FF72F3"/>
<path d="M303.16 245.59H288.73V260.03H303.16V245.59Z" fill="#350B75"/>
<path d="M303.16 231.16H288.73V245.59H303.16V231.16Z" fill="#350B75"/>
<path d="M303.16 216.73H288.73V231.16H303.16V216.73Z" fill="#FFCDF3"/>
<path d="M303.16 202.3H288.73V216.73H303.16V202.3Z" fill="#FFCDF3"/>
<path d="M303.16 187.87H288.73V202.3H303.16V187.87Z" fill="#350B75"/>
<path d="M288.73 548.63H274.3V563.06H288.73V548.63Z" fill="#350B75"/>
<path d="M288.73 534.2H274.3V548.64H288.73V534.2Z" fill="#E6007E"/>
<path d="M288.73 519.77H274.3V534.2H288.73V519.77Z" fill="#E6007E"/>
<path d="M288.73 505.34H274.3V519.77H288.73V505.34Z" fill="#E6007E"/>
<path d="M288.73 490.91H274.3V505.34H288.73V490.91Z" fill="#FF72F3"/>
<path d="M288.73 476.48H274.3V490.91H288.73V476.48Z" fill="#FF72F3"/>
<path d="M288.73 462.04H274.3V476.48H288.73V462.04Z" fill="#FF72F3"/>
<path d="M288.73 447.61H274.3V462.04H288.73V447.61Z" fill="#FF72F3"/>
<path d="M288.73 433.19H274.3V447.62H288.73V433.19Z" fill="#FFCDF3"/>
<path d="M288.73 418.76H274.3V433.19H288.73V418.76Z" fill="#FFCDF3"/>
<path d="M288.73 404.33H274.3V418.76H288.73V404.33Z" fill="#FFCDF3"/>
<path d="M288.73 389.89H274.3V404.33H288.73V389.89Z" fill="#350B75"/>
<path d="M288.73 332.17H274.3V346.6H288.73V332.17Z" fill="#350B75"/>
<path d="M288.73 317.74H274.3V332.18H288.73V317.74Z" fill="#E6007E"/>
<path d="M288.73 303.31H274.3V317.74H288.73V303.31Z" fill="#E6007E"/>
<path d="M288.73 288.88H274.3V303.31H288.73V288.88Z" fill="#E6007E"/>
<path d="M288.73 274.45H274.3V288.88H288.73V274.45Z" fill="#FF72F3"/>
<path d="M288.73 260.02H274.3V274.45H288.73V260.02Z" fill="#FF72F3"/>
<path d="M288.73 245.59H274.3V260.03H288.73V245.59Z" fill="#350B75"/>
<path d="M288.73 231.16H274.3V245.59H288.73V231.16Z" fill="#350B75"/>
<path d="M288.73 216.73H274.3V231.16H288.73V216.73Z" fill="#FFCDF3"/>
<path d="M288.73 202.3H274.3V216.73H288.73V202.3Z" fill="#FFCDF3"/>
<path d="M288.73 187.87H274.3V202.3H288.73V187.87Z" fill="#FFCDF3"/>
<path d="M288.73 173.43H274.3V187.87H288.73V173.43Z" fill="#350B75"/>
<path d="M274.31 563.06H259.87V577.49H274.31V563.06Z" fill="#350B75"/>
<path d="M274.31 548.63H259.87V563.06H274.31V548.63Z" fill="#E6007E"/>
<path d="M274.31 534.2H259.87V548.64H274.31V534.2Z" fill="#E6007E"/>
<path d="M274.31 519.77H259.87V534.2H274.31V519.77Z" fill="#E6007E"/>
<path d="M274.31 505.34H259.87V519.77H274.31V505.34Z" fill="#350B75"/>
<path d="M274.31 490.91H259.87V505.34H274.31V490.91Z" fill="#350B75"/>
<path d="M274.31 476.48H259.87V490.91H274.31V476.48Z" fill="#350B75"/>
<path d="M274.31 462.04H259.87V476.48H274.31V462.04Z" fill="#350B75"/>
<path d="M274.31 447.61H259.87V462.04H274.31V447.61Z" fill="#350B75"/>
<path d="M274.31 433.19H259.87V447.62H274.31V433.19Z" fill="#350B75"/>
<path d="M274.31 418.76H259.87V433.19H274.31V418.76Z" fill="#FFCDF3"/>
<path d="M274.31 404.33H259.87V418.76H274.31V404.33Z" fill="#FFCDF3"/>
<path d="M274.31 389.89H259.87V404.33H274.31V389.89Z" fill="#FFCDF3"/>
<path d="M274.31 375.46H259.87V389.89H274.31V375.46Z" fill="#350B75"/>
<path d="M274.31 346.6H259.87V361.03H274.31V346.6Z" fill="#350B75"/>
<path d="M274.31 332.17H259.87V346.6H274.31V332.17Z" fill="#E6007E"/>
<path d="M274.31 317.74H259.87V332.18H274.31V317.74Z" fill="#E6007E"/>
<path d="M274.31 303.31H259.87V317.74H274.31V303.31Z" fill="#E6007E"/>
<path d="M274.31 288.88H259.87V303.31H274.31V288.88Z" fill="#350B75"/>
<path d="M274.31 274.45H259.87V288.88H274.31V274.45Z" fill="#FF72F3"/>
<path d="M274.31 260.02H259.87V274.45H274.31V260.02Z" fill="#FF72F3"/>
<path d="M274.31 245.59H259.87V260.03H274.31V245.59Z" fill="#350B75"/>
<path d="M274.31 216.73H259.87V231.16H274.31V216.73Z" fill="#350B75"/>
<path d="M274.31 202.3H259.87V216.73H274.31V202.3Z" fill="#FFCDF3"/>
<path d="M274.31 187.87H259.87V202.3H274.31V187.87Z" fill="#FFCDF3"/>
<path d="M274.31 173.43H259.87V187.87H274.31V173.43Z" fill="#FFCDF3"/>
<path d="M274.31 159H259.87V173.43H274.31V159Z" fill="#350B75"/>
<path d="M259.87 563.06H245.44V577.49H259.87V563.06Z" fill="#350B75"/>
<path d="M259.87 548.63H245.44V563.06H259.87V548.63Z" fill="#E6007E"/>
<path d="M259.87 534.2H245.44V548.64H259.87V534.2Z" fill="#E6007E"/>
<path d="M259.87 519.77H245.44V534.2H259.87V519.77Z" fill="#350B75"/>
<path d="M259.87 418.76H245.44V433.19H259.87V418.76Z" fill="#350B75"/>
<path d="M259.87 404.33H245.44V418.76H259.87V404.33Z" fill="#FFCDF3"/>
<path d="M259.87 389.89H245.44V404.33H259.87V389.89Z" fill="#FFCDF3"/>
<path d="M259.87 375.46H245.44V389.89H259.87V375.46Z" fill="#350B75"/>
<path d="M259.87 346.6H245.44V361.03H259.87V346.6Z" fill="#350B75"/>
<path d="M259.87 332.17H245.44V346.6H259.87V332.17Z" fill="#E6007E"/>
<path d="M259.87 317.74H245.44V332.18H259.87V317.74Z" fill="#E6007E"/>
<path d="M259.87 303.31H245.44V317.74H259.87V303.31Z" fill="#350B75"/>
<path d="M259.87 288.88H245.44V303.31H259.87V288.88Z" fill="#350B75"/>
<path d="M259.87 274.45H245.44V288.88H259.87V274.45Z" fill="#FF72F3"/>
<path d="M259.87 260.02H245.44V274.45H259.87V260.02Z" fill="#FF72F3"/>
<path d="M259.87 245.59H245.44V260.03H259.87V245.59Z" fill="#350B75"/>
<path d="M259.87 202.3H245.44V216.73H259.87V202.3Z" fill="#350B75"/>
<path d="M259.87 187.87H245.44V202.3H259.87V187.87Z" fill="#FFCDF3"/>
<path d="M259.87 173.43H245.44V187.87H259.87V173.43Z" fill="#FFCDF3"/>
<path d="M259.87 159H245.44V173.43H259.87V159Z" fill="#350B75"/>
<path d="M245.44 563.06H231.01V577.49H245.44V563.06Z" fill="#350B75"/>
<path d="M245.44 548.63H231.01V563.06H245.44V548.63Z" fill="#E6007E"/>
<path d="M245.44 534.2H231.01V548.64H245.44V534.2Z" fill="#E6007E"/>
<path d="M245.44 519.77H231.01V534.2H245.44V519.77Z" fill="#350B75"/>
<path d="M245.44 418.76H231.01V433.19H245.44V418.76Z" fill="#350B75"/>
<path d="M245.44 404.33H231.01V418.76H245.44V404.33Z" fill="#FFCDF3"/>
<path d="M245.44 389.89H231.01V404.33H245.44V389.89Z" fill="#FFCDF3"/>
<path d="M245.44 375.46H231.01V389.89H245.44V375.46Z" fill="#350B75"/>
<path d="M245.44 346.6H231.01V361.03H245.44V346.6Z" fill="#350B75"/>
<path d="M245.44 332.17H231.01V346.6H245.44V332.17Z" fill="#E6007E"/>
<path d="M245.44 317.74H231.01V332.18H245.44V317.74Z" fill="#E6007E"/>
<path d="M245.44 303.31H231.01V317.74H245.44V303.31Z" fill="#350B75"/>
<path d="M245.44 288.88H231.01V303.31H245.44V288.88Z" fill="#350B75"/>
<path d="M245.44 274.45H231.01V288.88H245.44V274.45Z" fill="#FF72F3"/>
<path d="M245.44 260.02H231.01V274.45H245.44V260.02Z" fill="#FF72F3"/>
<path d="M245.44 245.59H231.01V260.03H245.44V245.59Z" fill="#350B75"/>
<path d="M245.44 202.3H231.01V216.73H245.44V202.3Z" fill="#350B75"/>
<path d="M245.44 187.87H231.01V202.3H245.44V187.87Z" fill="#FFCDF3"/>
<path d="M245.44 173.43H231.01V187.87H245.44V173.43Z" fill="#FFCDF3"/>
<path d="M245.44 159H231.01V173.43H245.44V159Z" fill="#350B75"/>
<path d="M231.01 563.06H216.58V577.49H231.01V563.06Z" fill="#350B75"/>
<path d="M231.01 548.63H216.58V563.06H231.01V548.63Z" fill="#E6007E"/>
<path d="M231.01 534.2H216.58V548.64H231.01V534.2Z" fill="#E6007E"/>
<path d="M231.01 519.77H216.58V534.2H231.01V519.77Z" fill="#350B75"/>
<path d="M231.01 418.76H216.58V433.19H231.01V418.76Z" fill="#350B75"/>
<path d="M231.01 404.33H216.58V418.76H231.01V404.33Z" fill="#FFCDF3"/>
<path d="M231.01 389.89H216.58V404.33H231.01V389.89Z" fill="#FFCDF3"/>
<path d="M231.01 375.46H216.58V389.89H231.01V375.46Z" fill="#350B75"/>
<path d="M231.01 346.6H216.58V361.03H231.01V346.6Z" fill="#350B75"/>
<path d="M231.01 332.17H216.58V346.6H231.01V332.17Z" fill="#E6007E"/>
<path d="M231.01 317.74H216.58V332.18H231.01V317.74Z" fill="#E6007E"/>
<path d="M231.01 303.31H216.58V317.74H231.01V303.31Z" fill="#350B75"/>
<path d="M231.01 274.45H216.58V288.88H231.01V274.45Z" fill="#350B75"/>
<path d="M231.01 260.02H216.58V274.45H231.01V260.02Z" fill="#350B75"/>
<path d="M231.01 202.3H216.58V216.73H231.01V202.3Z" fill="#350B75"/>
<path d="M231.01 187.87H216.58V202.3H231.01V187.87Z" fill="#FFCDF3"/>
<path d="M231.01 173.43H216.58V187.87H231.01V173.43Z" fill="#FFCDF3"/>
<path d="M231.01 159H216.58V173.43H231.01V159Z" fill="#350B75"/>
<path d="M216.58 563.06H202.15V577.49H216.58V563.06Z" fill="#350B75"/>
<path d="M216.58 548.63H202.15V563.06H216.58V548.63Z" fill="#E6007E"/>
<path d="M216.58 534.2H202.15V548.64H216.58V534.2Z" fill="#E6007E"/>
<path d="M216.58 519.77H202.15V534.2H216.58V519.77Z" fill="#350B75"/>
<path d="M216.58 418.76H202.15V433.19H216.58V418.76Z" fill="#350B75"/>
<path d="M216.58 404.33H202.15V418.76H216.58V404.33Z" fill="#FFCDF3"/>
<path d="M216.58 389.89H202.15V404.33H216.58V389.89Z" fill="#FFCDF3"/>
<path d="M216.58 375.46H202.15V389.89H216.58V375.46Z" fill="#350B75"/>
<path d="M216.58 346.6H202.15V361.03H216.58V346.6Z" fill="#350B75"/>
<path d="M216.58 332.17H202.15V346.6H216.58V332.17Z" fill="#E6007E"/>
<path d="M216.58 317.74H202.15V332.18H216.58V317.74Z" fill="#E6007E"/>
<path d="M216.58 303.31H202.15V317.74H216.58V303.31Z" fill="#350B75"/>
<path d="M216.58 202.3H202.15V216.73H216.58V202.3Z" fill="#350B75"/>
<path d="M216.58 187.87H202.15V202.3H216.58V187.87Z" fill="#FFCDF3"/>
<path d="M216.58 173.43H202.15V187.87H216.58V173.43Z" fill="#FFCDF3"/>
<path d="M216.58 159H202.15V173.43H216.58V159Z" fill="#350B75"/>
<path d="M202.16 563.06H187.72V577.49H202.16V563.06Z" fill="#350B75"/>
<path d="M202.16 548.63H187.72V563.06H202.16V548.63Z" fill="#E6007E"/>
<path d="M202.16 534.2H187.72V548.64H202.16V534.2Z" fill="#E6007E"/>
<path d="M202.16 519.77H187.72V534.2H202.16V519.77Z" fill="#350B75"/>
<path d="M202.16 418.76H187.72V433.19H202.16V418.76Z" fill="#350B75"/>
<path d="M202.16 404.33H187.72V418.76H202.16V404.33Z" fill="#FFCDF3"/>
<path d="M202.16 389.89H187.72V404.33H202.16V389.89Z" fill="#FFCDF3"/>
<path d="M202.16 375.46H187.72V389.89H202.16V375.46Z" fill="#350B75"/>
<path d="M202.16 346.6H187.72V361.03H202.16V346.6Z" fill="#350B75"/>
<path d="M202.16 332.17H187.72V346.6H202.16V332.17Z" fill="#E6007E"/>
<path d="M202.16 317.74H187.72V332.18H202.16V317.74Z" fill="#E6007E"/>
<path d="M202.16 303.31H187.72V317.74H202.16V303.31Z" fill="#350B75"/>
<path d="M202.16 202.3H187.72V216.73H202.16V202.3Z" fill="#350B75"/>
<path d="M202.16 187.87H187.72V202.3H202.16V187.87Z" fill="#FFCDF3"/>
<path d="M202.16 173.43H187.72V187.87H202.16V173.43Z" fill="#FFCDF3"/>
<path d="M202.16 159H187.72V173.43H202.16V159Z" fill="#350B75"/>
<path d="M187.72 563.06H173.29V577.49H187.72V563.06Z" fill="#350B75"/>
<path d="M187.72 548.63H173.29V563.06H187.72V548.63Z" fill="#E6007E"/>
<path d="M187.72 534.2H173.29V548.64H187.72V534.2Z" fill="#E6007E"/>
<path d="M187.72 519.77H173.29V534.2H187.72V519.77Z" fill="#E6007E"/>
<path d="M187.72 505.34H173.29V519.77H187.72V505.34Z" fill="#350B75"/>
<path d="M187.72 490.91H173.29V505.34H187.72V490.91Z" fill="#350B75"/>
<path d="M187.72 476.48H173.29V490.91H187.72V476.48Z" fill="#350B75"/>
<path d="M187.72 462.04H173.29V476.48H187.72V462.04Z" fill="#350B75"/>
<path d="M187.72 447.61H173.29V462.04H187.72V447.61Z" fill="#350B75"/>
<path d="M187.72 433.19H173.29V447.62H187.72V433.19Z" fill="#350B75"/>
<path d="M187.72 418.76H173.29V433.19H187.72V418.76Z" fill="#FFCDF3"/>
<path d="M187.72 404.33H173.29V418.76H187.72V404.33Z" fill="#FFCDF3"/>
<path d="M187.72 389.89H173.29V404.33H187.72V389.89Z" fill="#FFCDF3"/>
<path d="M187.72 375.46H173.29V389.89H187.72V375.46Z" fill="#350B75"/>
<path d="M187.72 346.6H173.29V361.03H187.72V346.6Z" fill="#350B75"/>
<path d="M187.72 332.17H173.29V346.6H187.72V332.17Z" fill="#E6007E"/>
<path d="M187.72 317.74H173.29V332.18H187.72V317.74Z" fill="#E6007E"/>
<path d="M187.72 303.31H173.29V317.74H187.72V303.31Z" fill="#E6007E"/>
<path d="M187.72 288.88H173.29V303.31H187.72V288.88Z" fill="#350B75"/>
<path d="M187.72 274.45H173.29V288.88H187.72V274.45Z" fill="#350B75"/>
<path d="M187.72 260.02H173.29V274.45H187.72V260.02Z" fill="#350B75"/>
<path d="M187.72 245.59H173.29V260.03H187.72V245.59Z" fill="#350B75"/>
<path d="M187.72 231.16H173.29V245.59H187.72V231.16Z" fill="#350B75"/>
<path d="M187.72 216.73H173.29V231.16H187.72V216.73Z" fill="#350B75"/>
<path d="M187.72 202.3H173.29V216.73H187.72V202.3Z" fill="#FFCDF3"/>
<path d="M187.72 187.87H173.29V202.3H187.72V187.87Z" fill="#FFCDF3"/>
<path d="M187.72 173.43H173.29V187.87H187.72V173.43Z" fill="#FFCDF3"/>
<path d="M187.72 159H173.29V173.43H187.72V159Z" fill="#350B75"/>
<path d="M173.29 548.63H158.86V563.06H173.29V548.63Z" fill="#350B75"/>
<path d="M173.29 534.2H158.86V548.64H173.29V534.2Z" fill="#E6007E"/>
<path d="M173.29 519.77H158.86V534.2H173.29V519.77Z" fill="#E6007E"/>
<path d="M173.29 505.34H158.86V519.77H173.29V505.34Z" fill="#E6007E"/>
<path d="M173.29 490.91H158.86V505.34H173.29V490.91Z" fill="#FF72F3"/>
<path d="M173.29 476.48H158.86V490.91H173.29V476.48Z" fill="#FF72F3"/>
<path d="M173.29 462.04H158.86V476.48H173.29V462.04Z" fill="#FF72F3"/>
<path d="M173.29 447.61H158.86V462.04H173.29V447.61Z" fill="#FF72F3"/>
<path d="M173.29 433.19H158.86V447.62H173.29V433.19Z" fill="#FFCDF3"/>
<path d="M173.29 418.76H158.86V433.19H173.29V418.76Z" fill="#FFCDF3"/>
<path d="M173.29 404.33H158.86V418.76H173.29V404.33Z" fill="#FFCDF3"/>
<path d="M173.29 389.89H158.86V404.33H173.29V389.89Z" fill="#350B75"/>
<path d="M173.29 332.17H158.86V346.6H173.29V332.17Z" fill="#350B75"/>
<path d="M173.29 317.74H158.86V332.18H173.29V317.74Z" fill="#E6007E"/>
<path d="M173.29 303.31H158.86V317.74H173.29V303.31Z" fill="#E6007E"/>
<path d="M173.29 288.88H158.86V303.31H173.29V288.88Z" fill="#E6007E"/>
<path d="M173.29 274.45H158.86V288.88H173.29V274.45Z" fill="#FF72F3"/>
<path d="M173.29 260.02H158.86V274.45H173.29V260.02Z" fill="#FF72F3"/>
<path d="M173.29 245.59H158.86V260.03H173.29V245.59Z" fill="#FF72F3"/>
<path d="M173.29 231.16H158.86V245.59H173.29V231.16Z" fill="#FF72F3"/>
<path d="M173.29 216.73H158.86V231.16H173.29V216.73Z" fill="#FFCDF3"/>
<path d="M173.29 202.3H158.86V216.73H173.29V202.3Z" fill="#FFCDF3"/>
<path d="M173.29 187.87H158.86V202.3H173.29V187.87Z" fill="#FFCDF3"/>
<path d="M173.29 173.43H158.86V187.87H173.29V173.43Z" fill="#350B75"/>
<path d="M158.86 534.2H144.43V548.64H158.86V534.2Z" fill="#350B75"/>
<path d="M158.86 519.77H144.43V534.2H158.86V519.77Z" fill="#E6007E"/>
<path d="M158.86 505.34H144.43V519.77H158.86V505.34Z" fill="#E6007E"/>
<path d="M158.86 490.91H144.43V505.34H158.86V490.91Z" fill="#FF72F3"/>
<path d="M158.86 476.48H144.43V490.91H158.86V476.48Z" fill="#FF72F3"/>
<path d="M158.86 462.04H144.43V476.48H158.86V462.04Z" fill="#FF72F3"/>
<path d="M158.86 447.61H144.43V462.04H158.86V447.61Z" fill="#FF72F3"/>
<path d="M158.86 433.19H144.43V447.62H158.86V433.19Z" fill="#FFCDF3"/>
<path d="M158.86 418.76H144.43V433.19H158.86V418.76Z" fill="#FFCDF3"/>
<path d="M158.86 404.33H144.43V418.76H158.86V404.33Z" fill="#350B75"/>
<path d="M158.86 317.74H144.43V332.18H158.86V317.74Z" fill="#350B75"/>
<path d="M158.86 303.31H144.43V317.74H158.86V303.31Z" fill="#E6007E"/>
<path d="M158.86 288.88H144.43V303.31H158.86V288.88Z" fill="#E6007E"/>
<path d="M158.86 274.45H144.43V288.88H158.86V274.45Z" fill="#FF72F3"/>
<path d="M158.86 260.02H144.43V274.45H158.86V260.02Z" fill="#FF72F3"/>
<path d="M158.86 245.59H144.43V260.03H158.86V245.59Z" fill="#FF72F3"/>
<path d="M158.86 231.16H144.43V245.59H158.86V231.16Z" fill="#FF72F3"/>
<path d="M158.86 216.73H144.43V231.16H158.86V216.73Z" fill="#FFCDF3"/>
<path d="M158.86 202.3H144.43V216.73H158.86V202.3Z" fill="#FFCDF3"/>
<path d="M158.86 187.87H144.43V202.3H158.86V187.87Z" fill="#350B75"/>
<path d="M144.43 519.77H130V534.2H144.43V519.77Z" fill="#350B75"/>
<path d="M144.43 505.34H130V519.77H144.43V505.34Z" fill="#350B75"/>
<path d="M144.43 490.91H130V505.34H144.43V490.91Z" fill="#350B75"/>
<path d="M144.43 476.48H130V490.91H144.43V476.48Z" fill="#350B75"/>
<path d="M144.43 462.04H130V476.48H144.43V462.04Z" fill="#350B75"/>
<path d="M144.43 447.61H130V462.04H144.43V447.61Z" fill="#350B75"/>
<path d="M144.43 433.19H130V447.62H144.43V433.19Z" fill="#350B75"/>
<path d="M144.43 418.76H130V433.19H144.43V418.76Z" fill="#350B75"/>
<path d="M144.43 303.31H130V317.74H144.43V303.31Z" fill="#350B75"/>
<path d="M144.43 288.88H130V303.31H144.43V288.88Z" fill="#350B75"/>
<path d="M144.43 274.45H130V288.88H144.43V274.45Z" fill="#350B75"/>
<path d="M144.43 260.02H130V274.45H144.43V260.02Z" fill="#350B75"/>
<path d="M144.43 245.59H130V260.03H144.43V245.59Z" fill="#350B75"/>
<path d="M144.43 231.16H130V245.59H144.43V231.16Z" fill="#350B75"/>
<path d="M144.43 216.73H130V231.16H144.43V216.73Z" fill="#350B75"/>
<path d="M144.43 202.3H130V216.73H144.43V202.3Z" fill="#350B75"/>
<path d="M101.01 634.89H86.5801V649.32H101.01V634.89Z" fill="#FEDA83"/>
<path d="M72.1599 649.32H57.7197V663.75H72.1599V649.32Z" fill="#FEDA83"/>
<path d="M72.1599 634.89H57.7197V649.32H72.1599V634.89Z" fill="#FEA169"/>
<path d="M72.1599 620.46H57.7197V634.89H72.1599V620.46Z" fill="#FEDA83"/>
<path d="M57.72 678.18H43.29V692.62H57.72V678.18Z" fill="#FEDA83"/>
<path d="M57.72 649.32H43.29V663.75H57.72V649.32Z" fill="#FEA169"/>
<path d="M57.72 620.46H43.29V634.89H57.72V620.46Z" fill="#FEA169"/>
<path d="M57.72 591.6H43.29V606.04H57.72V591.6Z" fill="#FEDA83"/>
<path d="M43.2903 649.32H28.8604V663.75H43.2903V649.32Z" fill="#FEDA83"/>
<path d="M43.2903 634.89H28.8604V649.32H43.2903V634.89Z" fill="#FEA169"/>
<path d="M43.2903 620.46H28.8604V634.89H43.2903V620.46Z" fill="#FEDA83"/>
<path d="M14.4301 634.89H0V649.32H14.4301V634.89Z" fill="#FEDA83"/>
<path d="M144.29 129.88H129.86V144.31H144.29V129.88Z" fill="#FEA169"/>
<path d="M129.86 144.31H115.43V158.74H129.86V144.31Z" fill="#FEA169"/>
<path d="M129.86 129.88H115.43V144.31H129.86V129.88Z" fill="#FEDA83"/>
<path d="M129.86 115.45H115.43V129.88H129.86V115.45Z" fill="#FEA169"/>
<path d="M115.43 158.74H101V173.17H115.43V158.74Z" fill="#FEA169"/>
<path d="M115.43 144.31H101V158.74H115.43V144.31Z" fill="#FEDA83"/>
<path d="M115.43 129.88H101V144.31H115.43V129.88Z" fill="#FEDA83"/>
<path d="M115.43 115.45H101V129.88H115.43V115.45Z" fill="#FEDA83"/>
<path d="M115.43 101.01H101V115.45H115.43V101.01Z" fill="#FEA169"/>
<path d="M101.01 144.31H86.5703V158.74H101.01V144.31Z" fill="#FEA169"/>
<path d="M101.01 129.88H86.5703V144.31H101.01V129.88Z" fill="#FEDA83"/>
<path d="M101.01 115.45H86.5703V129.88H101.01V115.45Z" fill="#FEA169"/>
<path d="M86.5701 129.88H72.1401V144.31H86.5701V129.88Z" fill="#FEA169"/>
<path d="M764.74 682.61H750.31V697.04H764.74V682.61Z" fill="#FEA169"/>
<path d="M750.31 697.04H735.88V711.47H750.31V697.04Z" fill="#FEA169"/>
<path d="M750.31 682.61H735.88V697.04H750.31V682.61Z" fill="#FEDA83"/>
<path d="M750.31 668.18H735.88V682.61H750.31V668.18Z" fill="#FEA169"/>
<path d="M735.879 711.47H721.449V725.9H735.879V711.47Z" fill="#FEA169"/>
<path d="M735.879 697.04H721.449V711.47H735.879V697.04Z" fill="#FEDA83"/>
<path d="M735.879 682.61H721.449V697.04H735.879V682.61Z" fill="#FEDA83"/>
<path d="M735.879 668.18H721.449V682.61H735.879V668.18Z" fill="#FEDA83"/>
<path d="M735.879 653.74H721.449V668.18H735.879V653.74Z" fill="#FEA169"/>
<path d="M721.459 697.04H707.02V711.47H721.459V697.04Z" fill="#FEA169"/>
<path d="M721.459 682.61H707.02V697.04H721.459V682.61Z" fill="#FEDA83"/>
<path d="M721.459 668.18H707.02V682.61H721.459V668.18Z" fill="#FEA169"/>
<path d="M707.02 682.61H692.59V697.04H707.02V682.61Z" fill="#FEA169"/>
<path d="M562.731 43.3H548.301V57.73H562.731V43.3Z" fill="#FEDA83"/>
<path d="M548.311 43.3H533.881V57.73H548.311V43.3Z" fill="#FEA169"/>
<path d="M533.88 86.5801H519.45V101.02H533.88V86.5801Z" fill="#FEDA83"/>
<path d="M533.88 72.1599H519.45V86.5899H533.88V72.1599Z" fill="#FEDA83"/>
<path d="M533.88 57.73H519.45V72.16H533.88V57.73Z" fill="#FEA169"/>
<path d="M533.88 28.8701H519.45V43.3001H533.88V28.8701Z" fill="#FEA169"/>
<path d="M533.88 14.4299H519.45V28.8699H533.88V14.4299Z" fill="#FEDA83"/>
<path d="M533.88 0H519.45V14.43H533.88V0Z" fill="#FEDA83"/>
<path d="M519.451 43.3H505.011V57.73H519.451V43.3Z" fill="#FEA169"/>
<path d="M505.01 43.3H490.581V57.73H505.01V43.3Z" fill="#FEDA83"/>
<path d="M881.15 490.3H866.72V504.73H881.15V490.3Z" fill="#FEDA83"/>
<path d="M866.73 490.3H852.3V504.73H866.73V490.3Z" fill="#FEA169"/>
<path d="M852.3 533.58H837.87V548.02H852.3V533.58Z" fill="#FEDA83"/>
<path d="M852.3 519.16H837.87V533.59H852.3V519.16Z" fill="#FEDA83"/>
<path d="M852.3 504.73H837.87V519.16H852.3V504.73Z" fill="#FEA169"/>
<path d="M852.3 475.87H837.87V490.3H852.3V475.87Z" fill="#FEA169"/>
<path d="M852.3 461.43H837.87V475.87H852.3V461.43Z" fill="#FEDA83"/>
<path d="M852.3 447H837.87V461.43H852.3V447Z" fill="#FEDA83"/>
<path d="M837.87 490.3H823.43V504.73H837.87V490.3Z" fill="#FEA169"/>
<path d="M823.43 490.3H809V504.73H823.43V490.3Z" fill="#FEDA83"/>
<path d="M64.2903 375.16H49.8604V389.59H64.2903V375.16Z" fill="#FEA169"/>
<path d="M49.8599 389.59H35.4297V404.02H49.8599V389.59Z" fill="#FEA169"/>
<path d="M49.8599 375.16H35.4297V389.59H49.8599V375.16Z" fill="#FEDA83"/>
<path d="M49.8599 360.73H35.4297V375.16H49.8599V360.73Z" fill="#FEA169"/>
<path d="M35.4299 375.16H21V389.59H35.4299V375.16Z" fill="#FEA169"/>
<path d="M418.441 647.03H404.011V661.46H418.441V647.03Z" fill="#FEA169"/>
<path d="M404.021 661.46H389.591V675.89H404.021V661.46Z" fill="#FEA169"/>
<path d="M404.021 647.03H389.591V661.46H404.021V647.03Z" fill="#FEDA83"/>
<path d="M404.021 632.6H389.591V647.03H404.021V632.6Z" fill="#FEA169"/>
<path d="M389.591 647.03H375.161V661.46H389.591V647.03Z" fill="#FEA169"/>
<path d="M634.879 101.01H620.449V115.44H634.879V101.01Z" fill="#FEA169"/>
<path d="M620.449 115.44H606.02V129.87H620.449V115.44Z" fill="#FEA169"/>
<path d="M620.449 101.01H606.02V115.44H620.449V101.01Z" fill="#FEDA83"/>
<path d="M620.449 86.5801H606.02V101.01H620.449V86.5801Z" fill="#FEA169"/>
<path d="M606.02 101.01H591.59V115.44H606.02V101.01Z" fill="#FEA169"/>
<path d="M910.29 302.43H895.859V316.86H910.29V302.43Z" fill="#FEA169"/>
<path d="M895.86 316.86H881.43V331.29H895.86V316.86Z" fill="#FEA169"/>
<path d="M895.86 302.43H881.43V316.86H895.86V302.43Z" fill="#FEDA83"/>
<path d="M895.86 288H881.43V302.43H895.86V288Z" fill="#FEA169"/>
<path d="M881.43 302.43H867V316.86H881.43V302.43Z" fill="#FEA169"/>
<path d="M129.86 707.03H115.43V721.46H129.86V707.03Z" fill="#FEDA83"/>
<path d="M360.73 663.74H346.3V678.17H360.73V663.74Z" fill="#FEDA83"/>
<path d="M101.01 432.88H86.5801V447.31H101.01V432.88Z" fill="#FEDA83"/>
<path d="M86.5803 317.45H72.1504V331.88H86.5803V317.45Z" fill="#FEDA83"/>
<path d="M533.88 721.46H519.45V735.89H533.88V721.46Z" fill="#FEDA83"/>
<path d="M562.73 663.74H548.3V678.17H562.73V663.74Z" fill="#FEDA83"/>
<path d="M562.73 115.44H548.3V129.87H562.73V115.44Z" fill="#FEDA83"/>
</svg>
