<svg width="361" height="468" viewBox="0 0 361 468" fill="none" xmlns="http://www.w3.org/2000/svg">
<g clip-path="url(#clip0_745_8620)">
<path d="M127.014 447.696V401.823H106.722V361.215H86.4294V320.606H66.1372V274.734H40.8346V254.43H20.5425V213.821H66.3877V234.125H86.6799V295.289H106.972V20.3042H147.556V213.57H167.849V127.089H213.694V213.57H233.986V147.394H274.57V233.875H294.862V167.698H320.165V193.015H340.457V340.66H320.165V401.823H294.862V447.696H127.014Z" fill="#FEFEFE"/>
<path d="M106.722 468V401.823H86.4295V361.215H66.1374V320.606H40.8348V274.734H20.5426V254.43H0.250488V193.266H66.3879V213.57H86.6801V20.3042H106.972V0H147.557V20.3042H167.849V106.785H213.694V127.089H274.821V147.394H320.666V167.698H340.958V193.016H361.25V340.66H340.958V401.823H320.666V468H106.722ZM294.863 447.696V401.823H320.165V340.66H340.457V193.016H320.165V167.698H294.863V233.875H274.57V147.394H233.986V213.57H213.694V127.089H167.849V213.57H147.557V20.3042H106.972V295.038H86.6801V233.875H66.3879V213.57H20.2921V254.179H40.5843V274.483H65.8869V320.356H86.179V360.964H106.471V401.573H126.763V447.445H294.612L294.863 447.696Z" fill="black"/>
</g>
<defs>
<clipPath id="clip0_745_8620">
<rect width="361" height="468" fill="white"/>
</clipPath>
</defs>
</svg>
