<svg width="1169" height="376" viewBox="0 0 1169 376" fill="none" xmlns="http://www.w3.org/2000/svg">
<path d="M1168.87 129.88H1154.44V144.31H1168.87V129.88Z" fill="#FEA169"/>
<path d="M1154.44 144.31H1140.01V158.74H1154.44V144.31Z" fill="#FEA169"/>
<path d="M1154.44 129.88H1140.01V144.31H1154.44V129.88Z" fill="#FEDA83"/>
<path d="M1154.44 115.45H1140.01V129.88H1154.44V115.45Z" fill="#FEA169"/>
<path d="M1140.01 129.88H1125.58V144.31H1140.01V129.88Z" fill="#FEA169"/>
<path d="M1125.58 245.33H1111.15V259.76H1125.58V245.33Z" fill="#E94E1B"/>
<path d="M1111.16 259.76H1096.72V274.19H1111.16V259.76Z" fill="#E94E1B"/>
<path d="M1111.16 245.33H1096.72V259.76H1111.16V245.33Z" fill="#FEA169"/>
<path d="M1111.16 230.89H1096.72V245.33H1111.16V230.89Z" fill="#E94E1B"/>
<path d="M1111.16 173.17H1096.72V187.6H1111.16V173.17Z" fill="#FEDA83"/>
<path d="M1096.72 245.33H1082.29V259.76H1096.72V245.33Z" fill="#E94E1B"/>
<path d="M1067.86 303.04H1053.43V317.47H1067.86V303.04Z" fill="#350B75"/>
<path d="M1067.86 288.61H1053.43V303.04H1067.86V288.61Z" fill="#350B75"/>
<path d="M1067.86 274.18H1053.43V288.61H1067.86V274.18Z" fill="#350B75"/>
<path d="M1067.86 259.76H1053.43V274.19H1067.86V259.76Z" fill="#350B75"/>
<path d="M1067.86 245.33H1053.43V259.76H1067.86V245.33Z" fill="#350B75"/>
<path d="M1067.86 230.89H1053.43V245.33H1067.86V230.89Z" fill="#350B75"/>
<path d="M1067.86 216.46H1053.43V230.89H1067.86V216.46Z" fill="#350B75"/>
<path d="M1067.86 202.03H1053.43V216.46H1067.86V202.03Z" fill="#350B75"/>
<path d="M1067.86 187.6H1053.43V202.03H1067.86V187.6Z" fill="#350B75"/>
<path d="M1067.86 173.17H1053.43V187.6H1067.86V173.17Z" fill="#350B75"/>
<path d="M1067.86 158.74H1053.43V173.18H1067.86V158.74Z" fill="#350B75"/>
<path d="M1067.86 144.31H1053.43V158.74H1067.86V144.31Z" fill="#350B75"/>
<path d="M1154.44 72.1501H1140.01V86.5801H1154.44V72.1501Z" fill="#FEA169"/>
<path d="M1140.01 72.1501H1125.58V86.5801H1140.01V72.1501Z" fill="#FEDA83"/>
<path d="M1125.58 86.5801H1111.15V101.02H1125.58V86.5801Z" fill="#FEDA83"/>
<path d="M1125.58 72.1501H1111.15V86.5801H1125.58V72.1501Z" fill="#FEA169"/>
<path d="M1125.58 57.73H1111.15V72.16H1125.58V57.73Z" fill="#FEDA83"/>
<path d="M1111.16 115.45H1096.72V129.88H1111.16V115.45Z" fill="#FEA169"/>
<path d="M1111.16 101.02H1096.72V115.45H1111.16V101.02Z" fill="#FEDA83"/>
<path d="M1111.16 86.5801H1096.72V101.02H1111.16V86.5801Z" fill="#FEA169"/>
<path d="M1111.16 72.1501H1096.72V86.5801H1111.16V72.1501Z" fill="#E94E1B"/>
<path d="M1111.16 57.73H1096.72V72.16H1111.16V57.73Z" fill="#FEA169"/>
<path d="M1111.16 43.3H1096.72V57.73H1111.16V43.3Z" fill="#FEDA83"/>
<path d="M1111.16 28.8701H1096.72V43.3001H1111.16V28.8701Z" fill="#FEA169"/>
<path d="M1096.72 86.5801H1082.29V101.02H1096.72V86.5801Z" fill="#FEDA83"/>
<path d="M1096.72 72.1501H1082.29V86.5801H1096.72V72.1501Z" fill="#FEA169"/>
<path d="M1096.72 57.73H1082.29V72.16H1096.72V57.73Z" fill="#FEDA83"/>
<path d="M1082.29 72.1501H1067.86V86.5801H1082.29V72.1501Z" fill="#FEDA83"/>
<path d="M1067.86 72.1501H1053.43V86.5801H1067.86V72.1501Z" fill="#FEA169"/>
<path d="M1053.43 317.47H1039V331.91H1053.43V317.47Z" fill="#350B75"/>
<path d="M1053.43 303.04H1039V317.47H1053.43V303.04Z" fill="#EA5B0C"/>
<path d="M1053.43 288.61H1039V303.04H1053.43V288.61Z" fill="#EA5B0C"/>
<path d="M1053.43 274.18H1039V288.61H1053.43V274.18Z" fill="#EA5B0C"/>
<path d="M1053.43 259.76H1039V274.19H1053.43V259.76Z" fill="#EA5B0C"/>
<path d="M1053.43 245.33H1039V259.76H1053.43V245.33Z" fill="#EA5B0C"/>
<path d="M1053.43 230.89H1039V245.33H1053.43V230.89Z" fill="#EA5B0C"/>
<path d="M1053.43 216.46H1039V230.89H1053.43V216.46Z" fill="#EA5B0C"/>
<path d="M1053.43 202.03H1039V216.46H1053.43V202.03Z" fill="#EA5B0C"/>
<path d="M1053.43 187.6H1039V202.03H1053.43V187.6Z" fill="#EA5B0C"/>
<path d="M1053.43 173.17H1039V187.6H1053.43V173.17Z" fill="#EA5B0C"/>
<path d="M1053.43 158.74H1039V173.18H1053.43V158.74Z" fill="#EA5B0C"/>
<path d="M1053.43 144.31H1039V158.74H1053.43V144.31Z" fill="#EA5B0C"/>
<path d="M1053.43 129.88H1039V144.31H1053.43V129.88Z" fill="#350B75"/>
<path d="M1039 317.47H1024.56V331.91H1039V317.47Z" fill="#350B75"/>
<path d="M1039 303.04H1024.56V317.47H1039V303.04Z" fill="#FEA169"/>
<path d="M1039 288.61H1024.56V303.04H1039V288.61Z" fill="#FEA169"/>
<path d="M1039 274.18H1024.56V288.61H1039V274.18Z" fill="#FEA169"/>
<path d="M1039 259.76H1024.56V274.19H1039V259.76Z" fill="#FEA169"/>
<path d="M1039 245.33H1024.56V259.76H1039V245.33Z" fill="#FEA169"/>
<path d="M1039 230.89H1024.56V245.33H1039V230.89Z" fill="#FEDA83"/>
<path d="M1039 216.46H1024.56V230.89H1039V216.46Z" fill="#FEA169"/>
<path d="M1039 202.03H1024.56V216.46H1039V202.03Z" fill="#FEDA83"/>
<path d="M1039 187.6H1024.56V202.03H1039V187.6Z" fill="#FEDA83"/>
<path d="M1039 173.17H1024.56V187.6H1039V173.17Z" fill="#FFFFBE"/>
<path d="M1039 158.74H1024.56V173.18H1039V158.74Z" fill="#FFFFBE"/>
<path d="M1039 144.31H1024.56V158.74H1039V144.31Z" fill="#FFFFBE"/>
<path d="M1039 129.88H1024.56V144.31H1039V129.88Z" fill="#EA5B0C"/>
<path d="M1039 115.45H1024.56V129.88H1039V115.45Z" fill="#350B75"/>
<path d="M1024.56 317.47H1010.13V331.91H1024.56V317.47Z" fill="#350B75"/>
<path d="M1024.56 303.04H1010.13V317.47H1024.56V303.04Z" fill="#FEA169"/>
<path d="M1024.56 288.61H1010.13V303.04H1024.56V288.61Z" fill="#FEA169"/>
<path d="M1024.56 274.18H1010.13V288.61H1024.56V274.18Z" fill="#FEA169"/>
<path d="M1024.56 259.76H1010.13V274.19H1024.56V259.76Z" fill="#FEA169"/>
<path d="M1024.56 245.33H1010.13V259.76H1024.56V245.33Z" fill="#FEA169"/>
<path d="M1024.56 230.89H1010.13V245.33H1024.56V230.89Z" fill="#FEDA83"/>
<path d="M1024.56 216.46H1010.13V230.89H1024.56V216.46Z" fill="#FEA169"/>
<path d="M1024.56 202.03H1010.13V216.46H1024.56V202.03Z" fill="#FEDA83"/>
<path d="M1024.56 187.6H1010.13V202.03H1024.56V187.6Z" fill="#FEDA83"/>
<path d="M1024.56 173.17H1010.13V187.6H1024.56V173.17Z" fill="#FEDA83"/>
<path d="M1024.56 158.74H1010.13V173.18H1024.56V158.74Z" fill="#FEDA83"/>
<path d="M1024.56 144.31H1010.13V158.74H1024.56V144.31Z" fill="#FFFFBE"/>
<path d="M1024.56 129.88H1010.13V144.31H1024.56V129.88Z" fill="#FFFFBE"/>
<path d="M1024.56 115.45H1010.13V129.88H1024.56V115.45Z" fill="#EA5B0C"/>
<path d="M1024.56 101.02H1010.13V115.45H1024.56V101.02Z" fill="#350B75"/>
<path d="M1024.56 14.4299H1010.13V28.8699H1024.56V14.4299Z" fill="#FEDA83"/>
<path d="M1010.14 303.04H995.71V317.47H1010.14V303.04Z" fill="#350B75"/>
<path d="M1010.14 288.61H995.71V303.04H1010.14V288.61Z" fill="#350B75"/>
<path d="M1010.14 274.18H995.71V288.61H1010.14V274.18Z" fill="#350B75"/>
<path d="M1010.14 259.76H995.71V274.19H1010.14V259.76Z" fill="#350B75"/>
<path d="M1010.14 245.33H995.71V259.76H1010.14V245.33Z" fill="#350B75"/>
<path d="M1010.14 230.89H995.71V245.33H1010.14V230.89Z" fill="#350B75"/>
<path d="M1010.14 216.46H995.71V230.89H1010.14V216.46Z" fill="#350B75"/>
<path d="M1010.14 202.03H995.71V216.46H1010.14V202.03Z" fill="#350B75"/>
<path d="M1010.14 187.6H995.71V202.03H1010.14V187.6Z" fill="#350B75"/>
<path d="M1010.14 173.17H995.71V187.6H1010.14V173.17Z" fill="#350B75"/>
<path d="M1010.14 158.74H995.71V173.18H1010.14V158.74Z" fill="#350B75"/>
<path d="M1010.14 144.31H995.71V158.74H1010.14V144.31Z" fill="#FEDA83"/>
<path d="M1010.14 129.88H995.71V144.31H1010.14V129.88Z" fill="#FFFFBE"/>
<path d="M1010.14 115.45H995.71V129.88H1010.14V115.45Z" fill="#FFFFBE"/>
<path d="M1010.14 101.02H995.71V115.45H1010.14V101.02Z" fill="#350B75"/>
<path d="M1010.14 28.8701H995.71V43.3001H1010.14V28.8701Z" fill="#FEDA83"/>
<path d="M1010.14 0H995.71V14.43H1010.14V0Z" fill="#FEDA83"/>
<path d="M995.71 158.74H981.28V173.18H995.71V158.74Z" fill="#350B75"/>
<path d="M995.71 144.31H981.28V158.74H995.71V144.31Z" fill="#EA5B0C"/>
<path d="M995.71 129.88H981.28V144.31H995.71V129.88Z" fill="#FEDA83"/>
<path d="M995.71 115.45H981.28V129.88H995.71V115.45Z" fill="#FFFFBE"/>
<path d="M995.71 101.02H981.28V115.45H995.71V101.02Z" fill="#350B75"/>
<path d="M995.71 14.4299H981.28V28.8699H995.71V14.4299Z" fill="#FEDA83"/>
<path d="M981.28 158.74H966.85V173.18H981.28V158.74Z" fill="#350B75"/>
<path d="M981.28 144.31H966.85V158.74H981.28V144.31Z" fill="#EA5B0C"/>
<path d="M981.28 129.88H966.85V144.31H981.28V129.88Z" fill="#FEDA83"/>
<path d="M981.28 115.45H966.85V129.88H981.28V115.45Z" fill="#FFFFBE"/>
<path d="M981.28 101.02H966.85V115.45H981.28V101.02Z" fill="#350B75"/>
<path d="M966.85 303.04H952.41V317.47H966.85V303.04Z" fill="#350B75"/>
<path d="M966.85 288.61H952.41V303.04H966.85V288.61Z" fill="#350B75"/>
<path d="M966.85 274.18H952.41V288.61H966.85V274.18Z" fill="#350B75"/>
<path d="M966.85 259.76H952.41V274.19H966.85V259.76Z" fill="#350B75"/>
<path d="M966.85 245.33H952.41V259.76H966.85V245.33Z" fill="#350B75"/>
<path d="M966.85 230.89H952.41V245.33H966.85V230.89Z" fill="#350B75"/>
<path d="M966.85 216.46H952.41V230.89H966.85V216.46Z" fill="#350B75"/>
<path d="M966.85 202.03H952.41V216.46H966.85V202.03Z" fill="#350B75"/>
<path d="M966.85 187.6H952.41V202.03H966.85V187.6Z" fill="#350B75"/>
<path d="M966.85 173.17H952.41V187.6H966.85V173.17Z" fill="#350B75"/>
<path d="M966.85 158.74H952.41V173.18H966.85V158.74Z" fill="#350B75"/>
<path d="M966.85 144.31H952.41V158.74H966.85V144.31Z" fill="#EA5B0C"/>
<path d="M966.85 129.88H952.41V144.31H966.85V129.88Z" fill="#FEDA83"/>
<path d="M966.85 115.45H952.41V129.88H966.85V115.45Z" fill="#FEDA83"/>
<path d="M966.85 101.02H952.41V115.45H966.85V101.02Z" fill="#350B75"/>
<path d="M952.41 317.47H937.98V331.91H952.41V317.47Z" fill="#350B75"/>
<path d="M952.41 303.04H937.98V317.47H952.41V303.04Z" fill="#EA5B0C"/>
<path d="M952.41 288.61H937.98V303.04H952.41V288.61Z" fill="#EA5B0C"/>
<path d="M952.41 274.18H937.98V288.61H952.41V274.18Z" fill="#EA5B0C"/>
<path d="M952.41 259.76H937.98V274.19H952.41V259.76Z" fill="#EA5B0C"/>
<path d="M952.41 245.33H937.98V259.76H952.41V245.33Z" fill="#EA5B0C"/>
<path d="M952.41 230.89H937.98V245.33H952.41V230.89Z" fill="#EA5B0C"/>
<path d="M952.41 216.46H937.98V230.89H952.41V216.46Z" fill="#EA5B0C"/>
<path d="M952.41 202.03H937.98V216.46H952.41V202.03Z" fill="#EA5B0C"/>
<path d="M952.41 187.6H937.98V202.03H952.41V187.6Z" fill="#EA5B0C"/>
<path d="M952.41 173.17H937.98V187.6H952.41V173.17Z" fill="#EA5B0C"/>
<path d="M952.41 158.74H937.98V173.18H952.41V158.74Z" fill="#EA5B0C"/>
<path d="M952.41 144.31H937.98V158.74H952.41V144.31Z" fill="#FEDA83"/>
<path d="M952.41 129.88H937.98V144.31H952.41V129.88Z" fill="#FEDA83"/>
<path d="M952.41 115.45H937.98V129.88H952.41V115.45Z" fill="#FEDA83"/>
<path d="M952.41 101.02H937.98V115.45H952.41V101.02Z" fill="#350B75"/>
<path d="M937.98 317.47H923.55V331.91H937.98V317.47Z" fill="#350B75"/>
<path d="M937.98 303.04H923.55V317.47H937.98V303.04Z" fill="#FEA169"/>
<path d="M937.98 288.61H923.55V303.04H937.98V288.61Z" fill="#FEA169"/>
<path d="M937.98 274.18H923.55V288.61H937.98V274.18Z" fill="#FEA169"/>
<path d="M937.98 259.76H923.55V274.19H937.98V259.76Z" fill="#FEA169"/>
<path d="M937.98 245.33H923.55V259.76H937.98V245.33Z" fill="#FEA169"/>
<path d="M937.98 230.89H923.55V245.33H937.98V230.89Z" fill="#FEDA83"/>
<path d="M937.98 216.46H923.55V230.89H937.98V216.46Z" fill="#FEA169"/>
<path d="M937.98 202.03H923.55V216.46H937.98V202.03Z" fill="#FEDA83"/>
<path d="M937.98 187.6H923.55V202.03H937.98V187.6Z" fill="#FEDA83"/>
<path d="M937.98 173.17H923.55V187.6H937.98V173.17Z" fill="#FEDA83"/>
<path d="M937.98 158.74H923.55V173.18H937.98V158.74Z" fill="#FEDA83"/>
<path d="M937.98 144.31H923.55V158.74H937.98V144.31Z" fill="#FEDA83"/>
<path d="M937.98 129.88H923.55V144.31H937.98V129.88Z" fill="#FEDA83"/>
<path d="M937.98 115.45H923.55V129.88H937.98V115.45Z" fill="#350B75"/>
<path d="M923.55 317.47H909.12V331.91H923.55V317.47Z" fill="#350B75"/>
<path d="M923.55 303.04H909.12V317.47H923.55V303.04Z" fill="#FEA169"/>
<path d="M923.55 288.61H909.12V303.04H923.55V288.61Z" fill="#FEA169"/>
<path d="M923.55 274.18H909.12V288.61H923.55V274.18Z" fill="#FEA169"/>
<path d="M923.55 259.76H909.12V274.19H923.55V259.76Z" fill="#FEA169"/>
<path d="M923.55 245.33H909.12V259.76H923.55V245.33Z" fill="#FEA169"/>
<path d="M923.55 230.89H909.12V245.33H923.55V230.89Z" fill="#FEDA83"/>
<path d="M923.55 216.46H909.12V230.89H923.55V216.46Z" fill="#FEA169"/>
<path d="M923.55 202.03H909.12V216.46H923.55V202.03Z" fill="#FEDA83"/>
<path d="M923.55 187.6H909.12V202.03H923.55V187.6Z" fill="#FEDA83"/>
<path d="M923.55 173.17H909.12V187.6H923.55V173.17Z" fill="#FEDA83"/>
<path d="M923.55 158.74H909.12V173.18H923.55V158.74Z" fill="#FEDA83"/>
<path d="M923.55 144.31H909.12V158.74H923.55V144.31Z" fill="#FEDA83"/>
<path d="M923.55 129.88H909.12V144.31H923.55V129.88Z" fill="#350B75"/>
<path d="M923.55 115.45H909.12V129.88H923.55V115.45Z" fill="#350B75"/>
<path d="M764.82 303.04H750.39V317.47H764.82V303.04Z" fill="#350B75"/>
<path d="M764.82 288.61H750.39V303.04H764.82V288.61Z" fill="#350B75"/>
<path d="M764.82 274.18H750.39V288.61H764.82V274.18Z" fill="#EA5B0C"/>
<path d="M764.82 259.76H750.39V274.19H764.82V259.76Z" fill="#EA5B0C"/>
<path d="M764.82 245.33H750.39V259.76H764.82V245.33Z" fill="#EA5B0C"/>
<path d="M764.82 230.89H750.39V245.33H764.82V230.89Z" fill="#EA5B0C"/>
<path d="M764.82 216.46H750.39V230.89H764.82V216.46Z" fill="#EA5B0C"/>
<path d="M764.82 202.03H750.39V216.46H764.82V202.03Z" fill="#EA5B0C"/>
<path d="M764.82 187.6H750.39V202.03H764.82V187.6Z" fill="#EA5B0C"/>
<path d="M764.82 173.17H750.39V187.6H764.82V173.17Z" fill="#EA5B0C"/>
<path d="M764.82 158.74H750.39V173.18H764.82V158.74Z" fill="#EA5B0C"/>
<path d="M764.82 144.31H750.39V158.74H764.82V144.31Z" fill="#EA5B0C"/>
<path d="M764.82 129.88H750.39V144.31H764.82V129.88Z" fill="#EA5B0C"/>
<path d="M764.82 115.45H750.39V129.88H764.82V115.45Z" fill="#EA5B0C"/>
<path d="M764.82 101.02H750.39V115.45H764.82V101.02Z" fill="#350B75"/>
<path d="M750.39 303.04H735.96V317.47H750.39V303.04Z" fill="#350B75"/>
<path d="M750.39 288.61H735.96V303.04H750.39V288.61Z" fill="#EA5B0C"/>
<path d="M750.39 274.18H735.96V288.61H750.39V274.18Z" fill="#FEA169"/>
<path d="M750.39 259.76H735.96V274.19H750.39V259.76Z" fill="#FEA169"/>
<path d="M750.39 245.33H735.96V259.76H750.39V245.33Z" fill="#FEA169"/>
<path d="M750.39 230.89H735.96V245.33H750.39V230.89Z" fill="#FEDA83"/>
<path d="M750.39 216.46H735.96V230.89H750.39V216.46Z" fill="#FEA169"/>
<path d="M750.39 202.03H735.96V216.46H750.39V202.03Z" fill="#FEDA83"/>
<path d="M750.39 187.6H735.96V202.03H750.39V187.6Z" fill="#FEDA83"/>
<path d="M750.39 173.17H735.96V187.6H750.39V173.17Z" fill="#FFFFBE"/>
<path d="M750.39 158.74H735.96V173.18H750.39V158.74Z" fill="#FFFFBE"/>
<path d="M750.39 144.31H735.96V158.74H750.39V144.31Z" fill="#FFFFBE"/>
<path d="M750.39 129.88H735.96V144.31H750.39V129.88Z" fill="#FFFFBE"/>
<path d="M750.39 115.45H735.96V129.88H750.39V115.45Z" fill="#FFFFBE"/>
<path d="M750.39 101.02H735.96V115.45H750.39V101.02Z" fill="#350B75"/>
<path d="M735.96 317.47H721.53V331.91H735.96V317.47Z" fill="#350B75"/>
<path d="M735.96 303.04H721.53V317.47H735.96V303.04Z" fill="#EA5B0C"/>
<path d="M735.96 288.61H721.53V303.04H735.96V288.61Z" fill="#FEA169"/>
<path d="M735.96 274.18H721.53V288.61H735.96V274.18Z" fill="#FEA169"/>
<path d="M735.96 259.76H721.53V274.19H735.96V259.76Z" fill="#FEA169"/>
<path d="M735.96 245.33H721.53V259.76H735.96V245.33Z" fill="#FEA169"/>
<path d="M735.96 230.89H721.53V245.33H735.96V230.89Z" fill="#FEDA83"/>
<path d="M735.96 216.46H721.53V230.89H735.96V216.46Z" fill="#FEA169"/>
<path d="M735.96 202.03H721.53V216.46H735.96V202.03Z" fill="#FEDA83"/>
<path d="M735.96 187.6H721.53V202.03H735.96V187.6Z" fill="#FEDA83"/>
<path d="M735.96 173.17H721.53V187.6H735.96V173.17Z" fill="#FEDA83"/>
<path d="M735.96 158.74H721.53V173.18H735.96V158.74Z" fill="#FEDA83"/>
<path d="M735.96 144.31H721.53V158.74H735.96V144.31Z" fill="#FEDA83"/>
<path d="M735.96 129.88H721.53V144.31H735.96V129.88Z" fill="#FFFFBE"/>
<path d="M735.96 115.45H721.53V129.88H735.96V115.45Z" fill="#FFFFBE"/>
<path d="M735.96 101.02H721.53V115.45H735.96V101.02Z" fill="#350B75"/>
<path d="M721.53 317.47H707.09V331.91H721.53V317.47Z" fill="#350B75"/>
<path d="M721.53 303.04H707.09V317.47H721.53V303.04Z" fill="#FEA169"/>
<path d="M721.53 288.61H707.09V303.04H721.53V288.61Z" fill="#FEA169"/>
<path d="M721.53 274.18H707.09V288.61H721.53V274.18Z" fill="#FEA169"/>
<path d="M721.53 259.76H707.09V274.19H721.53V259.76Z" fill="#350B75"/>
<path d="M721.53 245.33H707.09V259.76H721.53V245.33Z" fill="#350B75"/>
<path d="M721.53 230.89H707.09V245.33H721.53V230.89Z" fill="#350B75"/>
<path d="M721.53 216.46H707.09V230.89H721.53V216.46Z" fill="#350B75"/>
<path d="M721.53 202.03H707.09V216.46H721.53V202.03Z" fill="#350B75"/>
<path d="M721.53 187.6H707.09V202.03H721.53V187.6Z" fill="#350B75"/>
<path d="M721.53 173.17H707.09V187.6H721.53V173.17Z" fill="#350B75"/>
<path d="M721.53 158.74H707.09V173.18H721.53V158.74Z" fill="#350B75"/>
<path d="M721.53 144.31H707.09V158.74H721.53V144.31Z" fill="#350B75"/>
<path d="M721.53 129.88H707.09V144.31H721.53V129.88Z" fill="#350B75"/>
<path d="M721.53 115.45H707.09V129.88H721.53V115.45Z" fill="#350B75"/>
<path d="M707.1 317.47H692.67V331.91H707.1V317.47Z" fill="#350B75"/>
<path d="M707.1 303.04H692.67V317.47H707.1V303.04Z" fill="#FEA169"/>
<path d="M707.1 288.61H692.67V303.04H707.1V288.61Z" fill="#FEA169"/>
<path d="M707.1 274.18H692.67V288.61H707.1V274.18Z" fill="#EA5B0C"/>
<path d="M707.1 259.76H692.67V274.19H707.1V259.76Z" fill="#EA5B0C"/>
<path d="M707.1 245.33H692.67V259.76H707.1V245.33Z" fill="#350B75"/>
<path d="M692.67 317.47H678.24V331.91H692.67V317.47Z" fill="#350B75"/>
<path d="M692.67 303.04H678.24V317.47H692.67V303.04Z" fill="#FEA169"/>
<path d="M692.67 288.61H678.24V303.04H692.67V288.61Z" fill="#FEA169"/>
<path d="M692.67 274.18H678.24V288.61H692.67V274.18Z" fill="#FEA169"/>
<path d="M692.67 259.76H678.24V274.19H692.67V259.76Z" fill="#FEA169"/>
<path d="M692.67 245.33H678.24V259.76H692.67V245.33Z" fill="#EA5B0C"/>
<path d="M692.67 230.89H678.24V245.33H692.67V230.89Z" fill="#350B75"/>
<path d="M678.24 317.47H663.81V331.91H678.24V317.47Z" fill="#350B75"/>
<path d="M678.24 303.04H663.81V317.47H678.24V303.04Z" fill="#EA5B0C"/>
<path d="M678.24 288.61H663.81V303.04H678.24V288.61Z" fill="#EA5B0C"/>
<path d="M678.24 274.18H663.81V288.61H678.24V274.18Z" fill="#FEA169"/>
<path d="M678.24 259.76H663.81V274.19H678.24V259.76Z" fill="#FEA169"/>
<path d="M678.24 245.33H663.81V259.76H678.24V245.33Z" fill="#FEA169"/>
<path d="M678.24 230.89H663.81V245.33H678.24V230.89Z" fill="#350B75"/>
<path d="M663.81 317.47H649.38V331.91H663.81V317.47Z" fill="#350B75"/>
<path d="M663.81 303.04H649.38V317.47H663.81V303.04Z" fill="#FEA169"/>
<path d="M663.81 288.61H649.38V303.04H663.81V288.61Z" fill="#FEA169"/>
<path d="M663.81 274.18H649.38V288.61H663.81V274.18Z" fill="#FEA169"/>
<path d="M663.81 259.76H649.38V274.19H663.81V259.76Z" fill="#FEA169"/>
<path d="M663.81 245.33H649.38V259.76H663.81V245.33Z" fill="#350B75"/>
<path d="M649.38 317.47H634.95V331.91H649.38V317.47Z" fill="#350B75"/>
<path d="M649.38 303.04H634.95V317.47H649.38V303.04Z" fill="#FEA169"/>
<path d="M649.38 288.61H634.95V303.04H649.38V288.61Z" fill="#FEA169"/>
<path d="M649.38 274.18H634.95V288.61H649.38V274.18Z" fill="#EA5B0C"/>
<path d="M649.38 259.76H634.95V274.19H649.38V259.76Z" fill="#350B75"/>
<path d="M649.38 245.33H634.95V259.76H649.38V245.33Z" fill="#350B75"/>
<path d="M649.38 230.89H634.95V245.33H649.38V230.89Z" fill="#350B75"/>
<path d="M649.38 216.46H634.95V230.89H649.38V216.46Z" fill="#350B75"/>
<path d="M649.38 202.03H634.95V216.46H649.38V202.03Z" fill="#350B75"/>
<path d="M649.38 187.6H634.95V202.03H649.38V187.6Z" fill="#350B75"/>
<path d="M649.38 173.17H634.95V187.6H649.38V173.17Z" fill="#350B75"/>
<path d="M649.38 158.74H634.95V173.18H649.38V158.74Z" fill="#350B75"/>
<path d="M649.38 144.31H634.95V158.74H649.38V144.31Z" fill="#350B75"/>
<path d="M649.38 129.88H634.95V144.31H649.38V129.88Z" fill="#350B75"/>
<path d="M649.38 115.45H634.95V129.88H649.38V115.45Z" fill="#350B75"/>
<path d="M634.95 317.47H620.51V331.91H634.95V317.47Z" fill="#350B75"/>
<path d="M634.95 303.04H620.51V317.47H634.95V303.04Z" fill="#FEA169"/>
<path d="M634.95 288.61H620.51V303.04H634.95V288.61Z" fill="#FEA169"/>
<path d="M634.95 274.18H620.51V288.61H634.95V274.18Z" fill="#FEA169"/>
<path d="M634.95 259.76H620.51V274.19H634.95V259.76Z" fill="#EA5B0C"/>
<path d="M634.95 245.33H620.51V259.76H634.95V245.33Z" fill="#EA5B0C"/>
<path d="M634.95 230.89H620.51V245.33H634.95V230.89Z" fill="#EA5B0C"/>
<path d="M634.95 216.46H620.51V230.89H634.95V216.46Z" fill="#EA5B0C"/>
<path d="M634.95 202.03H620.51V216.46H634.95V202.03Z" fill="#EA5B0C"/>
<path d="M634.95 187.6H620.51V202.03H634.95V187.6Z" fill="#EA5B0C"/>
<path d="M634.95 173.17H620.51V187.6H634.95V173.17Z" fill="#EA5B0C"/>
<path d="M634.95 158.74H620.51V173.18H634.95V158.74Z" fill="#EA5B0C"/>
<path d="M634.95 144.31H620.51V158.74H634.95V144.31Z" fill="#EA5B0C"/>
<path d="M634.95 129.88H620.51V144.31H634.95V129.88Z" fill="#EA5B0C"/>
<path d="M634.95 115.45H620.51V129.88H634.95V115.45Z" fill="#EA5B0C"/>
<path d="M634.95 101.02H620.51V115.45H634.95V101.02Z" fill="#350B75"/>
<path d="M620.51 303.04H606.08V317.47H620.51V303.04Z" fill="#350B75"/>
<path d="M620.51 288.61H606.08V303.04H620.51V288.61Z" fill="#FEA169"/>
<path d="M620.51 274.18H606.08V288.61H620.51V274.18Z" fill="#FEA169"/>
<path d="M620.51 259.76H606.08V274.19H620.51V259.76Z" fill="#FEA169"/>
<path d="M620.51 245.33H606.08V259.76H620.51V245.33Z" fill="#FEA169"/>
<path d="M620.51 230.89H606.08V245.33H620.51V230.89Z" fill="#FEDA83"/>
<path d="M620.51 216.46H606.08V230.89H620.51V216.46Z" fill="#FEA169"/>
<path d="M620.51 202.03H606.08V216.46H620.51V202.03Z" fill="#FEDA83"/>
<path d="M620.51 187.6H606.08V202.03H620.51V187.6Z" fill="#FEDA83"/>
<path d="M620.51 173.17H606.08V187.6H620.51V173.17Z" fill="#FFFFBE"/>
<path d="M620.51 158.74H606.08V173.18H620.51V158.74Z" fill="#FFFFBE"/>
<path d="M620.51 144.31H606.08V158.74H620.51V144.31Z" fill="#FFFFBE"/>
<path d="M620.51 129.88H606.08V144.31H620.51V129.88Z" fill="#FFFFBE"/>
<path d="M620.51 115.45H606.08V129.88H620.51V115.45Z" fill="#FFFFBE"/>
<path d="M620.51 101.02H606.08V115.45H620.51V101.02Z" fill="#350B75"/>
<path d="M606.08 288.61H591.65V303.04H606.08V288.61Z" fill="#350B75"/>
<path d="M606.08 274.18H591.65V288.61H606.08V274.18Z" fill="#FEA169"/>
<path d="M606.08 259.76H591.65V274.19H606.08V259.76Z" fill="#FEA169"/>
<path d="M606.08 245.33H591.65V259.76H606.08V245.33Z" fill="#FEA169"/>
<path d="M606.08 230.89H591.65V245.33H606.08V230.89Z" fill="#FEDA83"/>
<path d="M606.08 216.46H591.65V230.89H606.08V216.46Z" fill="#FEA169"/>
<path d="M606.08 202.03H591.65V216.46H606.08V202.03Z" fill="#FEDA83"/>
<path d="M606.08 187.6H591.65V202.03H606.08V187.6Z" fill="#FEDA83"/>
<path d="M606.08 173.17H591.65V187.6H606.08V173.17Z" fill="#FEDA83"/>
<path d="M606.08 158.74H591.65V173.18H606.08V158.74Z" fill="#FEDA83"/>
<path d="M606.08 144.31H591.65V158.74H606.08V144.31Z" fill="#FEDA83"/>
<path d="M606.08 129.88H591.65V144.31H606.08V129.88Z" fill="#FFFFBE"/>
<path d="M606.08 115.45H591.65V129.88H606.08V115.45Z" fill="#FFFFBE"/>
<path d="M606.08 101.02H591.65V115.45H606.08V101.02Z" fill="#350B75"/>
<path d="M591.66 274.18H577.23V288.61H591.66V274.18Z" fill="#350B75"/>
<path d="M591.66 259.76H577.23V274.19H591.66V259.76Z" fill="#350B75"/>
<path d="M591.66 245.33H577.23V259.76H591.66V245.33Z" fill="#350B75"/>
<path d="M591.66 230.89H577.23V245.33H591.66V230.89Z" fill="#350B75"/>
<path d="M591.66 216.46H577.23V230.89H591.66V216.46Z" fill="#350B75"/>
<path d="M591.66 202.03H577.23V216.46H591.66V202.03Z" fill="#350B75"/>
<path d="M591.66 187.6H577.23V202.03H591.66V187.6Z" fill="#350B75"/>
<path d="M591.66 173.17H577.23V187.6H591.66V173.17Z" fill="#350B75"/>
<path d="M591.66 158.74H577.23V173.18H591.66V158.74Z" fill="#350B75"/>
<path d="M591.66 144.31H577.23V158.74H591.66V144.31Z" fill="#350B75"/>
<path d="M591.66 129.88H577.23V144.31H591.66V129.88Z" fill="#350B75"/>
<path d="M591.66 115.45H577.23V129.88H591.66V115.45Z" fill="#350B75"/>
<path d="M562.8 274.18H548.36V288.61H562.8V274.18Z" fill="#350B75"/>
<path d="M562.8 259.76H548.36V274.19H562.8V259.76Z" fill="#350B75"/>
<path d="M562.8 245.33H548.36V259.76H562.8V245.33Z" fill="#350B75"/>
<path d="M562.8 230.89H548.36V245.33H562.8V230.89Z" fill="#350B75"/>
<path d="M562.8 216.46H548.36V230.89H562.8V216.46Z" fill="#350B75"/>
<path d="M562.8 202.03H548.36V216.46H562.8V202.03Z" fill="#350B75"/>
<path d="M562.8 187.6H548.36V202.03H562.8V187.6Z" fill="#350B75"/>
<path d="M562.8 173.17H548.36V187.6H562.8V173.17Z" fill="#350B75"/>
<path d="M562.8 158.74H548.36V173.18H562.8V158.74Z" fill="#350B75"/>
<path d="M562.8 144.31H548.36V158.74H562.8V144.31Z" fill="#350B75"/>
<path d="M562.8 129.88H548.36V144.31H562.8V129.88Z" fill="#350B75"/>
<path d="M562.8 115.45H548.36V129.88H562.8V115.45Z" fill="#350B75"/>
<path d="M548.36 288.61H533.93V303.04H548.36V288.61Z" fill="#350B75"/>
<path d="M548.36 274.18H533.93V288.61H548.36V274.18Z" fill="#EA5B0C"/>
<path d="M548.36 259.76H533.93V274.19H548.36V259.76Z" fill="#EA5B0C"/>
<path d="M548.36 245.33H533.93V259.76H548.36V245.33Z" fill="#EA5B0C"/>
<path d="M548.36 230.89H533.93V245.33H548.36V230.89Z" fill="#EA5B0C"/>
<path d="M548.36 216.46H533.93V230.89H548.36V216.46Z" fill="#EA5B0C"/>
<path d="M548.36 202.03H533.93V216.46H548.36V202.03Z" fill="#EA5B0C"/>
<path d="M548.36 187.6H533.93V202.03H548.36V187.6Z" fill="#EA5B0C"/>
<path d="M548.36 173.17H533.93V187.6H548.36V173.17Z" fill="#EA5B0C"/>
<path d="M548.36 158.74H533.93V173.18H548.36V158.74Z" fill="#EA5B0C"/>
<path d="M548.36 144.31H533.93V158.74H548.36V144.31Z" fill="#EA5B0C"/>
<path d="M548.36 129.88H533.93V144.31H548.36V129.88Z" fill="#EA5B0C"/>
<path d="M548.36 115.45H533.93V129.88H548.36V115.45Z" fill="#EA5B0C"/>
<path d="M548.36 101.02H533.93V115.45H548.36V101.02Z" fill="#350B75"/>
<path d="M533.93 303.04H519.5V317.47H533.93V303.04Z" fill="#350B75"/>
<path d="M533.93 288.61H519.5V303.04H533.93V288.61Z" fill="#EA5B0C"/>
<path d="M533.93 274.18H519.5V288.61H533.93V274.18Z" fill="#FEA169"/>
<path d="M533.93 259.76H519.5V274.19H533.93V259.76Z" fill="#FEA169"/>
<path d="M533.93 245.33H519.5V259.76H533.93V245.33Z" fill="#FEA169"/>
<path d="M533.93 230.89H519.5V245.33H533.93V230.89Z" fill="#FEDA83"/>
<path d="M533.93 216.46H519.5V230.89H533.93V216.46Z" fill="#FEA169"/>
<path d="M533.93 202.03H519.5V216.46H533.93V202.03Z" fill="#FEDA83"/>
<path d="M533.93 187.6H519.5V202.03H533.93V187.6Z" fill="#FEDA83"/>
<path d="M533.93 173.17H519.5V187.6H533.93V173.17Z" fill="#FFFFBE"/>
<path d="M533.93 158.74H519.5V173.18H533.93V158.74Z" fill="#FFFFBE"/>
<path d="M533.93 144.31H519.5V158.74H533.93V144.31Z" fill="#FFFFBE"/>
<path d="M533.93 129.88H519.5V144.31H533.93V129.88Z" fill="#FFFFBE"/>
<path d="M533.93 115.45H519.5V129.88H533.93V115.45Z" fill="#FFFFBE"/>
<path d="M533.93 101.02H519.5V115.45H533.93V101.02Z" fill="#350B75"/>
<path d="M519.5 317.47H505.07V331.91H519.5V317.47Z" fill="#350B75"/>
<path d="M519.5 303.04H505.07V317.47H519.5V303.04Z" fill="#EA5B0C"/>
<path d="M519.5 288.61H505.07V303.04H519.5V288.61Z" fill="#FEA169"/>
<path d="M519.5 274.18H505.07V288.61H519.5V274.18Z" fill="#FEA169"/>
<path d="M519.5 259.76H505.07V274.19H519.5V259.76Z" fill="#FEA169"/>
<path d="M519.5 245.33H505.07V259.76H519.5V245.33Z" fill="#FEA169"/>
<path d="M519.5 230.89H505.07V245.33H519.5V230.89Z" fill="#FEDA83"/>
<path d="M519.5 216.46H505.07V230.89H519.5V216.46Z" fill="#FEA169"/>
<path d="M519.5 202.03H505.07V216.46H519.5V202.03Z" fill="#FEDA83"/>
<path d="M519.5 187.6H505.07V202.03H519.5V187.6Z" fill="#FEDA83"/>
<path d="M519.5 173.17H505.07V187.6H519.5V173.17Z" fill="#FEDA83"/>
<path d="M519.5 158.74H505.07V173.18H519.5V158.74Z" fill="#FEDA83"/>
<path d="M519.5 144.31H505.07V158.74H519.5V144.31Z" fill="#FEDA83"/>
<path d="M519.5 129.88H505.07V144.31H519.5V129.88Z" fill="#FFFFBE"/>
<path d="M519.5 115.45H505.07V129.88H519.5V115.45Z" fill="#FFFFBE"/>
<path d="M519.5 101.02H505.07V115.45H519.5V101.02Z" fill="#350B75"/>
<path d="M505.07 317.47H490.64V331.91H505.07V317.47Z" fill="#350B75"/>
<path d="M505.07 303.04H490.64V317.47H505.07V303.04Z" fill="#FEA169"/>
<path d="M505.07 288.61H490.64V303.04H505.07V288.61Z" fill="#FEA169"/>
<path d="M505.07 274.18H490.64V288.61H505.07V274.18Z" fill="#FEA169"/>
<path d="M505.07 259.76H490.64V274.19H505.07V259.76Z" fill="#350B75"/>
<path d="M505.07 245.33H490.64V259.76H505.07V245.33Z" fill="#350B75"/>
<path d="M505.07 230.89H490.64V245.33H505.07V230.89Z" fill="#350B75"/>
<path d="M505.07 216.46H490.64V230.89H505.07V216.46Z" fill="#350B75"/>
<path d="M505.07 202.03H490.64V216.46H505.07V202.03Z" fill="#350B75"/>
<path d="M505.07 187.6H490.64V202.03H505.07V187.6Z" fill="#350B75"/>
<path d="M505.07 173.17H490.64V187.6H505.07V173.17Z" fill="#350B75"/>
<path d="M505.07 158.74H490.64V173.18H505.07V158.74Z" fill="#350B75"/>
<path d="M505.07 144.31H490.64V158.74H505.07V144.31Z" fill="#350B75"/>
<path d="M505.07 129.88H490.64V144.31H505.07V129.88Z" fill="#350B75"/>
<path d="M505.07 115.45H490.64V129.88H505.07V115.45Z" fill="#350B75"/>
<path d="M490.65 317.47H476.21V331.91H490.65V317.47Z" fill="#350B75"/>
<path d="M490.65 303.04H476.21V317.47H490.65V303.04Z" fill="#FEA169"/>
<path d="M490.65 288.61H476.21V303.04H490.65V288.61Z" fill="#FEA169"/>
<path d="M490.65 274.18H476.21V288.61H490.65V274.18Z" fill="#350B75"/>
<path d="M476.21 317.47H461.78V331.91H476.21V317.47Z" fill="#350B75"/>
<path d="M476.21 303.04H461.78V317.47H476.21V303.04Z" fill="#FEA169"/>
<path d="M476.21 288.61H461.78V303.04H476.21V288.61Z" fill="#FEA169"/>
<path d="M476.21 274.18H461.78V288.61H476.21V274.18Z" fill="#350B75"/>
<path d="M461.78 317.47H447.35V331.91H461.78V317.47Z" fill="#350B75"/>
<path d="M461.78 303.04H447.35V317.47H461.78V303.04Z" fill="#FEA169"/>
<path d="M461.78 288.61H447.35V303.04H461.78V288.61Z" fill="#FEA169"/>
<path d="M461.78 274.18H447.35V288.61H461.78V274.18Z" fill="#EA5B0C"/>
<path d="M461.78 259.76H447.35V274.19H461.78V259.76Z" fill="#350B75"/>
<path d="M461.78 245.33H447.35V259.76H461.78V245.33Z" fill="#350B75"/>
<path d="M461.78 230.89H447.35V245.33H461.78V230.89Z" fill="#350B75"/>
<path d="M461.78 216.46H447.35V230.89H461.78V216.46Z" fill="#350B75"/>
<path d="M461.78 202.03H447.35V216.46H461.78V202.03Z" fill="#350B75"/>
<path d="M461.78 187.6H447.35V202.03H461.78V187.6Z" fill="#350B75"/>
<path d="M461.78 173.17H447.35V187.6H461.78V173.17Z" fill="#350B75"/>
<path d="M461.78 158.74H447.35V173.18H461.78V158.74Z" fill="#350B75"/>
<path d="M461.78 144.31H447.35V158.74H461.78V144.31Z" fill="#350B75"/>
<path d="M461.78 129.88H447.35V144.31H461.78V129.88Z" fill="#350B75"/>
<path d="M461.78 115.45H447.35V129.88H461.78V115.45Z" fill="#350B75"/>
<path d="M447.35 317.47H432.92V331.91H447.35V317.47Z" fill="#350B75"/>
<path d="M447.35 303.04H432.92V317.47H447.35V303.04Z" fill="#FEA169"/>
<path d="M447.35 288.61H432.92V303.04H447.35V288.61Z" fill="#FEA169"/>
<path d="M447.35 274.18H432.92V288.61H447.35V274.18Z" fill="#FEA169"/>
<path d="M447.35 259.76H432.92V274.19H447.35V259.76Z" fill="#EA5B0C"/>
<path d="M447.35 245.33H432.92V259.76H447.35V245.33Z" fill="#EA5B0C"/>
<path d="M447.35 230.89H432.92V245.33H447.35V230.89Z" fill="#EA5B0C"/>
<path d="M447.35 216.46H432.92V230.89H447.35V216.46Z" fill="#EA5B0C"/>
<path d="M447.35 202.03H432.92V216.46H447.35V202.03Z" fill="#EA5B0C"/>
<path d="M447.35 187.6H432.92V202.03H447.35V187.6Z" fill="#EA5B0C"/>
<path d="M447.35 173.17H432.92V187.6H447.35V173.17Z" fill="#EA5B0C"/>
<path d="M447.35 158.74H432.92V173.18H447.35V158.74Z" fill="#EA5B0C"/>
<path d="M447.35 144.31H432.92V158.74H447.35V144.31Z" fill="#EA5B0C"/>
<path d="M447.35 129.88H432.92V144.31H447.35V129.88Z" fill="#EA5B0C"/>
<path d="M447.35 115.45H432.92V129.88H447.35V115.45Z" fill="#EA5B0C"/>
<path d="M447.35 101.02H432.92V115.45H447.35V101.02Z" fill="#350B75"/>
<path d="M432.92 303.04H418.49V317.47H432.92V303.04Z" fill="#350B75"/>
<path d="M432.92 288.61H418.49V303.04H432.92V288.61Z" fill="#FEA169"/>
<path d="M432.92 274.18H418.49V288.61H432.92V274.18Z" fill="#FEA169"/>
<path d="M432.92 259.76H418.49V274.19H432.92V259.76Z" fill="#FEA169"/>
<path d="M432.92 245.33H418.49V259.76H432.92V245.33Z" fill="#FEA169"/>
<path d="M432.92 230.89H418.49V245.33H432.92V230.89Z" fill="#FEDA83"/>
<path d="M432.92 216.46H418.49V230.89H432.92V216.46Z" fill="#FEA169"/>
<path d="M432.92 202.03H418.49V216.46H432.92V202.03Z" fill="#FEDA83"/>
<path d="M432.92 187.6H418.49V202.03H432.92V187.6Z" fill="#FEDA83"/>
<path d="M432.92 173.17H418.49V187.6H432.92V173.17Z" fill="#FFFFBE"/>
<path d="M432.92 158.74H418.49V173.18H432.92V158.74Z" fill="#FFFFBE"/>
<path d="M432.92 144.31H418.49V158.74H432.92V144.31Z" fill="#FFFFBE"/>
<path d="M432.92 129.88H418.49V144.31H432.92V129.88Z" fill="#FFFFBE"/>
<path d="M432.92 115.45H418.49V129.88H432.92V115.45Z" fill="#FFFFBE"/>
<path d="M432.92 101.02H418.49V115.45H432.92V101.02Z" fill="#350B75"/>
<path d="M418.49 288.61H404.05V303.04H418.49V288.61Z" fill="#350B75"/>
<path d="M418.49 274.18H404.05V288.61H418.49V274.18Z" fill="#FEA169"/>
<path d="M418.49 259.76H404.05V274.19H418.49V259.76Z" fill="#FEA169"/>
<path d="M418.49 245.33H404.05V259.76H418.49V245.33Z" fill="#FEA169"/>
<path d="M418.49 230.89H404.05V245.33H418.49V230.89Z" fill="#FEDA83"/>
<path d="M418.49 216.46H404.05V230.89H418.49V216.46Z" fill="#FEA169"/>
<path d="M418.49 202.03H404.05V216.46H418.49V202.03Z" fill="#FEDA83"/>
<path d="M418.49 187.6H404.05V202.03H418.49V187.6Z" fill="#FEDA83"/>
<path d="M418.49 173.17H404.05V187.6H418.49V173.17Z" fill="#FEDA83"/>
<path d="M418.49 158.74H404.05V173.18H418.49V158.74Z" fill="#FEDA83"/>
<path d="M418.49 144.31H404.05V158.74H418.49V144.31Z" fill="#FEDA83"/>
<path d="M418.49 129.88H404.05V144.31H418.49V129.88Z" fill="#FFFFBE"/>
<path d="M418.49 115.45H404.05V129.88H418.49V115.45Z" fill="#FFFFBE"/>
<path d="M418.49 101.02H404.05V115.45H418.49V101.02Z" fill="#350B75"/>
<path d="M404.06 288.61H389.63V303.04H404.06V288.61Z" fill="#350B75"/>
<path d="M404.06 274.18H389.63V288.61H404.06V274.18Z" fill="#EA5B0C"/>
<path d="M404.06 259.76H389.63V274.19H404.06V259.76Z" fill="#EA5B0C"/>
<path d="M404.06 245.33H389.63V259.76H404.06V245.33Z" fill="#EA5B0C"/>
<path d="M404.06 230.89H389.63V245.33H404.06V230.89Z" fill="#EA5B0C"/>
<path d="M404.06 216.46H389.63V230.89H404.06V216.46Z" fill="#EA5B0C"/>
<path d="M404.06 202.03H389.63V216.46H404.06V202.03Z" fill="#EA5B0C"/>
<path d="M404.06 187.6H389.63V202.03H404.06V187.6Z" fill="#EA5B0C"/>
<path d="M404.06 173.17H389.63V187.6H404.06V173.17Z" fill="#EA5B0C"/>
<path d="M404.06 158.74H389.63V173.18H404.06V158.74Z" fill="#EA5B0C"/>
<path d="M404.06 144.31H389.63V158.74H404.06V144.31Z" fill="#EA5B0C"/>
<path d="M404.06 129.88H389.63V144.31H404.06V129.88Z" fill="#350B75"/>
<path d="M404.06 115.45H389.63V129.88H404.06V115.45Z" fill="#350B75"/>
<path d="M389.63 303.04H375.2V317.47H389.63V303.04Z" fill="#350B75"/>
<path d="M389.63 288.61H375.2V303.04H389.63V288.61Z" fill="#EA5B0C"/>
<path d="M389.63 274.18H375.2V288.61H389.63V274.18Z" fill="#FEA169"/>
<path d="M389.63 259.76H375.2V274.19H389.63V259.76Z" fill="#FEA169"/>
<path d="M389.63 245.33H375.2V259.76H389.63V245.33Z" fill="#FEA169"/>
<path d="M389.63 230.89H375.2V245.33H389.63V230.89Z" fill="#FEDA83"/>
<path d="M389.63 216.46H375.2V230.89H389.63V216.46Z" fill="#FEA169"/>
<path d="M389.63 202.03H375.2V216.46H389.63V202.03Z" fill="#FEDA83"/>
<path d="M389.63 187.6H375.2V202.03H389.63V187.6Z" fill="#FEDA83"/>
<path d="M389.63 173.17H375.2V187.6H389.63V173.17Z" fill="#FFFFBE"/>
<path d="M389.63 158.74H375.2V173.18H389.63V158.74Z" fill="#FFFFBE"/>
<path d="M389.63 144.31H375.2V158.74H389.63V144.31Z" fill="#FFFFBE"/>
<path d="M389.63 129.88H375.2V144.31H389.63V129.88Z" fill="#EA5B0C"/>
<path d="M389.63 115.45H375.2V129.88H389.63V115.45Z" fill="#350B75"/>
<path d="M375.2 317.47H360.77V331.91H375.2V317.47Z" fill="#350B75"/>
<path d="M375.2 303.04H360.77V317.47H375.2V303.04Z" fill="#EA5B0C"/>
<path d="M375.2 288.61H360.77V303.04H375.2V288.61Z" fill="#FEA169"/>
<path d="M375.2 274.18H360.77V288.61H375.2V274.18Z" fill="#FEA169"/>
<path d="M375.2 259.76H360.77V274.19H375.2V259.76Z" fill="#FEA169"/>
<path d="M375.2 245.33H360.77V259.76H375.2V245.33Z" fill="#FEA169"/>
<path d="M375.2 230.89H360.77V245.33H375.2V230.89Z" fill="#FEDA83"/>
<path d="M375.2 216.46H360.77V230.89H375.2V216.46Z" fill="#FEA169"/>
<path d="M375.2 202.03H360.77V216.46H375.2V202.03Z" fill="#FEDA83"/>
<path d="M375.2 187.6H360.77V202.03H375.2V187.6Z" fill="#FEDA83"/>
<path d="M375.2 173.17H360.77V187.6H375.2V173.17Z" fill="#FEDA83"/>
<path d="M375.2 158.74H360.77V173.18H375.2V158.74Z" fill="#FEDA83"/>
<path d="M375.2 144.31H360.77V158.74H375.2V144.31Z" fill="#FFFFBE"/>
<path d="M375.2 129.88H360.77V144.31H375.2V129.88Z" fill="#FFFFBE"/>
<path d="M375.2 115.45H360.77V129.88H375.2V115.45Z" fill="#EA5B0C"/>
<path d="M375.2 101.02H360.77V115.45H375.2V101.02Z" fill="#350B75"/>
<path d="M360.77 317.47H346.34V331.91H360.77V317.47Z" fill="#350B75"/>
<path d="M360.77 303.04H346.34V317.47H360.77V303.04Z" fill="#FEA169"/>
<path d="M360.77 288.61H346.34V303.04H360.77V288.61Z" fill="#FEA169"/>
<path d="M360.77 274.18H346.34V288.61H360.77V274.18Z" fill="#FEA169"/>
<path d="M360.77 259.76H346.34V274.19H360.77V259.76Z" fill="#350B75"/>
<path d="M360.77 245.33H346.34V259.76H360.77V245.33Z" fill="#350B75"/>
<path d="M360.77 230.89H346.34V245.33H360.77V230.89Z" fill="#350B75"/>
<path d="M360.77 216.46H346.34V230.89H360.77V216.46Z" fill="#350B75"/>
<path d="M360.77 202.03H346.34V216.46H360.77V202.03Z" fill="#350B75"/>
<path d="M360.77 187.6H346.34V202.03H360.77V187.6Z" fill="#350B75"/>
<path d="M360.77 173.17H346.34V187.6H360.77V173.17Z" fill="#350B75"/>
<path d="M360.77 158.74H346.34V173.18H360.77V158.74Z" fill="#350B75"/>
<path d="M360.77 144.31H346.34V158.74H360.77V144.31Z" fill="#FEDA83"/>
<path d="M360.77 129.88H346.34V144.31H360.77V129.88Z" fill="#FFFFBE"/>
<path d="M360.77 115.45H346.34V129.88H360.77V115.45Z" fill="#FFFFBE"/>
<path d="M360.77 101.02H346.34V115.45H360.77V101.02Z" fill="#350B75"/>
<path d="M346.34 317.47H331.9V331.91H346.34V317.47Z" fill="#350B75"/>
<path d="M346.34 303.04H331.9V317.47H346.34V303.04Z" fill="#FEA169"/>
<path d="M346.34 288.61H331.9V303.04H346.34V288.61Z" fill="#FEA169"/>
<path d="M346.34 274.18H331.9V288.61H346.34V274.18Z" fill="#350B75"/>
<path d="M346.34 144.31H331.9V158.74H346.34V144.31Z" fill="#350B75"/>
<path d="M346.34 129.88H331.9V144.31H346.34V129.88Z" fill="#FEDA83"/>
<path d="M346.34 115.45H331.9V129.88H346.34V115.45Z" fill="#FFFFBE"/>
<path d="M346.34 101.02H331.9V115.45H346.34V101.02Z" fill="#350B75"/>
<path d="M331.9 317.47H317.47V331.91H331.9V317.47Z" fill="#350B75"/>
<path d="M331.9 303.04H317.47V317.47H331.9V303.04Z" fill="#FEA169"/>
<path d="M331.9 288.61H317.47V303.04H331.9V288.61Z" fill="#FEA169"/>
<path d="M331.9 274.18H317.47V288.61H331.9V274.18Z" fill="#350B75"/>
<path d="M331.9 144.31H317.47V158.74H331.9V144.31Z" fill="#350B75"/>
<path d="M331.9 129.88H317.47V144.31H331.9V129.88Z" fill="#FEDA83"/>
<path d="M331.9 115.45H317.47V129.88H331.9V115.45Z" fill="#FFFFBE"/>
<path d="M331.9 101.02H317.47V115.45H331.9V101.02Z" fill="#350B75"/>
<path d="M317.47 317.47H303.04V331.91H317.47V317.47Z" fill="#350B75"/>
<path d="M317.47 303.04H303.04V317.47H317.47V303.04Z" fill="#FEA169"/>
<path d="M317.47 288.61H303.04V303.04H317.47V288.61Z" fill="#FEA169"/>
<path d="M317.47 274.18H303.04V288.61H317.47V274.18Z" fill="#EA5B0C"/>
<path d="M317.47 259.76H303.04V274.19H317.47V259.76Z" fill="#350B75"/>
<path d="M317.47 245.33H303.04V259.76H317.47V245.33Z" fill="#350B75"/>
<path d="M317.47 230.89H303.04V245.33H317.47V230.89Z" fill="#350B75"/>
<path d="M317.47 216.46H303.04V230.89H317.47V216.46Z" fill="#350B75"/>
<path d="M317.47 202.03H303.04V216.46H317.47V202.03Z" fill="#350B75"/>
<path d="M317.47 187.6H303.04V202.03H317.47V187.6Z" fill="#350B75"/>
<path d="M317.47 173.17H303.04V187.6H317.47V173.17Z" fill="#350B75"/>
<path d="M317.47 158.74H303.04V173.18H317.47V158.74Z" fill="#350B75"/>
<path d="M317.47 144.31H303.04V158.74H317.47V144.31Z" fill="#EA5B0C"/>
<path d="M317.47 129.88H303.04V144.31H317.47V129.88Z" fill="#FEDA83"/>
<path d="M317.47 115.45H303.04V129.88H317.47V115.45Z" fill="#FEDA83"/>
<path d="M317.47 101.02H303.04V115.45H317.47V101.02Z" fill="#350B75"/>
<path d="M303.04 317.47H288.61V331.91H303.04V317.47Z" fill="#350B75"/>
<path d="M303.04 303.04H288.61V317.47H303.04V303.04Z" fill="#FEA169"/>
<path d="M303.04 288.61H288.61V303.04H303.04V288.61Z" fill="#FEA169"/>
<path d="M303.04 274.18H288.61V288.61H303.04V274.18Z" fill="#FEA169"/>
<path d="M303.04 259.76H288.61V274.19H303.04V259.76Z" fill="#EA5B0C"/>
<path d="M303.04 245.33H288.61V259.76H303.04V245.33Z" fill="#EA5B0C"/>
<path d="M303.04 230.89H288.61V245.33H303.04V230.89Z" fill="#EA5B0C"/>
<path d="M303.04 216.46H288.61V230.89H303.04V216.46Z" fill="#EA5B0C"/>
<path d="M303.04 202.03H288.61V216.46H303.04V202.03Z" fill="#EA5B0C"/>
<path d="M303.04 187.6H288.61V202.03H303.04V187.6Z" fill="#EA5B0C"/>
<path d="M303.04 173.17H288.61V187.6H303.04V173.17Z" fill="#EA5B0C"/>
<path d="M303.04 158.74H288.61V173.18H303.04V158.74Z" fill="#EA5B0C"/>
<path d="M303.04 144.31H288.61V158.74H303.04V144.31Z" fill="#FEDA83"/>
<path d="M303.04 129.88H288.61V144.31H303.04V129.88Z" fill="#FEDA83"/>
<path d="M303.04 115.45H288.61V129.88H303.04V115.45Z" fill="#FEDA83"/>
<path d="M303.04 101.02H288.61V115.45H303.04V101.02Z" fill="#350B75"/>
<path d="M288.62 303.04H274.19V317.47H288.62V303.04Z" fill="#350B75"/>
<path d="M288.62 288.61H274.19V303.04H288.62V288.61Z" fill="#FEA169"/>
<path d="M288.62 274.18H274.19V288.61H288.62V274.18Z" fill="#FEA169"/>
<path d="M288.62 259.76H274.19V274.19H288.62V259.76Z" fill="#FEA169"/>
<path d="M288.62 245.33H274.19V259.76H288.62V245.33Z" fill="#FEA169"/>
<path d="M288.62 230.89H274.19V245.33H288.62V230.89Z" fill="#FEDA83"/>
<path d="M288.62 216.46H274.19V230.89H288.62V216.46Z" fill="#FEA169"/>
<path d="M288.62 202.03H274.19V216.46H288.62V202.03Z" fill="#FEDA83"/>
<path d="M288.62 187.6H274.19V202.03H288.62V187.6Z" fill="#FEDA83"/>
<path d="M288.62 173.17H274.19V187.6H288.62V173.17Z" fill="#FEDA83"/>
<path d="M288.62 158.74H274.19V173.18H288.62V158.74Z" fill="#FEDA83"/>
<path d="M288.62 144.31H274.19V158.74H288.62V144.31Z" fill="#FEDA83"/>
<path d="M288.62 129.88H274.19V144.31H288.62V129.88Z" fill="#FEDA83"/>
<path d="M288.62 115.45H274.19V129.88H288.62V115.45Z" fill="#350B75"/>
<path d="M274.19 346.34H259.75V360.77H274.19V346.34Z" fill="#FEA169"/>
<path d="M274.19 288.61H259.75V303.04H274.19V288.61Z" fill="#350B75"/>
<path d="M274.19 274.18H259.75V288.61H274.19V274.18Z" fill="#FEA169"/>
<path d="M274.19 259.76H259.75V274.19H274.19V259.76Z" fill="#FEA169"/>
<path d="M274.19 245.33H259.75V259.76H274.19V245.33Z" fill="#FEA169"/>
<path d="M274.19 230.89H259.75V245.33H274.19V230.89Z" fill="#FEDA83"/>
<path d="M274.19 216.46H259.75V230.89H274.19V216.46Z" fill="#FEA169"/>
<path d="M274.19 202.03H259.75V216.46H274.19V202.03Z" fill="#FEDA83"/>
<path d="M274.19 187.6H259.75V202.03H274.19V187.6Z" fill="#FEDA83"/>
<path d="M274.19 173.17H259.75V187.6H274.19V173.17Z" fill="#FEDA83"/>
<path d="M274.19 158.74H259.75V173.18H274.19V158.74Z" fill="#FEDA83"/>
<path d="M274.19 144.31H259.75V158.74H274.19V144.31Z" fill="#FEDA83"/>
<path d="M274.19 129.88H259.75V144.31H274.19V129.88Z" fill="#350B75"/>
<path d="M274.19 115.45H259.75V129.88H274.19V115.45Z" fill="#350B75"/>
<path d="M259.75 360.77H245.32V375.2H259.75V360.77Z" fill="#FEA169"/>
<path d="M259.75 331.91H245.32V346.34H259.75V331.91Z" fill="#FEA169"/>
<path d="M259.75 274.18H245.32V288.61H259.75V274.18Z" fill="#350B75"/>
<path d="M259.75 259.76H245.32V274.19H259.75V259.76Z" fill="#350B75"/>
<path d="M259.75 245.33H245.32V259.76H259.75V245.33Z" fill="#350B75"/>
<path d="M259.75 230.89H245.32V245.33H259.75V230.89Z" fill="#350B75"/>
<path d="M259.75 216.46H245.32V230.89H259.75V216.46Z" fill="#350B75"/>
<path d="M259.75 202.03H245.32V216.46H259.75V202.03Z" fill="#350B75"/>
<path d="M259.75 187.6H245.32V202.03H259.75V187.6Z" fill="#EA5B0C"/>
<path d="M259.75 173.17H245.32V187.6H259.75V173.17Z" fill="#EA5B0C"/>
<path d="M259.75 158.74H245.32V173.18H259.75V158.74Z" fill="#EA5B0C"/>
<path d="M259.75 144.31H245.32V158.74H259.75V144.31Z" fill="#EA5B0C"/>
<path d="M259.75 129.88H245.32V144.31H259.75V129.88Z" fill="#EA5B0C"/>
<path d="M259.75 115.45H245.32V129.88H259.75V115.45Z" fill="#EA5B0C"/>
<path d="M259.75 101.02H245.32V115.45H259.75V101.02Z" fill="#350B75"/>
<path d="M245.32 346.34H230.89V360.77H245.32V346.34Z" fill="#FEA169"/>
<path d="M245.32 216.46H230.89V230.89H245.32V216.46Z" fill="#350B75"/>
<path d="M245.32 202.03H230.89V216.46H245.32V202.03Z" fill="#EA5B0C"/>
<path d="M245.32 187.6H230.89V202.03H245.32V187.6Z" fill="#FEDA83"/>
<path d="M245.32 173.17H230.89V187.6H245.32V173.17Z" fill="#FFFFBE"/>
<path d="M245.32 158.74H230.89V173.18H245.32V158.74Z" fill="#FFFFBE"/>
<path d="M245.32 144.31H230.89V158.74H245.32V144.31Z" fill="#FFFFBE"/>
<path d="M245.32 129.88H230.89V144.31H245.32V129.88Z" fill="#FFFFBE"/>
<path d="M245.32 115.45H230.89V129.88H245.32V115.45Z" fill="#FFFFBE"/>
<path d="M245.32 101.02H230.89V115.45H245.32V101.02Z" fill="#350B75"/>
<path d="M230.89 230.89H216.46V245.33H230.89V230.89Z" fill="#350B75"/>
<path d="M230.89 216.46H216.46V230.89H230.89V216.46Z" fill="#EA5B0C"/>
<path d="M230.89 202.03H216.46V216.46H230.89V202.03Z" fill="#FEDA83"/>
<path d="M230.89 187.6H216.46V202.03H230.89V187.6Z" fill="#FEDA83"/>
<path d="M230.89 173.17H216.46V187.6H230.89V173.17Z" fill="#FEDA83"/>
<path d="M230.89 158.74H216.46V173.18H230.89V158.74Z" fill="#FEDA83"/>
<path d="M230.89 144.31H216.46V158.74H230.89V144.31Z" fill="#FFFFBE"/>
<path d="M230.89 129.88H216.46V144.31H230.89V129.88Z" fill="#FFFFBE"/>
<path d="M230.89 115.45H216.46V129.88H230.89V115.45Z" fill="#FFFFBE"/>
<path d="M230.89 101.02H216.46V115.45H230.89V101.02Z" fill="#350B75"/>
<path d="M216.46 303.04H202.03V317.47H216.46V303.04Z" fill="#350B75"/>
<path d="M216.46 288.61H202.03V303.04H216.46V288.61Z" fill="#350B75"/>
<path d="M216.46 274.18H202.03V288.61H216.46V274.18Z" fill="#350B75"/>
<path d="M216.46 259.76H202.03V274.19H216.46V259.76Z" fill="#350B75"/>
<path d="M216.46 245.33H202.03V259.76H216.46V245.33Z" fill="#350B75"/>
<path d="M216.46 230.89H202.03V245.33H216.46V230.89Z" fill="#EA5B0C"/>
<path d="M216.46 216.46H202.03V230.89H216.46V216.46Z" fill="#FEA169"/>
<path d="M216.46 202.03H202.03V216.46H216.46V202.03Z" fill="#FEDA83"/>
<path d="M216.46 187.6H202.03V202.03H216.46V187.6Z" fill="#FEDA83"/>
<path d="M216.46 173.17H202.03V187.6H216.46V173.17Z" fill="#350B75"/>
<path d="M216.46 158.74H202.03V173.18H216.46V158.74Z" fill="#350B75"/>
<path d="M216.46 144.31H202.03V158.74H216.46V144.31Z" fill="#350B75"/>
<path d="M216.46 129.88H202.03V144.31H216.46V129.88Z" fill="#350B75"/>
<path d="M216.46 115.45H202.03V129.88H216.46V115.45Z" fill="#350B75"/>
<path d="M202.04 317.47H187.6V331.91H202.04V317.47Z" fill="#350B75"/>
<path d="M202.04 303.04H187.6V317.47H202.04V303.04Z" fill="#EA5B0C"/>
<path d="M202.04 288.61H187.6V303.04H202.04V288.61Z" fill="#EA5B0C"/>
<path d="M202.04 274.18H187.6V288.61H202.04V274.18Z" fill="#EA5B0C"/>
<path d="M202.04 259.76H187.6V274.19H202.04V259.76Z" fill="#EA5B0C"/>
<path d="M202.04 245.33H187.6V259.76H202.04V245.33Z" fill="#EA5B0C"/>
<path d="M202.04 230.89H187.6V245.33H202.04V230.89Z" fill="#FEDA83"/>
<path d="M202.04 216.46H187.6V230.89H202.04V216.46Z" fill="#FEA169"/>
<path d="M202.04 202.03H187.6V216.46H202.04V202.03Z" fill="#FEDA83"/>
<path d="M202.04 187.6H187.6V202.03H202.04V187.6Z" fill="#350B75"/>
<path d="M187.6 317.47H173.17V331.91H187.6V317.47Z" fill="#350B75"/>
<path d="M187.6 303.04H173.17V317.47H187.6V303.04Z" fill="#FEA169"/>
<path d="M187.6 288.61H173.17V303.04H187.6V288.61Z" fill="#FEA169"/>
<path d="M187.6 274.18H173.17V288.61H187.6V274.18Z" fill="#FEA169"/>
<path d="M187.6 259.76H173.17V274.19H187.6V259.76Z" fill="#FEA169"/>
<path d="M187.6 245.33H173.17V259.76H187.6V245.33Z" fill="#FEA169"/>
<path d="M187.6 230.89H173.17V245.33H187.6V230.89Z" fill="#FEDA83"/>
<path d="M187.6 216.46H173.17V230.89H187.6V216.46Z" fill="#FEA169"/>
<path d="M187.6 202.03H173.17V216.46H187.6V202.03Z" fill="#350B75"/>
<path d="M187.6 86.5801H173.17V101.02H187.6V86.5801Z" fill="#E94E1B"/>
<path d="M173.17 317.47H158.74V331.91H173.17V317.47Z" fill="#350B75"/>
<path d="M173.17 303.04H158.74V317.47H173.17V303.04Z" fill="#FEA169"/>
<path d="M173.17 288.61H158.74V303.04H173.17V288.61Z" fill="#FEA169"/>
<path d="M173.17 274.18H158.74V288.61H173.17V274.18Z" fill="#FEA169"/>
<path d="M173.17 259.76H158.74V274.19H173.17V259.76Z" fill="#FEA169"/>
<path d="M173.17 245.33H158.74V259.76H173.17V245.33Z" fill="#FEA169"/>
<path d="M173.17 230.89H158.74V245.33H173.17V230.89Z" fill="#FEDA83"/>
<path d="M173.17 216.46H158.74V230.89H173.17V216.46Z" fill="#FEA169"/>
<path d="M173.17 202.03H158.74V216.46H173.17V202.03Z" fill="#EA5B0C"/>
<path d="M173.17 187.6H158.74V202.03H173.17V187.6Z" fill="#350B75"/>
<path d="M158.74 303.04H144.31V317.47H158.74V303.04Z" fill="#350B75"/>
<path d="M158.74 288.61H144.31V303.04H158.74V288.61Z" fill="#350B75"/>
<path d="M158.74 274.18H144.31V288.61H158.74V274.18Z" fill="#350B75"/>
<path d="M158.74 259.76H144.31V274.19H158.74V259.76Z" fill="#350B75"/>
<path d="M158.74 245.33H144.31V259.76H158.74V245.33Z" fill="#350B75"/>
<path d="M158.74 230.89H144.31V245.33H158.74V230.89Z" fill="#FEDA83"/>
<path d="M158.74 216.46H144.31V230.89H158.74V216.46Z" fill="#FEA169"/>
<path d="M158.74 202.03H144.31V216.46H158.74V202.03Z" fill="#FEDA83"/>
<path d="M158.74 187.6H144.31V202.03H158.74V187.6Z" fill="#EA5B0C"/>
<path d="M158.74 173.17H144.31V187.6H158.74V173.17Z" fill="#350B75"/>
<path d="M158.74 158.74H144.31V173.18H158.74V158.74Z" fill="#350B75"/>
<path d="M158.74 144.31H144.31V158.74H158.74V144.31Z" fill="#350B75"/>
<path d="M158.74 129.88H144.31V144.31H158.74V129.88Z" fill="#350B75"/>
<path d="M158.74 115.45H144.31V129.88H158.74V115.45Z" fill="#350B75"/>
<path d="M144.31 230.89H129.88V245.33H144.31V230.89Z" fill="#350B75"/>
<path d="M144.31 216.46H129.88V230.89H144.31V216.46Z" fill="#FEA169"/>
<path d="M144.31 202.03H129.88V216.46H144.31V202.03Z" fill="#FEDA83"/>
<path d="M144.31 187.6H129.88V202.03H144.31V187.6Z" fill="#FEDA83"/>
<path d="M144.31 173.17H129.88V187.6H144.31V173.17Z" fill="#EA5B0C"/>
<path d="M144.31 158.74H129.88V173.18H144.31V158.74Z" fill="#EA5B0C"/>
<path d="M144.31 144.31H129.88V158.74H144.31V144.31Z" fill="#EA5B0C"/>
<path d="M144.31 129.88H129.88V144.31H144.31V129.88Z" fill="#EA5B0C"/>
<path d="M144.31 115.45H129.88V129.88H144.31V115.45Z" fill="#EA5B0C"/>
<path d="M144.31 101.02H129.88V115.45H144.31V101.02Z" fill="#350B75"/>
<path d="M129.88 303.04H115.44V317.47H129.88V303.04Z" fill="#FEDA83"/>
<path d="M129.88 216.46H115.44V230.89H129.88V216.46Z" fill="#350B75"/>
<path d="M129.88 202.03H115.44V216.46H129.88V202.03Z" fill="#FEDA83"/>
<path d="M129.88 187.6H115.44V202.03H129.88V187.6Z" fill="#FEDA83"/>
<path d="M129.88 173.17H115.44V187.6H129.88V173.17Z" fill="#FEDA83"/>
<path d="M129.88 158.74H115.44V173.18H129.88V158.74Z" fill="#FEDA83"/>
<path d="M129.88 144.31H115.44V158.74H129.88V144.31Z" fill="#FFFFBE"/>
<path d="M129.88 129.88H115.44V144.31H129.88V129.88Z" fill="#FFFFBE"/>
<path d="M129.88 115.45H115.44V129.88H129.88V115.45Z" fill="#FFFFBE"/>
<path d="M129.88 101.02H115.44V115.45H129.88V101.02Z" fill="#350B75"/>
<path d="M115.44 202.03H101.01V216.46H115.44V202.03Z" fill="#350B75"/>
<path d="M115.44 187.6H101.01V202.03H115.44V187.6Z" fill="#FEDA83"/>
<path d="M115.44 173.17H101.01V187.6H115.44V173.17Z" fill="#FEDA83"/>
<path d="M115.44 158.74H101.01V173.18H115.44V158.74Z" fill="#FEDA83"/>
<path d="M115.44 144.31H101.01V158.74H115.44V144.31Z" fill="#FEDA83"/>
<path d="M115.44 129.88H101.01V144.31H115.44V129.88Z" fill="#FEDA83"/>
<path d="M115.44 115.45H101.01V129.88H115.44V115.45Z" fill="#FEDA83"/>
<path d="M115.44 101.02H101.01V115.45H115.44V101.02Z" fill="#350B75"/>
<path d="M101.02 317.47H86.5898V331.91H101.02V317.47Z" fill="#FEDA83"/>
<path d="M101.02 303.04H86.5898V317.47H101.02V303.04Z" fill="#FEDA83"/>
<path d="M101.02 288.61H86.5898V303.04H101.02V288.61Z" fill="#FEDA83"/>
<path d="M101.02 187.6H86.5898V202.03H101.02V187.6Z" fill="#350B75"/>
<path d="M101.02 173.17H86.5898V187.6H101.02V173.17Z" fill="#350B75"/>
<path d="M101.02 158.74H86.5898V173.18H101.02V158.74Z" fill="#350B75"/>
<path d="M101.02 144.31H86.5898V158.74H101.02V144.31Z" fill="#350B75"/>
<path d="M101.02 129.88H86.5898V144.31H101.02V129.88Z" fill="#350B75"/>
<path d="M101.02 115.45H86.5898V129.88H101.02V115.45Z" fill="#350B75"/>
<path d="M86.5902 346.34H72.1602V360.77H86.5902V346.34Z" fill="#FEDA83"/>
<path d="M86.5902 317.47H72.1602V331.91H86.5902V317.47Z" fill="#FEDA83"/>
<path d="M86.5902 288.61H72.1602V303.04H86.5902V288.61Z" fill="#FEDA83"/>
<path d="M86.5902 259.76H72.1602V274.19H86.5902V259.76Z" fill="#FEDA83"/>
<path d="M72.16 317.47H57.73V331.91H72.16V317.47Z" fill="#FEDA83"/>
<path d="M72.16 303.04H57.73V317.47H72.16V303.04Z" fill="#FEDA83"/>
<path d="M72.16 288.61H57.73V303.04H72.16V288.61Z" fill="#FEDA83"/>
<path d="M72.16 230.89H57.73V245.33H72.16V230.89Z" fill="#FEA169"/>
<path d="M72.16 86.5801H57.73V101.02H72.16V86.5801Z" fill="#FEA169"/>
<path d="M57.73 230.89H43.29V245.33H57.73V230.89Z" fill="#FEDA83"/>
<path d="M57.73 101.02H43.29V115.45H57.73V101.02Z" fill="#FEA169"/>
<path d="M57.73 86.5801H43.29V101.02H57.73V86.5801Z" fill="#FEA169"/>
<path d="M57.73 72.1499H43.29V86.5799H57.73V72.1499Z" fill="#FEA169"/>
<path d="M43.2899 303.04H28.8599V317.47H43.2899V303.04Z" fill="#FEDA83"/>
<path d="M43.2899 259.76H28.8599V274.19H43.2899V259.76Z" fill="#FEA169"/>
<path d="M43.2899 245.33H28.8599V259.76H43.2899V245.33Z" fill="#FEDA83"/>
<path d="M43.2899 230.89H28.8599V245.33H43.2899V230.89Z" fill="#FEA169"/>
<path d="M43.2899 216.46H28.8599V230.89H43.2899V216.46Z" fill="#FEDA83"/>
<path d="M43.2899 202.03H28.8599V216.46H43.2899V202.03Z" fill="#FEA169"/>
<path d="M43.2899 86.5801H28.8599V101.02H43.2899V86.5801Z" fill="#FEA169"/>
<path d="M28.8602 230.89H14.4302V245.33H28.8602V230.89Z" fill="#FEDA83"/>
<path d="M14.43 230.89H0V245.33H14.43V230.89Z" fill="#FEA169"/>
<path d="M909.12 288.61H894.69V303.04H909.12V288.61Z" fill="#350B75"/>
<path d="M909.12 274.18H894.69V288.61H909.12V274.18Z" fill="#EA5B0C"/>
<path d="M909.12 259.75H894.69V274.18H909.12V259.75Z" fill="#EA5B0C"/>
<path d="M909.12 245.32H894.69V259.75H909.12V245.32Z" fill="#EA5B0C"/>
<path d="M909.12 230.89H894.69V245.33H909.12V230.89Z" fill="#EA5B0C"/>
<path d="M909.12 216.46H894.69V230.89H909.12V216.46Z" fill="#EA5B0C"/>
<path d="M909.12 202.03H894.69V216.46H909.12V202.03Z" fill="#EA5B0C"/>
<path d="M909.12 187.6H894.69V202.03H909.12V187.6Z" fill="#EA5B0C"/>
<path d="M909.12 173.17H894.69V187.6H909.12V173.17Z" fill="#EA5B0C"/>
<path d="M909.12 158.73H894.69V173.17H909.12V158.73Z" fill="#EA5B0C"/>
<path d="M909.12 144.3H894.69V158.73H909.12V144.3Z" fill="#EA5B0C"/>
<path d="M909.12 129.87H894.69V144.3H909.12V129.87Z" fill="#350B75"/>
<path d="M909.12 115.45H894.69V129.88H909.12V115.45Z" fill="#350B75"/>
<path d="M894.7 303.04H880.27V317.47H894.7V303.04Z" fill="#350B75"/>
<path d="M894.7 288.61H880.27V303.04H894.7V288.61Z" fill="#EA5B0C"/>
<path d="M894.7 274.18H880.27V288.61H894.7V274.18Z" fill="#FEA169"/>
<path d="M894.7 259.75H880.27V274.18H894.7V259.75Z" fill="#FEA169"/>
<path d="M894.7 245.32H880.27V259.75H894.7V245.32Z" fill="#FEA169"/>
<path d="M894.7 230.89H880.27V245.33H894.7V230.89Z" fill="#FEDA83"/>
<path d="M894.7 216.46H880.27V230.89H894.7V216.46Z" fill="#FEA169"/>
<path d="M894.7 202.03H880.27V216.46H894.7V202.03Z" fill="#FEDA83"/>
<path d="M894.7 187.6H880.27V202.03H894.7V187.6Z" fill="#FEDA83"/>
<path d="M894.7 173.17H880.27V187.6H894.7V173.17Z" fill="#FFFFBE"/>
<path d="M894.7 158.73H880.27V173.17H894.7V158.73Z" fill="#FFFFBE"/>
<path d="M894.7 144.3H880.27V158.73H894.7V144.3Z" fill="#FFFFBE"/>
<path d="M894.7 129.87H880.27V144.3H894.7V129.87Z" fill="#EA5B0C"/>
<path d="M894.7 115.45H880.27V129.88H894.7V115.45Z" fill="#350B75"/>
<path d="M880.27 317.47H865.84V331.91H880.27V317.47Z" fill="#350B75"/>
<path d="M880.27 303.04H865.84V317.47H880.27V303.04Z" fill="#EA5B0C"/>
<path d="M880.27 288.61H865.84V303.04H880.27V288.61Z" fill="#FEA169"/>
<path d="M880.27 274.18H865.84V288.61H880.27V274.18Z" fill="#FEA169"/>
<path d="M880.27 259.75H865.84V274.18H880.27V259.75Z" fill="#FEA169"/>
<path d="M880.27 245.32H865.84V259.75H880.27V245.32Z" fill="#FEA169"/>
<path d="M880.27 230.89H865.84V245.33H880.27V230.89Z" fill="#FEDA83"/>
<path d="M880.27 216.46H865.84V230.89H880.27V216.46Z" fill="#FEA169"/>
<path d="M880.27 202.03H865.84V216.46H880.27V202.03Z" fill="#FEDA83"/>
<path d="M880.27 187.6H865.84V202.03H880.27V187.6Z" fill="#FEDA83"/>
<path d="M880.27 173.17H865.84V187.6H880.27V173.17Z" fill="#FEDA83"/>
<path d="M880.27 158.73H865.84V173.17H880.27V158.73Z" fill="#FEDA83"/>
<path d="M880.27 144.3H865.84V158.73H880.27V144.3Z" fill="#FFFFBE"/>
<path d="M880.27 129.87H865.84V144.3H880.27V129.87Z" fill="#FFFFBE"/>
<path d="M880.27 115.45H865.84V129.88H880.27V115.45Z" fill="#EA5B0C"/>
<path d="M880.27 101.02H865.84V115.45H880.27V101.02Z" fill="#350B75"/>
<path d="M865.84 317.47H851.41V331.91H865.84V317.47Z" fill="#350B75"/>
<path d="M865.84 303.04H851.41V317.47H865.84V303.04Z" fill="#FEA169"/>
<path d="M865.84 288.61H851.41V303.04H865.84V288.61Z" fill="#FEA169"/>
<path d="M865.84 274.18H851.41V288.61H865.84V274.18Z" fill="#FEA169"/>
<path d="M865.84 259.75H851.41V274.18H865.84V259.75Z" fill="#350B75"/>
<path d="M865.84 245.32H851.41V259.75H865.84V245.32Z" fill="#350B75"/>
<path d="M865.84 230.89H851.41V245.33H865.84V230.89Z" fill="#350B75"/>
<path d="M865.84 216.46H851.41V230.89H865.84V216.46Z" fill="#350B75"/>
<path d="M865.84 202.03H851.41V216.46H865.84V202.03Z" fill="#350B75"/>
<path d="M865.84 187.6H851.41V202.03H865.84V187.6Z" fill="#350B75"/>
<path d="M865.84 173.17H851.41V187.6H865.84V173.17Z" fill="#350B75"/>
<path d="M865.84 158.73H851.41V173.17H865.84V158.73Z" fill="#350B75"/>
<path d="M865.84 144.3H851.41V158.73H865.84V144.3Z" fill="#FEDA83"/>
<path d="M865.84 129.87H851.41V144.3H865.84V129.87Z" fill="#FFFFBE"/>
<path d="M865.84 115.45H851.41V129.88H865.84V115.45Z" fill="#FFFFBE"/>
<path d="M865.84 101.02H851.41V115.45H865.84V101.02Z" fill="#350B75"/>
<path d="M851.41 317.47H836.97V331.91H851.41V317.47Z" fill="#350B75"/>
<path d="M851.41 303.04H836.97V317.47H851.41V303.04Z" fill="#FEA169"/>
<path d="M851.41 288.61H836.97V303.04H851.41V288.61Z" fill="#FEA169"/>
<path d="M851.41 274.18H836.97V288.61H851.41V274.18Z" fill="#350B75"/>
<path d="M851.41 144.3H836.97V158.73H851.41V144.3Z" fill="#350B75"/>
<path d="M851.41 129.87H836.97V144.3H851.41V129.87Z" fill="#FEDA83"/>
<path d="M851.41 115.45H836.97V129.88H851.41V115.45Z" fill="#FFFFBE"/>
<path d="M851.41 101.02H836.97V115.45H851.41V101.02Z" fill="#350B75"/>
<path d="M836.97 317.47H822.54V331.91H836.97V317.47Z" fill="#350B75"/>
<path d="M836.97 303.04H822.54V317.47H836.97V303.04Z" fill="#FEA169"/>
<path d="M836.97 288.61H822.54V303.04H836.97V288.61Z" fill="#FEA169"/>
<path d="M836.97 274.18H822.54V288.61H836.97V274.18Z" fill="#350B75"/>
<path d="M836.97 144.3H822.54V158.73H836.97V144.3Z" fill="#350B75"/>
<path d="M836.97 129.87H822.54V144.3H836.97V129.87Z" fill="#FEDA83"/>
<path d="M836.97 115.45H822.54V129.88H836.97V115.45Z" fill="#FFFFBE"/>
<path d="M836.97 101.02H822.54V115.45H836.97V101.02Z" fill="#350B75"/>
<path d="M822.54 317.47H808.11V331.91H822.54V317.47Z" fill="#350B75"/>
<path d="M822.54 303.04H808.11V317.47H822.54V303.04Z" fill="#FEA169"/>
<path d="M822.54 288.61H808.11V303.04H822.54V288.61Z" fill="#FEA169"/>
<path d="M822.54 274.18H808.11V288.61H822.54V274.18Z" fill="#EA5B0C"/>
<path d="M822.54 259.75H808.11V274.18H822.54V259.75Z" fill="#350B75"/>
<path d="M822.54 245.32H808.11V259.75H822.54V245.32Z" fill="#350B75"/>
<path d="M822.54 230.89H808.11V245.33H822.54V230.89Z" fill="#350B75"/>
<path d="M822.54 216.46H808.11V230.89H822.54V216.46Z" fill="#350B75"/>
<path d="M822.54 202.03H808.11V216.46H822.54V202.03Z" fill="#350B75"/>
<path d="M822.54 187.6H808.11V202.03H822.54V187.6Z" fill="#350B75"/>
<path d="M822.54 173.17H808.11V187.6H822.54V173.17Z" fill="#350B75"/>
<path d="M822.54 158.73H808.11V173.17H822.54V158.73Z" fill="#350B75"/>
<path d="M822.54 144.3H808.11V158.73H822.54V144.3Z" fill="#EA5B0C"/>
<path d="M822.54 129.87H808.11V144.3H822.54V129.87Z" fill="#FEDA83"/>
<path d="M822.54 115.45H808.11V129.88H822.54V115.45Z" fill="#FEDA83"/>
<path d="M822.54 101.02H808.11V115.45H822.54V101.02Z" fill="#350B75"/>
<path d="M808.11 317.47H793.68V331.91H808.11V317.47Z" fill="#350B75"/>
<path d="M808.11 303.04H793.68V317.47H808.11V303.04Z" fill="#FEA169"/>
<path d="M808.11 288.61H793.68V303.04H808.11V288.61Z" fill="#FEA169"/>
<path d="M808.11 274.18H793.68V288.61H808.11V274.18Z" fill="#FEA169"/>
<path d="M808.11 259.75H793.68V274.18H808.11V259.75Z" fill="#EA5B0C"/>
<path d="M808.11 245.32H793.68V259.75H808.11V245.32Z" fill="#EA5B0C"/>
<path d="M808.11 230.89H793.68V245.33H808.11V230.89Z" fill="#EA5B0C"/>
<path d="M808.11 216.46H793.68V230.89H808.11V216.46Z" fill="#EA5B0C"/>
<path d="M808.11 202.03H793.68V216.46H808.11V202.03Z" fill="#EA5B0C"/>
<path d="M808.11 187.6H793.68V202.03H808.11V187.6Z" fill="#EA5B0C"/>
<path d="M808.11 173.17H793.68V187.6H808.11V173.17Z" fill="#EA5B0C"/>
<path d="M808.11 158.73H793.68V173.17H808.11V158.73Z" fill="#EA5B0C"/>
<path d="M808.11 144.3H793.68V158.73H808.11V144.3Z" fill="#FEDA83"/>
<path d="M808.11 129.87H793.68V144.3H808.11V129.87Z" fill="#FEDA83"/>
<path d="M808.11 115.45H793.68V129.88H808.11V115.45Z" fill="#FEDA83"/>
<path d="M808.11 101.02H793.68V115.45H808.11V101.02Z" fill="#350B75"/>
<path d="M793.68 303.04H779.25V317.47H793.68V303.04Z" fill="#350B75"/>
<path d="M793.68 288.61H779.25V303.04H793.68V288.61Z" fill="#FEA169"/>
<path d="M793.68 274.18H779.25V288.61H793.68V274.18Z" fill="#FEA169"/>
<path d="M793.68 259.75H779.25V274.18H793.68V259.75Z" fill="#FEA169"/>
<path d="M793.68 245.32H779.25V259.75H793.68V245.32Z" fill="#FEA169"/>
<path d="M793.68 230.89H779.25V245.33H793.68V230.89Z" fill="#FEDA83"/>
<path d="M793.68 216.46H779.25V230.89H793.68V216.46Z" fill="#FEA169"/>
<path d="M793.68 202.03H779.25V216.46H793.68V202.03Z" fill="#FEDA83"/>
<path d="M793.68 187.6H779.25V202.03H793.68V187.6Z" fill="#FEDA83"/>
<path d="M793.68 173.17H779.25V187.6H793.68V173.17Z" fill="#FEDA83"/>
<path d="M793.68 158.73H779.25V173.17H793.68V158.73Z" fill="#FEDA83"/>
<path d="M793.68 144.3H779.25V158.73H793.68V144.3Z" fill="#FEDA83"/>
<path d="M793.68 129.87H779.25V144.3H793.68V129.87Z" fill="#FEDA83"/>
<path d="M793.68 115.45H779.25V129.88H793.68V115.45Z" fill="#350B75"/>
<path d="M779.26 288.61H764.82V303.04H779.26V288.61Z" fill="#350B75"/>
<path d="M779.26 274.18H764.82V288.61H779.26V274.18Z" fill="#FEA169"/>
<path d="M779.26 259.75H764.82V274.18H779.26V259.75Z" fill="#FEA169"/>
<path d="M779.26 245.32H764.82V259.75H779.26V245.32Z" fill="#FEA169"/>
<path d="M779.26 230.89H764.82V245.33H779.26V230.89Z" fill="#FEDA83"/>
<path d="M779.26 216.46H764.82V230.89H779.26V216.46Z" fill="#FEA169"/>
<path d="M779.26 202.03H764.82V216.46H779.26V202.03Z" fill="#FEDA83"/>
<path d="M779.26 187.6H764.82V202.03H779.26V187.6Z" fill="#FEDA83"/>
<path d="M779.26 173.17H764.82V187.6H779.26V173.17Z" fill="#FEDA83"/>
<path d="M779.26 158.73H764.82V173.17H779.26V158.73Z" fill="#FEDA83"/>
<path d="M779.26 144.3H764.82V158.73H779.26V144.3Z" fill="#FEDA83"/>
<path d="M779.26 129.87H764.82V144.3H779.26V129.87Z" fill="#350B75"/>
<path d="M779.26 115.45H764.82V129.88H779.26V115.45Z" fill="#350B75"/>
</svg>
